<svg width="481" height="433" viewBox="0 0 481 433" fill="none" xmlns="http://www.w3.org/2000/svg">
<g filter="url(#filter0_d_1_2030)">
<rect x="38" width="405" height="335" fill="white"/>
</g>
<path opacity="0.87" d="M93.04 285L90.224 280.488H88.928V285H87.104V273.704H91.088C92.3787 273.704 93.3547 274.019 94.016 274.648C94.688 275.277 95.024 276.109 95.024 277.144C95.024 278.029 94.7733 278.755 94.272 279.32C93.7813 279.885 93.0667 280.248 92.128 280.408L95.088 285H93.04ZM88.928 279.192H90.944C92.416 279.192 93.152 278.541 93.152 277.24C93.152 276.621 92.9707 276.141 92.608 275.8C92.256 275.448 91.7013 275.272 90.944 275.272H88.928V279.192ZM104.859 280.168C104.859 280.467 104.837 280.728 104.795 280.952H98.0105C98.0425 281.859 98.2932 282.531 98.7625 282.968C99.2318 283.405 99.8132 283.624 100.507 283.624C101.115 283.624 101.627 283.469 102.043 283.16C102.469 282.851 102.731 282.44 102.827 281.928H104.779C104.661 282.547 104.416 283.096 104.043 283.576C103.669 284.056 103.184 284.435 102.587 284.712C101.989 284.979 101.323 285.112 100.587 285.112C99.7332 285.112 98.9758 284.931 98.3145 284.568C97.6638 284.205 97.1518 283.683 96.7785 283C96.4052 282.317 96.2185 281.512 96.2185 280.584C96.2185 279.667 96.4052 278.867 96.7785 278.184C97.1518 277.501 97.6638 276.979 98.3145 276.616C98.9758 276.253 99.7332 276.072 100.587 276.072C101.451 276.072 102.203 276.253 102.843 276.616C103.493 276.968 103.989 277.459 104.331 278.088C104.683 278.707 104.859 279.4 104.859 280.168ZM103.019 280.12C103.04 279.544 102.939 279.064 102.715 278.68C102.501 278.285 102.203 277.997 101.819 277.816C101.445 277.624 101.035 277.528 100.587 277.528C99.8718 277.528 99.2745 277.747 98.7945 278.184C98.3145 278.621 98.0532 279.267 98.0105 280.12H103.019ZM110.156 276.072C110.956 276.072 111.638 276.269 112.204 276.664C112.769 277.059 113.169 277.581 113.404 278.232V276.184H115.228V285H113.404V282.952C113.169 283.603 112.769 284.125 112.204 284.52C111.638 284.915 110.956 285.112 110.156 285.112C109.388 285.112 108.7 284.931 108.092 284.568C107.494 284.205 107.025 283.683 106.684 283C106.342 282.317 106.172 281.512 106.172 280.584C106.172 279.667 106.342 278.867 106.684 278.184C107.025 277.501 107.494 276.979 108.092 276.616C108.7 276.253 109.388 276.072 110.156 276.072ZM110.716 277.672C109.905 277.672 109.254 277.933 108.764 278.456C108.284 278.968 108.044 279.677 108.044 280.584C108.044 281.491 108.284 282.205 108.764 282.728C109.254 283.24 109.905 283.496 110.716 283.496C111.228 283.496 111.686 283.379 112.092 283.144C112.497 282.899 112.817 282.557 113.052 282.12C113.286 281.683 113.404 281.171 113.404 280.584C113.404 280.008 113.286 279.501 113.052 279.064C112.817 278.616 112.497 278.275 112.092 278.04C111.686 277.795 111.228 277.672 110.716 277.672ZM120.953 276.072C121.753 276.072 122.435 276.269 123.001 276.664C123.566 277.059 123.961 277.581 124.185 278.232V273.16H126.025V285H124.185V282.952C123.961 283.603 123.566 284.125 123.001 284.52C122.435 284.915 121.753 285.112 120.953 285.112C120.185 285.112 119.497 284.931 118.889 284.568C118.291 284.205 117.822 283.683 117.481 283C117.139 282.317 116.969 281.512 116.969 280.584C116.969 279.667 117.139 278.867 117.481 278.184C117.822 277.501 118.291 276.979 118.889 276.616C119.497 276.253 120.185 276.072 120.953 276.072ZM121.513 277.672C120.702 277.672 120.051 277.933 119.561 278.456C119.081 278.968 118.841 279.677 118.841 280.584C118.841 281.491 119.081 282.205 119.561 282.728C120.051 283.24 120.702 283.496 121.513 283.496C122.025 283.496 122.483 283.379 122.889 283.144C123.294 282.899 123.614 282.557 123.849 282.12C124.083 281.683 124.201 281.171 124.201 280.584C124.201 280.008 124.083 279.501 123.849 279.064C123.614 278.616 123.294 278.275 122.889 278.04C122.483 277.795 122.025 277.672 121.513 277.672ZM142.987 276.04C144.033 276.04 144.865 276.371 145.483 277.032C146.113 277.693 146.427 278.637 146.427 279.864V285H144.603V280.056C144.603 279.288 144.411 278.696 144.027 278.28C143.643 277.853 143.115 277.64 142.443 277.64C141.729 277.64 141.158 277.869 140.731 278.328C140.315 278.776 140.107 279.437 140.107 280.312V285H138.283V280.056C138.283 279.288 138.091 278.696 137.707 278.28C137.323 277.853 136.795 277.64 136.123 277.64C135.409 277.64 134.838 277.869 134.411 278.328C133.995 278.776 133.787 279.437 133.787 280.312V285H131.963V276.184H133.787V278.024C134.011 277.384 134.385 276.893 134.907 276.552C135.43 276.211 136.043 276.04 136.747 276.04C137.483 276.04 138.118 276.221 138.651 276.584C139.195 276.947 139.59 277.469 139.835 278.152C140.091 277.491 140.502 276.973 141.067 276.6C141.633 276.227 142.273 276.04 142.987 276.04ZM152.589 276.072C153.442 276.072 154.21 276.253 154.893 276.616C155.576 276.979 156.109 277.501 156.493 278.184C156.877 278.867 157.069 279.667 157.069 280.584C157.069 281.512 156.877 282.317 156.493 283C156.109 283.683 155.576 284.205 154.893 284.568C154.21 284.931 153.442 285.112 152.589 285.112C151.736 285.112 150.968 284.931 150.285 284.568C149.613 284.205 149.08 283.683 148.685 283C148.301 282.307 148.109 281.501 148.109 280.584C148.109 279.667 148.301 278.867 148.685 278.184C149.08 277.501 149.613 276.979 150.285 276.616C150.968 276.253 151.736 276.072 152.589 276.072ZM152.589 277.656C152.12 277.656 151.688 277.763 151.293 277.976C150.898 278.189 150.578 278.52 150.333 278.968C150.098 279.405 149.981 279.944 149.981 280.584C149.981 281.235 150.098 281.779 150.333 282.216C150.578 282.653 150.898 282.979 151.293 283.192C151.688 283.405 152.12 283.512 152.589 283.512C153.058 283.512 153.49 283.405 153.885 283.192C154.28 282.979 154.594 282.653 154.829 282.216C155.074 281.779 155.197 281.235 155.197 280.584C155.197 279.944 155.074 279.405 154.829 278.968C154.594 278.52 154.28 278.189 153.885 277.976C153.49 277.763 153.058 277.656 152.589 277.656ZM160.647 277.912C160.945 277.336 161.372 276.883 161.927 276.552C162.481 276.211 163.121 276.04 163.847 276.04V278.024H163.303C162.503 278.024 161.857 278.221 161.367 278.616C160.887 279 160.647 279.64 160.647 280.536V285H158.823V276.184H160.647V277.912ZM173.405 280.168C173.405 280.467 173.384 280.728 173.341 280.952H166.557C166.589 281.859 166.84 282.531 167.309 282.968C167.779 283.405 168.36 283.624 169.053 283.624C169.661 283.624 170.173 283.469 170.589 283.16C171.016 282.851 171.277 282.44 171.373 281.928H173.325C173.208 282.547 172.963 283.096 172.589 283.576C172.216 284.056 171.731 284.435 171.133 284.712C170.536 284.979 169.869 285.112 169.133 285.112C168.28 285.112 167.523 284.931 166.861 284.568C166.211 284.205 165.699 283.683 165.325 283C164.952 282.317 164.765 281.512 164.765 280.584C164.765 279.667 164.952 278.867 165.325 278.184C165.699 277.501 166.211 276.979 166.861 276.616C167.523 276.253 168.28 276.072 169.133 276.072C169.997 276.072 170.749 276.253 171.389 276.616C172.04 276.968 172.536 277.459 172.877 278.088C173.229 278.707 173.405 279.4 173.405 280.168ZM171.565 280.12C171.587 279.544 171.485 279.064 171.261 278.68C171.048 278.285 170.749 277.997 170.365 277.816C169.992 277.624 169.581 277.528 169.133 277.528C168.419 277.528 167.821 277.747 167.341 278.184C166.861 278.621 166.6 279.267 166.557 280.12H171.565Z" fill="#444CFC"/>
<path d="M211.354 280.354C211.549 280.158 211.549 279.842 211.354 279.646L208.172 276.464C207.976 276.269 207.66 276.269 207.464 276.464C207.269 276.66 207.269 276.976 207.464 277.172L210.293 280L207.464 282.828C207.269 283.024 207.269 283.34 207.464 283.536C207.66 283.731 207.976 283.731 208.172 283.536L211.354 280.354ZM187 280.5L211 280.5L211 279.5L187 279.5L187 280.5Z" fill="black"/>
<path d="M101.04 153.72L98.176 165H96.4L93.792 155.784L91.184 165H89.408L86.528 153.72H88.144L90.304 163.304L92.976 153.72H94.592L97.264 163.272L99.44 153.72H101.04ZM110.826 160.12C110.826 160.429 110.805 160.696 110.762 160.92H103.738C103.77 161.923 104.053 162.675 104.586 163.176C105.13 163.677 105.791 163.928 106.57 163.928C107.274 163.928 107.861 163.752 108.33 163.4C108.81 163.037 109.103 162.557 109.21 161.96H110.762C110.655 162.568 110.415 163.112 110.042 163.592C109.679 164.072 109.205 164.445 108.618 164.712C108.031 164.979 107.37 165.112 106.634 165.112C105.791 165.112 105.045 164.931 104.394 164.568C103.743 164.205 103.231 163.688 102.858 163.016C102.495 162.333 102.314 161.533 102.314 160.616C102.314 159.699 102.495 158.899 102.858 158.216C103.231 157.533 103.743 157.011 104.394 156.648C105.045 156.285 105.791 156.104 106.634 156.104C107.487 156.104 108.229 156.285 108.858 156.648C109.498 157.011 109.983 157.496 110.314 158.104C110.655 158.712 110.826 159.384 110.826 160.12ZM109.354 160.216C109.386 159.565 109.279 159.021 109.034 158.584C108.789 158.147 108.453 157.821 108.026 157.608C107.599 157.395 107.135 157.288 106.634 157.288C105.834 157.288 105.162 157.539 104.618 158.04C104.074 158.531 103.781 159.256 103.738 160.216H109.354ZM120.284 156.104C121.137 156.104 121.857 156.317 122.444 156.744C123.041 157.171 123.457 157.741 123.692 158.456V156.216H125.148V165H123.692V162.76C123.457 163.475 123.041 164.045 122.444 164.472C121.857 164.899 121.137 165.112 120.284 165.112C119.505 165.112 118.812 164.931 118.204 164.568C117.596 164.205 117.116 163.688 116.764 163.016C116.422 162.333 116.252 161.533 116.252 160.616C116.252 159.699 116.422 158.899 116.764 158.216C117.116 157.533 117.596 157.011 118.204 156.648C118.812 156.285 119.505 156.104 120.284 156.104ZM120.7 157.4C119.804 157.4 119.084 157.688 118.54 158.264C118.006 158.829 117.74 159.613 117.74 160.616C117.74 161.619 118.006 162.408 118.54 162.984C119.084 163.549 119.804 163.832 120.7 163.832C121.276 163.832 121.788 163.699 122.236 163.432C122.694 163.165 123.052 162.792 123.308 162.312C123.564 161.821 123.692 161.256 123.692 160.616C123.692 159.976 123.564 159.411 123.308 158.92C123.052 158.429 122.694 158.056 122.236 157.8C121.788 157.533 121.276 157.4 120.7 157.4ZM127.209 153.64C127.209 153.373 127.3 153.16 127.481 153C127.662 152.829 127.902 152.744 128.201 152.744C128.5 152.744 128.74 152.829 128.921 153C129.102 153.16 129.193 153.373 129.193 153.64C129.193 153.907 129.102 154.125 128.921 154.296C128.74 154.456 128.5 154.536 128.201 154.536C127.902 154.536 127.662 154.456 127.481 154.296C127.3 154.125 127.209 153.907 127.209 153.64ZM128.921 156.216V165H127.465V156.216H128.921ZM142.062 156.072C143.086 156.072 143.907 156.403 144.526 157.064C145.155 157.715 145.47 158.659 145.47 159.896V165H144.014V160.024C144.014 159.16 143.8 158.499 143.374 158.04C142.958 157.581 142.382 157.352 141.646 157.352C140.878 157.352 140.259 157.608 139.79 158.12C139.331 158.621 139.102 159.363 139.102 160.344V165H137.646V160.024C137.646 159.16 137.432 158.499 137.006 158.04C136.579 157.581 136.003 157.352 135.278 157.352C134.499 157.352 133.875 157.608 133.406 158.12C132.947 158.621 132.718 159.363 132.718 160.344V165H131.262V156.216H132.718V158.216C132.931 157.523 133.31 156.995 133.854 156.632C134.408 156.259 135.043 156.072 135.758 156.072C136.504 156.072 137.15 156.264 137.694 156.648C138.248 157.021 138.643 157.576 138.878 158.312C139.123 157.597 139.534 157.048 140.11 156.664C140.686 156.269 141.336 156.072 142.062 156.072ZM155.876 163.72V165H154.788C153.892 165 153.22 164.787 152.772 164.36C152.334 163.933 152.116 163.219 152.116 162.216V157.48H150.804V156.216H152.116V154.024H153.588V156.216H155.86V157.48H153.588V162.248C153.588 162.813 153.689 163.203 153.892 163.416C154.105 163.619 154.468 163.72 154.98 163.72H155.876ZM161.636 156.104C162.479 156.104 163.231 156.285 163.892 156.648C164.564 157.011 165.087 157.533 165.46 158.216C165.844 158.899 166.036 159.699 166.036 160.616C166.036 161.533 165.844 162.333 165.46 163.016C165.087 163.688 164.564 164.205 163.892 164.568C163.231 164.931 162.479 165.112 161.636 165.112C160.794 165.112 160.036 164.931 159.364 164.568C158.703 164.205 158.18 163.688 157.796 163.016C157.412 162.333 157.22 161.533 157.22 160.616C157.22 159.699 157.412 158.899 157.796 158.216C158.18 157.533 158.703 157.011 159.364 156.648C160.036 156.285 160.794 156.104 161.636 156.104ZM161.636 157.384C161.114 157.384 160.628 157.501 160.18 157.736C159.743 157.971 159.386 158.333 159.108 158.824C158.842 159.304 158.708 159.901 158.708 160.616C158.708 161.32 158.842 161.917 159.108 162.408C159.386 162.888 159.743 163.245 160.18 163.48C160.628 163.715 161.114 163.832 161.636 163.832C162.159 163.832 162.639 163.715 163.076 163.48C163.524 163.245 163.882 162.888 164.148 162.408C164.426 161.917 164.564 161.32 164.564 160.616C164.564 159.901 164.426 159.304 164.148 158.824C163.882 158.333 163.524 157.971 163.076 157.736C162.639 157.501 162.159 157.384 161.636 157.384ZM175.487 156.104C176.34 156.104 177.06 156.317 177.647 156.744C178.244 157.171 178.66 157.741 178.895 158.456V156.216H180.351V165H178.895V162.76C178.66 163.475 178.244 164.045 177.647 164.472C177.06 164.899 176.34 165.112 175.487 165.112C174.708 165.112 174.015 164.931 173.407 164.568C172.799 164.205 172.319 163.688 171.967 163.016C171.625 162.333 171.455 161.533 171.455 160.616C171.455 159.699 171.625 158.899 171.967 158.216C172.319 157.533 172.799 157.011 173.407 156.648C174.015 156.285 174.708 156.104 175.487 156.104ZM175.903 157.4C175.007 157.4 174.287 157.688 173.743 158.264C173.209 158.829 172.943 159.613 172.943 160.616C172.943 161.619 173.209 162.408 173.743 162.984C174.287 163.549 175.007 163.832 175.903 163.832C176.479 163.832 176.991 163.699 177.439 163.432C177.897 163.165 178.255 162.792 178.511 162.312C178.767 161.821 178.895 161.256 178.895 160.616C178.895 159.976 178.767 159.411 178.511 158.92C178.255 158.429 177.897 158.056 177.439 157.8C176.991 157.533 176.479 157.4 175.903 157.4ZM186.86 163.72V165H185.772C184.876 165 184.204 164.787 183.756 164.36C183.319 163.933 183.1 163.219 183.1 162.216V157.48H181.788V156.216H183.1V154.024H184.572V156.216H186.844V157.48H184.572V162.248C184.572 162.813 184.673 163.203 184.876 163.416C185.089 163.619 185.452 163.72 185.964 163.72H186.86ZM192.829 163.72V165H191.741C190.845 165 190.173 164.787 189.725 164.36C189.287 163.933 189.069 163.219 189.069 162.216V157.48H187.757V156.216H189.069V154.024H190.541V156.216H192.813V157.48H190.541V162.248C190.541 162.813 190.642 163.203 190.845 163.416C191.058 163.619 191.421 163.72 191.933 163.72H192.829ZM198.206 156.104C199.059 156.104 199.779 156.317 200.366 156.744C200.963 157.171 201.379 157.741 201.614 158.456V156.216H203.07V165H201.614V162.76C201.379 163.475 200.963 164.045 200.366 164.472C199.779 164.899 199.059 165.112 198.206 165.112C197.427 165.112 196.734 164.931 196.126 164.568C195.518 164.205 195.038 163.688 194.686 163.016C194.344 162.333 194.174 161.533 194.174 160.616C194.174 159.699 194.344 158.899 194.686 158.216C195.038 157.533 195.518 157.011 196.126 156.648C196.734 156.285 197.427 156.104 198.206 156.104ZM198.622 157.4C197.726 157.4 197.006 157.688 196.462 158.264C195.928 158.829 195.662 159.613 195.662 160.616C195.662 161.619 195.928 162.408 196.462 162.984C197.006 163.549 197.726 163.832 198.622 163.832C199.198 163.832 199.71 163.699 200.158 163.432C200.616 163.165 200.974 162.792 201.23 162.312C201.486 161.821 201.614 161.256 201.614 160.616C201.614 159.976 201.486 159.411 201.23 158.92C200.974 158.429 200.616 158.056 200.158 157.8C199.71 157.533 199.198 157.4 198.622 157.4ZM205.131 153.64C205.131 153.373 205.221 153.16 205.403 153C205.584 152.829 205.824 152.744 206.123 152.744C206.421 152.744 206.661 152.829 206.843 153C207.024 153.16 207.115 153.373 207.115 153.64C207.115 153.907 207.024 154.125 206.843 154.296C206.661 154.456 206.421 154.536 206.123 154.536C205.824 154.536 205.584 154.456 205.403 154.296C205.221 154.125 205.131 153.907 205.131 153.64ZM206.843 156.216V165H205.387V156.216H206.843ZM213.808 156.072C214.832 156.072 215.658 156.403 216.288 157.064C216.917 157.715 217.232 158.659 217.232 159.896V165H215.776V160.024C215.776 159.149 215.552 158.477 215.104 158.008C214.656 157.539 214.048 157.304 213.28 157.304C212.48 157.304 211.84 157.565 211.36 158.088C210.88 158.6 210.64 159.352 210.64 160.344V165H209.184V156.216H210.64V158.296C210.864 157.581 211.258 157.032 211.824 156.648C212.4 156.264 213.061 156.072 213.808 156.072ZM227.61 163.72V165H226.522C225.626 165 224.954 164.787 224.506 164.36C224.069 163.933 223.85 163.219 223.85 162.216V157.48H222.538V156.216H223.85V154.024H225.322V156.216H227.594V157.48H225.322V162.248C225.322 162.813 225.423 163.203 225.626 163.416C225.839 163.619 226.202 163.72 226.714 163.72H227.61ZM234.011 156.072C235.035 156.072 235.861 156.403 236.491 157.064C237.12 157.715 237.435 158.659 237.435 159.896V165H235.979V160.024C235.979 159.149 235.755 158.477 235.307 158.008C234.859 157.539 234.251 157.304 233.483 157.304C232.683 157.304 232.043 157.565 231.563 158.088C231.083 158.6 230.843 159.352 230.843 160.344V165H229.387V153.16H230.843V158.296C231.067 157.581 231.461 157.032 232.027 156.648C232.603 156.264 233.264 156.072 234.011 156.072ZM247.748 160.12C247.748 160.429 247.727 160.696 247.684 160.92H240.66C240.692 161.923 240.975 162.675 241.508 163.176C242.052 163.677 242.713 163.928 243.492 163.928C244.196 163.928 244.783 163.752 245.252 163.4C245.732 163.037 246.025 162.557 246.132 161.96H247.684C247.577 162.568 247.337 163.112 246.964 163.592C246.601 164.072 246.127 164.445 245.54 164.712C244.953 164.979 244.292 165.112 243.556 165.112C242.713 165.112 241.967 164.931 241.316 164.568C240.665 164.205 240.153 163.688 239.78 163.016C239.417 162.333 239.236 161.533 239.236 160.616C239.236 159.699 239.417 158.899 239.78 158.216C240.153 157.533 240.665 157.011 241.316 156.648C241.967 156.285 242.713 156.104 243.556 156.104C244.409 156.104 245.151 156.285 245.78 156.648C246.42 157.011 246.905 157.496 247.236 158.104C247.577 158.712 247.748 159.384 247.748 160.12ZM246.276 160.216C246.308 159.565 246.201 159.021 245.956 158.584C245.711 158.147 245.375 157.821 244.948 157.608C244.521 157.395 244.057 157.288 243.556 157.288C242.756 157.288 242.084 157.539 241.54 158.04C240.996 158.531 240.703 159.256 240.66 160.216H246.276ZM257.206 156.104C258.059 156.104 258.779 156.317 259.366 156.744C259.963 157.171 260.379 157.741 260.614 158.456V156.216H262.07V165.144C262.07 165.955 261.899 166.675 261.558 167.304C261.216 167.933 260.736 168.424 260.118 168.776C259.499 169.128 258.779 169.304 257.958 169.304C256.774 169.304 255.808 169.016 255.062 168.44C254.315 167.875 253.84 167.107 253.638 166.136H255.078C255.248 166.723 255.568 167.181 256.038 167.512C256.518 167.853 257.131 168.024 257.878 168.024C258.667 168.024 259.318 167.768 259.83 167.256C260.352 166.755 260.614 166.051 260.614 165.144V162.76C260.379 163.475 259.963 164.045 259.366 164.472C258.779 164.899 258.059 165.112 257.206 165.112C256.427 165.112 255.734 164.931 255.126 164.568C254.518 164.205 254.038 163.688 253.686 163.016C253.344 162.333 253.174 161.533 253.174 160.616C253.174 159.699 253.344 158.899 253.686 158.216C254.038 157.533 254.518 157.011 255.126 156.648C255.734 156.285 256.427 156.104 257.206 156.104ZM257.622 157.4C256.726 157.4 256.006 157.688 255.462 158.264C254.928 158.829 254.662 159.613 254.662 160.616C254.662 161.619 254.928 162.408 255.462 162.984C256.006 163.549 256.726 163.832 257.622 163.832C258.198 163.832 258.71 163.699 259.158 163.432C259.616 163.165 259.974 162.792 260.23 162.312C260.486 161.821 260.614 161.256 260.614 160.616C260.614 159.976 260.486 159.411 260.23 158.92C259.974 158.429 259.616 158.056 259.158 157.8C258.71 157.533 258.198 157.4 257.622 157.4ZM265.843 157.992C266.131 157.384 266.552 156.915 267.107 156.584C267.661 156.243 268.323 156.072 269.091 156.072V157.656H268.643C267.821 157.656 267.149 157.869 266.627 158.296C266.104 158.712 265.843 159.405 265.843 160.376V165H264.387V156.216H265.843V157.992ZM278.607 160.12C278.607 160.429 278.586 160.696 278.543 160.92H271.519C271.551 161.923 271.834 162.675 272.367 163.176C272.911 163.677 273.573 163.928 274.351 163.928C275.055 163.928 275.642 163.752 276.111 163.4C276.591 163.037 276.885 162.557 276.991 161.96H278.543C278.437 162.568 278.197 163.112 277.823 163.592C277.461 164.072 276.986 164.445 276.399 164.712C275.813 164.979 275.151 165.112 274.415 165.112C273.573 165.112 272.826 164.931 272.175 164.568C271.525 164.205 271.013 163.688 270.639 163.016C270.277 162.333 270.095 161.533 270.095 160.616C270.095 159.699 270.277 158.899 270.639 158.216C271.013 157.533 271.525 157.011 272.175 156.648C272.826 156.285 273.573 156.104 274.415 156.104C275.269 156.104 276.01 156.285 276.639 156.648C277.279 157.011 277.765 157.496 278.095 158.104C278.437 158.712 278.607 159.384 278.607 160.12ZM277.135 160.216C277.167 159.565 277.061 159.021 276.815 158.584C276.57 158.147 276.234 157.821 275.807 157.608C275.381 157.395 274.917 157.288 274.415 157.288C273.615 157.288 272.943 157.539 272.399 158.04C271.855 158.531 271.562 159.256 271.519 160.216H277.135ZM284.112 156.104C284.965 156.104 285.685 156.317 286.272 156.744C286.869 157.171 287.285 157.741 287.52 158.456V156.216H288.976V165H287.52V162.76C287.285 163.475 286.869 164.045 286.272 164.472C285.685 164.899 284.965 165.112 284.112 165.112C283.333 165.112 282.64 164.931 282.032 164.568C281.424 164.205 280.944 163.688 280.592 163.016C280.25 162.333 280.08 161.533 280.08 160.616C280.08 159.699 280.25 158.899 280.592 158.216C280.944 157.533 281.424 157.011 282.032 156.648C282.64 156.285 283.333 156.104 284.112 156.104ZM284.528 157.4C283.632 157.4 282.912 157.688 282.368 158.264C281.834 158.829 281.568 159.613 281.568 160.616C281.568 161.619 281.834 162.408 282.368 162.984C282.912 163.549 283.632 163.832 284.528 163.832C285.104 163.832 285.616 163.699 286.064 163.432C286.522 163.165 286.88 162.792 287.136 162.312C287.392 161.821 287.52 161.256 287.52 160.616C287.52 159.976 287.392 159.411 287.136 158.92C286.88 158.429 286.522 158.056 286.064 157.8C285.616 157.533 285.104 157.4 284.528 157.4ZM295.485 163.72V165H294.397C293.501 165 292.829 164.787 292.381 164.36C291.944 163.933 291.725 163.219 291.725 162.216V157.48H290.413V156.216H291.725V154.024H293.197V156.216H295.469V157.48H293.197V162.248C293.197 162.813 293.298 163.203 293.501 163.416C293.714 163.619 294.077 163.72 294.589 163.72H295.485ZM305.342 160.12C305.342 160.429 305.32 160.696 305.278 160.92H298.254C298.286 161.923 298.568 162.675 299.102 163.176C299.646 163.677 300.307 163.928 301.086 163.928C301.79 163.928 302.376 163.752 302.846 163.4C303.326 163.037 303.619 162.557 303.726 161.96H305.278C305.171 162.568 304.931 163.112 304.558 163.592C304.195 164.072 303.72 164.445 303.134 164.712C302.547 164.979 301.886 165.112 301.15 165.112C300.307 165.112 299.56 164.931 298.91 164.568C298.259 164.205 297.747 163.688 297.374 163.016C297.011 162.333 296.83 161.533 296.83 160.616C296.83 159.699 297.011 158.899 297.374 158.216C297.747 157.533 298.259 157.011 298.91 156.648C299.56 156.285 300.307 156.104 301.15 156.104C302.003 156.104 302.744 156.285 303.374 156.648C304.014 157.011 304.499 157.496 304.83 158.104C305.171 158.712 305.342 159.384 305.342 160.12ZM303.87 160.216C303.902 159.565 303.795 159.021 303.55 158.584C303.304 158.147 302.968 157.821 302.542 157.608C302.115 157.395 301.651 157.288 301.15 157.288C300.35 157.288 299.678 157.539 299.134 158.04C298.59 158.531 298.296 159.256 298.254 160.216H303.87ZM309.998 156.104C310.99 156.104 311.785 156.365 312.382 156.888C312.99 157.4 313.358 158.093 313.486 158.968H312.094C312.03 158.445 311.811 158.019 311.438 157.688C311.075 157.347 310.585 157.176 309.966 157.176C309.443 157.176 309.033 157.304 308.734 157.56C308.446 157.805 308.302 158.141 308.302 158.568C308.302 158.888 308.398 159.149 308.59 159.352C308.793 159.544 309.038 159.693 309.326 159.8C309.625 159.896 310.03 160.003 310.542 160.12C311.193 160.269 311.715 160.424 312.11 160.584C312.515 160.733 312.857 160.979 313.134 161.32C313.422 161.661 313.566 162.12 313.566 162.696C313.566 163.411 313.294 163.992 312.75 164.44C312.217 164.888 311.502 165.112 310.606 165.112C309.561 165.112 308.707 164.861 308.046 164.36C307.385 163.859 306.995 163.16 306.878 162.264H308.286C308.339 162.797 308.569 163.229 308.974 163.56C309.39 163.891 309.934 164.056 310.606 164.056C311.107 164.056 311.497 163.928 311.774 163.672C312.062 163.416 312.206 163.08 312.206 162.664C312.206 162.323 312.105 162.051 311.902 161.848C311.699 161.645 311.449 161.491 311.15 161.384C310.851 161.277 310.441 161.165 309.918 161.048C309.267 160.899 308.745 160.749 308.35 160.6C307.966 160.451 307.635 160.216 307.358 159.896C307.091 159.565 306.958 159.123 306.958 158.568C306.958 157.832 307.23 157.24 307.774 156.792C308.318 156.333 309.059 156.104 309.998 156.104ZM319.704 163.72V165H318.616C317.72 165 317.048 164.787 316.6 164.36C316.162 163.933 315.944 163.219 315.944 162.216V157.48H314.632V156.216H315.944V154.024H317.416V156.216H319.688V157.48H317.416V162.248C317.416 162.813 317.517 163.203 317.72 163.416C317.933 163.619 318.296 163.72 318.808 163.72H319.704ZM89.92 180.104C90.912 180.104 91.7067 180.365 92.304 180.888C92.912 181.4 93.28 182.093 93.408 182.968H92.016C91.952 182.445 91.7333 182.019 91.36 181.688C90.9973 181.347 90.5067 181.176 89.888 181.176C89.3653 181.176 88.9547 181.304 88.656 181.56C88.368 181.805 88.224 182.141 88.224 182.568C88.224 182.888 88.32 183.149 88.512 183.352C88.7147 183.544 88.96 183.693 89.248 183.8C89.5467 183.896 89.952 184.003 90.464 184.12C91.1147 184.269 91.6373 184.424 92.032 184.584C92.4373 184.733 92.7787 184.979 93.056 185.32C93.344 185.661 93.488 186.12 93.488 186.696C93.488 187.411 93.216 187.992 92.672 188.44C92.1387 188.888 91.424 189.112 90.528 189.112C89.4827 189.112 88.6293 188.861 87.968 188.36C87.3067 187.859 86.9173 187.16 86.8 186.264H88.208C88.2613 186.797 88.4907 187.229 88.896 187.56C89.312 187.891 89.856 188.056 90.528 188.056C91.0293 188.056 91.4187 187.928 91.696 187.672C91.984 187.416 92.128 187.08 92.128 186.664C92.128 186.323 92.0267 186.051 91.824 185.848C91.6213 185.645 91.3707 185.491 91.072 185.384C90.7733 185.277 90.3627 185.165 89.84 185.048C89.1893 184.899 88.6667 184.749 88.272 184.6C87.888 184.451 87.5573 184.216 87.28 183.896C87.0133 183.565 86.88 183.123 86.88 182.568C86.88 181.832 87.152 181.24 87.696 180.792C88.24 180.333 88.9813 180.104 89.92 180.104ZM99.0336 180.104C99.887 180.104 100.607 180.317 101.194 180.744C101.791 181.171 102.207 181.741 102.442 182.456V180.216H103.898V189H102.442V186.76C102.207 187.475 101.791 188.045 101.194 188.472C100.607 188.899 99.887 189.112 99.0336 189.112C98.255 189.112 97.5616 188.931 96.9536 188.568C96.3456 188.205 95.8656 187.688 95.5136 187.016C95.1723 186.333 95.0016 185.533 95.0016 184.616C95.0016 183.699 95.1723 182.899 95.5136 182.216C95.8656 181.533 96.3456 181.011 96.9536 180.648C97.5616 180.285 98.255 180.104 99.0336 180.104ZM99.4496 181.4C98.5536 181.4 97.8336 181.688 97.2896 182.264C96.7563 182.829 96.4896 183.613 96.4896 184.616C96.4896 185.619 96.7563 186.408 97.2896 186.984C97.8336 187.549 98.5536 187.832 99.4496 187.832C100.026 187.832 100.538 187.699 100.986 187.432C101.444 187.165 101.802 186.792 102.058 186.312C102.314 185.821 102.442 185.256 102.442 184.616C102.442 183.976 102.314 183.411 102.058 182.92C101.802 182.429 101.444 182.056 100.986 181.8C100.538 181.533 100.026 181.4 99.4496 181.4ZM110.407 187.72V189H109.319C108.423 189 107.751 188.787 107.303 188.36C106.866 187.933 106.647 187.219 106.647 186.216V181.48H105.335V180.216H106.647V178.024H108.119V180.216H110.391V181.48H108.119V186.248C108.119 186.813 108.22 187.203 108.423 187.416C108.636 187.619 108.999 187.72 109.511 187.72H110.407ZM111.928 177.64C111.928 177.373 112.018 177.16 112.2 177C112.381 176.829 112.621 176.744 112.92 176.744C113.218 176.744 113.458 176.829 113.64 177C113.821 177.16 113.912 177.373 113.912 177.64C113.912 177.907 113.821 178.125 113.64 178.296C113.458 178.456 113.218 178.536 112.92 178.536C112.621 178.536 112.381 178.456 112.2 178.296C112.018 178.125 111.928 177.907 111.928 177.64ZM113.64 180.216V189H112.184V180.216H113.64ZM118.733 180.104C119.725 180.104 120.519 180.365 121.117 180.888C121.725 181.4 122.093 182.093 122.221 182.968H120.829C120.765 182.445 120.546 182.019 120.173 181.688C119.81 181.347 119.319 181.176 118.701 181.176C118.178 181.176 117.767 181.304 117.469 181.56C117.181 181.805 117.037 182.141 117.037 182.568C117.037 182.888 117.133 183.149 117.325 183.352C117.527 183.544 117.773 183.693 118.061 183.8C118.359 183.896 118.765 184.003 119.277 184.12C119.927 184.269 120.45 184.424 120.845 184.584C121.25 184.733 121.591 184.979 121.869 185.32C122.157 185.661 122.301 186.12 122.301 186.696C122.301 187.411 122.029 187.992 121.485 188.44C120.951 188.888 120.237 189.112 119.341 189.112C118.295 189.112 117.442 188.861 116.781 188.36C116.119 187.859 115.73 187.16 115.613 186.264H117.021C117.074 186.797 117.303 187.229 117.709 187.56C118.125 187.891 118.669 188.056 119.341 188.056C119.842 188.056 120.231 187.928 120.509 187.672C120.797 187.416 120.941 187.08 120.941 186.664C120.941 186.323 120.839 186.051 120.637 185.848C120.434 185.645 120.183 185.491 119.885 185.384C119.586 185.277 119.175 185.165 118.653 185.048C118.002 184.899 117.479 184.749 117.085 184.6C116.701 184.451 116.37 184.216 116.093 183.896C115.826 183.565 115.693 183.123 115.693 182.568C115.693 181.832 115.965 181.24 116.509 180.792C117.053 180.333 117.794 180.104 118.733 180.104ZM128.134 178.136C127.355 178.125 126.811 178.259 126.502 178.536C126.203 178.813 126.054 179.293 126.054 179.976V180.216H128.134V181.496H126.054V189H124.598V181.496H123.334V180.216H124.598V179.864C124.598 177.763 125.777 176.76 128.134 176.856V178.136ZM133.315 180.104C134.168 180.104 134.888 180.317 135.475 180.744C136.072 181.171 136.488 181.741 136.723 182.456V180.216H138.179V189H136.723V186.76C136.488 187.475 136.072 188.045 135.475 188.472C134.888 188.899 134.168 189.112 133.315 189.112C132.536 189.112 131.843 188.931 131.235 188.568C130.627 188.205 130.147 187.688 129.795 187.016C129.454 186.333 129.283 185.533 129.283 184.616C129.283 183.699 129.454 182.899 129.795 182.216C130.147 181.533 130.627 181.011 131.235 180.648C131.843 180.285 132.536 180.104 133.315 180.104ZM133.731 181.4C132.835 181.4 132.115 181.688 131.571 182.264C131.038 182.829 130.771 183.613 130.771 184.616C130.771 185.619 131.038 186.408 131.571 186.984C132.115 187.549 132.835 187.832 133.731 187.832C134.307 187.832 134.819 187.699 135.267 187.432C135.726 187.165 136.083 186.792 136.339 186.312C136.595 185.821 136.723 185.256 136.723 184.616C136.723 183.976 136.595 183.411 136.339 182.92C136.083 182.429 135.726 182.056 135.267 181.8C134.819 181.533 134.307 181.4 133.731 181.4ZM144.384 180.104C145.504 180.104 146.432 180.403 147.168 181C147.904 181.597 148.357 182.397 148.528 183.4H146.992C146.885 182.771 146.592 182.28 146.112 181.928C145.643 181.565 145.056 181.384 144.352 181.384C143.84 181.384 143.371 181.501 142.944 181.736C142.528 181.971 142.192 182.333 141.936 182.824C141.68 183.304 141.552 183.901 141.552 184.616C141.552 185.331 141.68 185.933 141.936 186.424C142.192 186.904 142.528 187.261 142.944 187.496C143.371 187.731 143.84 187.848 144.352 187.848C145.056 187.848 145.643 187.667 146.112 187.304C146.592 186.941 146.885 186.445 146.992 185.816H148.528C148.357 186.829 147.904 187.635 147.168 188.232C146.432 188.819 145.504 189.112 144.384 189.112C143.541 189.112 142.795 188.931 142.144 188.568C141.493 188.205 140.981 187.688 140.608 187.016C140.245 186.333 140.064 185.533 140.064 184.616C140.064 183.699 140.245 182.899 140.608 182.216C140.981 181.533 141.493 181.011 142.144 180.648C142.795 180.285 143.541 180.104 144.384 180.104ZM154.626 187.72V189H153.538C152.642 189 151.97 188.787 151.522 188.36C151.084 187.933 150.866 187.219 150.866 186.216V181.48H149.554V180.216H150.866V178.024H152.338V180.216H154.61V181.48H152.338V186.248C152.338 186.813 152.439 187.203 152.642 187.416C152.855 187.619 153.218 187.72 153.73 187.72H154.626ZM156.146 177.64C156.146 177.373 156.237 177.16 156.418 177C156.6 176.829 156.84 176.744 157.138 176.744C157.437 176.744 157.677 176.829 157.858 177C158.04 177.16 158.13 177.373 158.13 177.64C158.13 177.907 158.04 178.125 157.858 178.296C157.677 178.456 157.437 178.536 157.138 178.536C156.84 178.536 156.6 178.456 156.418 178.296C156.237 178.125 156.146 177.907 156.146 177.64ZM157.858 180.216V189H156.402V180.216H157.858ZM164.183 180.104C165.026 180.104 165.778 180.285 166.439 180.648C167.111 181.011 167.634 181.533 168.007 182.216C168.391 182.899 168.583 183.699 168.583 184.616C168.583 185.533 168.391 186.333 168.007 187.016C167.634 187.688 167.111 188.205 166.439 188.568C165.778 188.931 165.026 189.112 164.183 189.112C163.341 189.112 162.583 188.931 161.911 188.568C161.25 188.205 160.727 187.688 160.343 187.016C159.959 186.333 159.767 185.533 159.767 184.616C159.767 183.699 159.959 182.899 160.343 182.216C160.727 181.533 161.25 181.011 161.911 180.648C162.583 180.285 163.341 180.104 164.183 180.104ZM164.183 181.384C163.661 181.384 163.175 181.501 162.727 181.736C162.29 181.971 161.933 182.333 161.655 182.824C161.389 183.304 161.255 183.901 161.255 184.616C161.255 185.32 161.389 185.917 161.655 186.408C161.933 186.888 162.29 187.245 162.727 187.48C163.175 187.715 163.661 187.832 164.183 187.832C164.706 187.832 165.186 187.715 165.623 187.48C166.071 187.245 166.429 186.888 166.695 186.408C166.973 185.917 167.111 185.32 167.111 184.616C167.111 183.901 166.973 183.304 166.695 182.824C166.429 182.333 166.071 181.971 165.623 181.736C165.186 181.501 164.706 181.384 164.183 181.384ZM175.105 180.072C176.129 180.072 176.955 180.403 177.585 181.064C178.214 181.715 178.529 182.659 178.529 183.896V189H177.073V184.024C177.073 183.149 176.849 182.477 176.401 182.008C175.953 181.539 175.345 181.304 174.577 181.304C173.777 181.304 173.137 181.565 172.657 182.088C172.177 182.6 171.937 183.352 171.937 184.344V189H170.481V180.216H171.937V182.296C172.161 181.581 172.555 181.032 173.121 180.648C173.697 180.264 174.358 180.072 175.105 180.072ZM188.603 178.136C187.824 178.125 187.28 178.259 186.971 178.536C186.672 178.813 186.523 179.293 186.523 179.976V180.216H188.603V181.496H186.523V189H185.067V181.496H183.803V180.216H185.067V179.864C185.067 177.763 186.246 176.76 188.603 176.856V178.136ZM194.168 180.104C195.01 180.104 195.762 180.285 196.424 180.648C197.096 181.011 197.618 181.533 197.992 182.216C198.376 182.899 198.568 183.699 198.568 184.616C198.568 185.533 198.376 186.333 197.992 187.016C197.618 187.688 197.096 188.205 196.424 188.568C195.762 188.931 195.01 189.112 194.168 189.112C193.325 189.112 192.568 188.931 191.896 188.568C191.234 188.205 190.712 187.688 190.328 187.016C189.944 186.333 189.752 185.533 189.752 184.616C189.752 183.699 189.944 182.899 190.328 182.216C190.712 181.533 191.234 181.011 191.896 180.648C192.568 180.285 193.325 180.104 194.168 180.104ZM194.168 181.384C193.645 181.384 193.16 181.501 192.712 181.736C192.274 181.971 191.917 182.333 191.64 182.824C191.373 183.304 191.24 183.901 191.24 184.616C191.24 185.32 191.373 185.917 191.64 186.408C191.917 186.888 192.274 187.245 192.712 187.48C193.16 187.715 193.645 187.832 194.168 187.832C194.69 187.832 195.17 187.715 195.608 187.48C196.056 187.245 196.413 186.888 196.68 186.408C196.957 185.917 197.096 185.32 197.096 184.616C197.096 183.901 196.957 183.304 196.68 182.824C196.413 182.333 196.056 181.971 195.608 181.736C195.17 181.501 194.69 181.384 194.168 181.384ZM201.921 181.992C202.209 181.384 202.63 180.915 203.185 180.584C203.74 180.243 204.401 180.072 205.169 180.072V181.656H204.721C203.9 181.656 203.228 181.869 202.705 182.296C202.182 182.712 201.921 183.405 201.921 184.376V189H200.465V180.216H201.921V181.992ZM214.543 180.104C215.385 180.104 216.137 180.285 216.799 180.648C217.471 181.011 217.993 181.533 218.367 182.216C218.751 182.899 218.943 183.699 218.943 184.616C218.943 185.533 218.751 186.333 218.367 187.016C217.993 187.688 217.471 188.205 216.799 188.568C216.137 188.931 215.385 189.112 214.543 189.112C213.7 189.112 212.943 188.931 212.271 188.568C211.609 188.205 211.087 187.688 210.703 187.016C210.319 186.333 210.127 185.533 210.127 184.616C210.127 183.699 210.319 182.899 210.703 182.216C211.087 181.533 211.609 181.011 212.271 180.648C212.943 180.285 213.7 180.104 214.543 180.104ZM214.543 181.384C214.02 181.384 213.535 181.501 213.087 181.736C212.649 181.971 212.292 182.333 212.015 182.824C211.748 183.304 211.615 183.901 211.615 184.616C211.615 185.32 211.748 185.917 212.015 186.408C212.292 186.888 212.649 187.245 213.087 187.48C213.535 187.715 214.02 187.832 214.543 187.832C215.065 187.832 215.545 187.715 215.983 187.48C216.431 187.245 216.788 186.888 217.055 186.408C217.332 185.917 217.471 185.32 217.471 184.616C217.471 183.901 217.332 183.304 217.055 182.824C216.788 182.333 216.431 181.971 215.983 181.736C215.545 181.501 215.065 181.384 214.543 181.384ZM228.648 180.216V189H227.192V186.936C226.968 187.651 226.568 188.2 225.992 188.584C225.427 188.957 224.765 189.144 224.008 189.144C222.995 189.144 222.173 188.819 221.544 188.168C220.915 187.507 220.6 186.563 220.6 185.336V180.216H222.056V185.192C222.056 186.067 222.28 186.744 222.728 187.224C223.176 187.693 223.784 187.928 224.552 187.928C225.352 187.928 225.992 187.672 226.472 187.16C226.952 186.637 227.192 185.88 227.192 184.888V180.216H228.648ZM232.437 181.992C232.725 181.384 233.146 180.915 233.701 180.584C234.255 180.243 234.917 180.072 235.685 180.072V181.656H235.237C234.415 181.656 233.743 181.869 233.221 182.296C232.698 182.712 232.437 183.405 232.437 184.376V189H230.981V180.216H232.437V181.992ZM244.962 180.104C246.082 180.104 247.01 180.403 247.746 181C248.482 181.597 248.936 182.397 249.106 183.4H247.57C247.464 182.771 247.17 182.28 246.69 181.928C246.221 181.565 245.634 181.384 244.93 181.384C244.418 181.384 243.949 181.501 243.522 181.736C243.106 181.971 242.77 182.333 242.514 182.824C242.258 183.304 242.13 183.901 242.13 184.616C242.13 185.331 242.258 185.933 242.514 186.424C242.77 186.904 243.106 187.261 243.522 187.496C243.949 187.731 244.418 187.848 244.93 187.848C245.634 187.848 246.221 187.667 246.69 187.304C247.17 186.941 247.464 186.445 247.57 185.816H249.106C248.936 186.829 248.482 187.635 247.746 188.232C247.01 188.819 246.082 189.112 244.962 189.112C244.12 189.112 243.373 188.931 242.722 188.568C242.072 188.205 241.56 187.688 241.186 187.016C240.824 186.333 240.642 185.533 240.642 184.616C240.642 183.699 240.824 182.899 241.186 182.216C241.56 181.533 242.072 181.011 242.722 180.648C243.373 180.285 244.12 180.104 244.962 180.104ZM252.468 177.16V189H251.012V177.16H252.468ZM254.553 177.64C254.553 177.373 254.643 177.16 254.825 177C255.006 176.829 255.246 176.744 255.545 176.744C255.843 176.744 256.083 176.829 256.265 177C256.446 177.16 256.537 177.373 256.537 177.64C256.537 177.907 256.446 178.125 256.265 178.296C256.083 178.456 255.843 178.536 255.545 178.536C255.246 178.536 255.006 178.456 254.825 178.296C254.643 178.125 254.553 177.907 254.553 177.64ZM256.265 180.216V189H254.809V180.216H256.265ZM266.686 184.12C266.686 184.429 266.664 184.696 266.622 184.92H259.598C259.63 185.923 259.912 186.675 260.446 187.176C260.99 187.677 261.651 187.928 262.43 187.928C263.134 187.928 263.72 187.752 264.19 187.4C264.67 187.037 264.963 186.557 265.07 185.96H266.622C266.515 186.568 266.275 187.112 265.902 187.592C265.539 188.072 265.064 188.445 264.478 188.712C263.891 188.979 263.23 189.112 262.494 189.112C261.651 189.112 260.904 188.931 260.254 188.568C259.603 188.205 259.091 187.688 258.718 187.016C258.355 186.333 258.174 185.533 258.174 184.616C258.174 183.699 258.355 182.899 258.718 182.216C259.091 181.533 259.603 181.011 260.254 180.648C260.904 180.285 261.651 180.104 262.494 180.104C263.347 180.104 264.088 180.285 264.718 180.648C265.358 181.011 265.843 181.496 266.174 182.104C266.515 182.712 266.686 183.384 266.686 184.12ZM265.214 184.216C265.246 183.565 265.139 183.021 264.894 182.584C264.648 182.147 264.312 181.821 263.886 181.608C263.459 181.395 262.995 181.288 262.494 181.288C261.694 181.288 261.022 181.539 260.478 182.04C259.934 182.531 259.64 183.256 259.598 184.216H265.214ZM273.214 180.072C274.238 180.072 275.065 180.403 275.694 181.064C276.323 181.715 276.638 182.659 276.638 183.896V189H275.182V184.024C275.182 183.149 274.958 182.477 274.51 182.008C274.062 181.539 273.454 181.304 272.686 181.304C271.886 181.304 271.246 181.565 270.766 182.088C270.286 182.6 270.046 183.352 270.046 184.344V189H268.59V180.216H270.046V182.296C270.27 181.581 270.665 181.032 271.23 180.648C271.806 180.264 272.467 180.072 273.214 180.072ZM283.063 187.72V189H281.975C281.079 189 280.407 188.787 279.959 188.36C279.522 187.933 279.303 187.219 279.303 186.216V181.48H277.991V180.216H279.303V178.024H280.775V180.216H283.047V181.48H280.775V186.248C280.775 186.813 280.876 187.203 281.079 187.416C281.292 187.619 281.655 187.72 282.167 187.72H283.063ZM287.592 180.104C288.584 180.104 289.379 180.365 289.976 180.888C290.584 181.4 290.952 182.093 291.08 182.968H289.688C289.624 182.445 289.405 182.019 289.032 181.688C288.669 181.347 288.179 181.176 287.56 181.176C287.037 181.176 286.627 181.304 286.328 181.56C286.04 181.805 285.896 182.141 285.896 182.568C285.896 182.888 285.992 183.149 286.184 183.352C286.387 183.544 286.632 183.693 286.92 183.8C287.219 183.896 287.624 184.003 288.136 184.12C288.787 184.269 289.309 184.424 289.704 184.584C290.109 184.733 290.451 184.979 290.728 185.32C291.016 185.661 291.16 186.12 291.16 186.696C291.16 187.411 290.888 187.992 290.344 188.44C289.811 188.888 289.096 189.112 288.2 189.112C287.155 189.112 286.301 188.861 285.64 188.36C284.979 187.859 284.589 187.16 284.472 186.264H285.88C285.933 186.797 286.163 187.229 286.568 187.56C286.984 187.891 287.528 188.056 288.2 188.056C288.701 188.056 289.091 187.928 289.368 187.672C289.656 187.416 289.8 187.08 289.8 186.664C289.8 186.323 289.699 186.051 289.496 185.848C289.293 185.645 289.043 185.491 288.744 185.384C288.445 185.277 288.035 185.165 287.512 185.048C286.861 184.899 286.339 184.749 285.944 184.6C285.56 184.451 285.229 184.216 284.952 183.896C284.685 183.565 284.552 183.123 284.552 182.568C284.552 181.832 284.824 181.24 285.368 180.792C285.912 180.333 286.653 180.104 287.592 180.104ZM300.659 180.104C301.512 180.104 302.232 180.317 302.819 180.744C303.416 181.171 303.832 181.741 304.067 182.456V180.216H305.523V189H304.067V186.76C303.832 187.475 303.416 188.045 302.819 188.472C302.232 188.899 301.512 189.112 300.659 189.112C299.88 189.112 299.187 188.931 298.579 188.568C297.971 188.205 297.491 187.688 297.139 187.016C296.797 186.333 296.627 185.533 296.627 184.616C296.627 183.699 296.797 182.899 297.139 182.216C297.491 181.533 297.971 181.011 298.579 180.648C299.187 180.285 299.88 180.104 300.659 180.104ZM301.075 181.4C300.179 181.4 299.459 181.688 298.915 182.264C298.381 182.829 298.115 183.613 298.115 184.616C298.115 185.619 298.381 186.408 298.915 186.984C299.459 187.549 300.179 187.832 301.075 187.832C301.651 187.832 302.163 187.699 302.611 187.432C303.069 187.165 303.427 186.792 303.683 186.312C303.939 185.821 304.067 185.256 304.067 184.616C304.067 183.976 303.939 183.411 303.683 182.92C303.427 182.429 303.069 182.056 302.611 181.8C302.163 181.533 301.651 181.4 301.075 181.4ZM312.464 180.072C313.488 180.072 314.315 180.403 314.944 181.064C315.573 181.715 315.888 182.659 315.888 183.896V189H314.432V184.024C314.432 183.149 314.208 182.477 313.76 182.008C313.312 181.539 312.704 181.304 311.936 181.304C311.136 181.304 310.496 181.565 310.016 182.088C309.536 182.6 309.296 183.352 309.296 184.344V189H307.84V180.216H309.296V182.296C309.52 181.581 309.915 181.032 310.48 180.648C311.056 180.264 311.717 180.072 312.464 180.072ZM321.721 180.104C322.574 180.104 323.294 180.317 323.881 180.744C324.478 181.171 324.894 181.741 325.129 182.456V177.16H326.585V189H325.129V186.76C324.894 187.475 324.478 188.045 323.881 188.472C323.294 188.899 322.574 189.112 321.721 189.112C320.942 189.112 320.249 188.931 319.641 188.568C319.033 188.205 318.553 187.688 318.201 187.016C317.86 186.333 317.689 185.533 317.689 184.616C317.689 183.699 317.86 182.899 318.201 182.216C318.553 181.533 319.033 181.011 319.641 180.648C320.249 180.285 320.942 180.104 321.721 180.104ZM322.137 181.4C321.241 181.4 320.521 181.688 319.977 182.264C319.444 182.829 319.177 183.613 319.177 184.616C319.177 185.619 319.444 186.408 319.977 186.984C320.521 187.549 321.241 187.832 322.137 187.832C322.713 187.832 323.225 187.699 323.673 187.432C324.132 187.165 324.489 186.792 324.745 186.312C325.001 185.821 325.129 185.256 325.129 184.616C325.129 183.976 325.001 183.411 324.745 182.92C324.489 182.429 324.132 182.056 323.673 181.8C323.225 181.533 322.713 181.4 322.137 181.4ZM337.704 180.104C338.482 180.104 339.176 180.285 339.784 180.648C340.392 181.011 340.866 181.533 341.208 182.216C341.56 182.899 341.736 183.699 341.736 184.616C341.736 185.533 341.56 186.333 341.208 187.016C340.866 187.688 340.392 188.205 339.784 188.568C339.176 188.931 338.482 189.112 337.704 189.112C336.85 189.112 336.125 188.899 335.528 188.472C334.941 188.035 334.536 187.464 334.312 186.76V189H332.856V177.16H334.312V182.456C334.536 181.752 334.941 181.187 335.528 180.76C336.125 180.323 336.85 180.104 337.704 180.104ZM337.288 181.4C336.722 181.4 336.21 181.533 335.752 181.8C335.293 182.056 334.936 182.429 334.68 182.92C334.424 183.411 334.296 183.976 334.296 184.616C334.296 185.256 334.424 185.821 334.68 186.312C334.936 186.792 335.293 187.165 335.752 187.432C336.21 187.699 336.722 187.832 337.288 187.832C338.194 187.832 338.914 187.549 339.448 186.984C339.992 186.408 340.264 185.619 340.264 184.616C340.264 183.613 339.992 182.829 339.448 182.264C338.914 181.688 338.194 181.4 337.288 181.4ZM351.717 184.12C351.717 184.429 351.695 184.696 351.653 184.92H344.629C344.661 185.923 344.943 186.675 345.477 187.176C346.021 187.677 346.682 187.928 347.461 187.928C348.165 187.928 348.751 187.752 349.221 187.4C349.701 187.037 349.994 186.557 350.101 185.96H351.653C351.546 186.568 351.306 187.112 350.933 187.592C350.57 188.072 350.095 188.445 349.509 188.712C348.922 188.979 348.261 189.112 347.525 189.112C346.682 189.112 345.935 188.931 345.285 188.568C344.634 188.205 344.122 187.688 343.749 187.016C343.386 186.333 343.205 185.533 343.205 184.616C343.205 183.699 343.386 182.899 343.749 182.216C344.122 181.533 344.634 181.011 345.285 180.648C345.935 180.285 346.682 180.104 347.525 180.104C348.378 180.104 349.119 180.285 349.749 180.648C350.389 181.011 350.874 181.496 351.205 182.104C351.546 182.712 351.717 183.384 351.717 184.12ZM350.245 184.216C350.277 183.565 350.17 183.021 349.925 182.584C349.679 182.147 349.343 181.821 348.917 181.608C348.49 181.395 348.026 181.288 347.525 181.288C346.725 181.288 346.053 181.539 345.509 182.04C344.965 182.531 344.671 183.256 344.629 184.216H350.245ZM361.558 180.104C362.401 180.104 363.153 180.285 363.814 180.648C364.486 181.011 365.009 181.533 365.382 182.216C365.766 182.899 365.958 183.699 365.958 184.616C365.958 185.533 365.766 186.333 365.382 187.016C365.009 187.688 364.486 188.205 363.814 188.568C363.153 188.931 362.401 189.112 361.558 189.112C360.716 189.112 359.958 188.931 359.286 188.568C358.625 188.205 358.102 187.688 357.718 187.016C357.334 186.333 357.142 185.533 357.142 184.616C357.142 183.699 357.334 182.899 357.718 182.216C358.102 181.533 358.625 181.011 359.286 180.648C359.958 180.285 360.716 180.104 361.558 180.104ZM361.558 181.384C361.036 181.384 360.55 181.501 360.102 181.736C359.665 181.971 359.308 182.333 359.03 182.824C358.764 183.304 358.63 183.901 358.63 184.616C358.63 185.32 358.764 185.917 359.03 186.408C359.308 186.888 359.665 187.245 360.102 187.48C360.55 187.715 361.036 187.832 361.558 187.832C362.081 187.832 362.561 187.715 362.998 187.48C363.446 187.245 363.804 186.888 364.07 186.408C364.348 185.917 364.486 185.32 364.486 184.616C364.486 183.901 364.348 183.304 364.07 182.824C363.804 182.333 363.446 181.971 362.998 181.736C362.561 181.501 362.081 181.384 361.558 181.384ZM372.48 180.072C373.504 180.072 374.33 180.403 374.96 181.064C375.589 181.715 375.904 182.659 375.904 183.896V189H374.448V184.024C374.448 183.149 374.224 182.477 373.776 182.008C373.328 181.539 372.72 181.304 371.952 181.304C371.152 181.304 370.512 181.565 370.032 182.088C369.552 182.6 369.312 183.352 369.312 184.344V189H367.856V180.216H369.312V182.296C369.536 181.581 369.93 181.032 370.496 180.648C371.072 180.264 371.733 180.072 372.48 180.072ZM386.217 184.12C386.217 184.429 386.195 184.696 386.153 184.92H379.129C379.161 185.923 379.443 186.675 379.977 187.176C380.521 187.677 381.182 187.928 381.961 187.928C382.665 187.928 383.251 187.752 383.721 187.4C384.201 187.037 384.494 186.557 384.601 185.96H386.153C386.046 186.568 385.806 187.112 385.433 187.592C385.07 188.072 384.595 188.445 384.009 188.712C383.422 188.979 382.761 189.112 382.025 189.112C381.182 189.112 380.435 188.931 379.785 188.568C379.134 188.205 378.622 187.688 378.249 187.016C377.886 186.333 377.705 185.533 377.705 184.616C377.705 183.699 377.886 182.899 378.249 182.216C378.622 181.533 379.134 181.011 379.785 180.648C380.435 180.285 381.182 180.104 382.025 180.104C382.878 180.104 383.619 180.285 384.249 180.648C384.889 181.011 385.374 181.496 385.705 182.104C386.046 182.712 386.217 183.384 386.217 184.12ZM384.745 184.216C384.777 183.565 384.67 183.021 384.425 182.584C384.179 182.147 383.843 181.821 383.417 181.608C382.99 181.395 382.526 181.288 382.025 181.288C381.225 181.288 380.553 181.539 380.009 182.04C379.465 182.531 379.171 183.256 379.129 184.216H384.745ZM396.058 180.104C396.901 180.104 397.653 180.285 398.314 180.648C398.986 181.011 399.509 181.533 399.882 182.216C400.266 182.899 400.458 183.699 400.458 184.616C400.458 185.533 400.266 186.333 399.882 187.016C399.509 187.688 398.986 188.205 398.314 188.568C397.653 188.931 396.901 189.112 396.058 189.112C395.216 189.112 394.458 188.931 393.786 188.568C393.125 188.205 392.602 187.688 392.218 187.016C391.834 186.333 391.642 185.533 391.642 184.616C391.642 183.699 391.834 182.899 392.218 182.216C392.602 181.533 393.125 181.011 393.786 180.648C394.458 180.285 395.216 180.104 396.058 180.104ZM396.058 181.384C395.536 181.384 395.05 181.501 394.602 181.736C394.165 181.971 393.808 182.333 393.53 182.824C393.264 183.304 393.13 183.901 393.13 184.616C393.13 185.32 393.264 185.917 393.53 186.408C393.808 186.888 394.165 187.245 394.602 187.48C395.05 187.715 395.536 187.832 396.058 187.832C396.581 187.832 397.061 187.715 397.498 187.48C397.946 187.245 398.304 186.888 398.57 186.408C398.848 185.917 398.986 185.32 398.986 184.616C398.986 183.901 398.848 183.304 398.57 182.824C398.304 182.333 397.946 181.971 397.498 181.736C397.061 181.501 396.581 181.384 396.058 181.384ZM406.244 178.136C405.465 178.125 404.921 178.259 404.612 178.536C404.313 178.813 404.164 179.293 404.164 179.976V180.216H406.244V181.496H404.164V189H402.708V181.496H401.444V180.216H402.708V179.864C402.708 177.763 403.886 176.76 406.244 176.856V178.136ZM91.36 211.72V213H90.272C89.376 213 88.704 212.787 88.256 212.36C87.8187 211.933 87.6 211.219 87.6 210.216V205.48H86.288V204.216H87.6V202.024H89.072V204.216H91.344V205.48H89.072V210.248C89.072 210.813 89.1733 211.203 89.376 211.416C89.5893 211.619 89.952 211.72 90.464 211.72H91.36ZM97.7608 204.072C98.7848 204.072 99.6114 204.403 100.241 205.064C100.87 205.715 101.185 206.659 101.185 207.896V213H99.7288V208.024C99.7288 207.149 99.5048 206.477 99.0568 206.008C98.6088 205.539 98.0008 205.304 97.2328 205.304C96.4328 205.304 95.7928 205.565 95.3128 206.088C94.8328 206.6 94.5928 207.352 94.5928 208.344V213H93.1368V201.16H94.5928V206.296C94.8168 205.581 95.2114 205.032 95.7768 204.648C96.3528 204.264 97.0141 204.072 97.7608 204.072ZM111.498 208.12C111.498 208.429 111.477 208.696 111.434 208.92H104.41C104.442 209.923 104.725 210.675 105.258 211.176C105.802 211.677 106.463 211.928 107.242 211.928C107.946 211.928 108.533 211.752 109.002 211.4C109.482 211.037 109.775 210.557 109.882 209.96H111.434C111.327 210.568 111.087 211.112 110.714 211.592C110.351 212.072 109.877 212.445 109.29 212.712C108.703 212.979 108.042 213.112 107.306 213.112C106.463 213.112 105.717 212.931 105.066 212.568C104.415 212.205 103.903 211.688 103.53 211.016C103.167 210.333 102.986 209.533 102.986 208.616C102.986 207.699 103.167 206.899 103.53 206.216C103.903 205.533 104.415 205.011 105.066 204.648C105.717 204.285 106.463 204.104 107.306 204.104C108.159 204.104 108.901 204.285 109.53 204.648C110.17 205.011 110.655 205.496 110.986 206.104C111.327 206.712 111.498 207.384 111.498 208.12ZM110.026 208.216C110.058 207.565 109.951 207.021 109.706 206.584C109.461 206.147 109.125 205.821 108.698 205.608C108.271 205.395 107.807 205.288 107.306 205.288C106.506 205.288 105.834 205.539 105.29 206.04C104.746 206.531 104.453 207.256 104.41 208.216H110.026ZM122.204 204.104C122.982 204.104 123.676 204.285 124.284 204.648C124.892 205.011 125.366 205.533 125.708 206.216C126.06 206.899 126.236 207.699 126.236 208.616C126.236 209.533 126.06 210.333 125.708 211.016C125.366 211.688 124.892 212.205 124.284 212.568C123.676 212.931 122.982 213.112 122.204 213.112C121.35 213.112 120.625 212.899 120.028 212.472C119.441 212.035 119.036 211.464 118.812 210.76V217.16H117.356V204.216H118.812V206.456C119.036 205.752 119.441 205.187 120.028 204.76C120.625 204.323 121.35 204.104 122.204 204.104ZM121.788 205.4C121.222 205.4 120.71 205.533 120.252 205.8C119.793 206.056 119.436 206.429 119.18 206.92C118.924 207.411 118.796 207.976 118.796 208.616C118.796 209.256 118.924 209.821 119.18 210.312C119.436 210.792 119.793 211.165 120.252 211.432C120.71 211.699 121.222 211.832 121.788 211.832C122.694 211.832 123.414 211.549 123.948 210.984C124.492 210.408 124.764 209.619 124.764 208.616C124.764 207.613 124.492 206.829 123.948 206.264C123.414 205.688 122.694 205.4 121.788 205.4ZM129.593 205.992C129.881 205.384 130.302 204.915 130.857 204.584C131.411 204.243 132.073 204.072 132.841 204.072V205.656H132.393C131.571 205.656 130.899 205.869 130.377 206.296C129.854 206.712 129.593 207.405 129.593 208.376V213H128.137V204.216H129.593V205.992ZM138.261 204.104C139.104 204.104 139.856 204.285 140.517 204.648C141.189 205.011 141.712 205.533 142.085 206.216C142.469 206.899 142.661 207.699 142.661 208.616C142.661 209.533 142.469 210.333 142.085 211.016C141.712 211.688 141.189 212.205 140.517 212.568C139.856 212.931 139.104 213.112 138.261 213.112C137.419 213.112 136.661 212.931 135.989 212.568C135.328 212.205 134.805 211.688 134.421 211.016C134.037 210.333 133.845 209.533 133.845 208.616C133.845 207.699 134.037 206.899 134.421 206.216C134.805 205.533 135.328 205.011 135.989 204.648C136.661 204.285 137.419 204.104 138.261 204.104ZM138.261 205.384C137.739 205.384 137.253 205.501 136.805 205.736C136.368 205.971 136.011 206.333 135.733 206.824C135.467 207.304 135.333 207.901 135.333 208.616C135.333 209.32 135.467 209.917 135.733 210.408C136.011 210.888 136.368 211.245 136.805 211.48C137.253 211.715 137.739 211.832 138.261 211.832C138.784 211.832 139.264 211.715 139.701 211.48C140.149 211.245 140.507 210.888 140.773 210.408C141.051 209.917 141.189 209.32 141.189 208.616C141.189 207.901 141.051 207.304 140.773 206.824C140.507 206.333 140.149 205.971 139.701 205.736C139.264 205.501 138.784 205.384 138.261 205.384ZM155.359 204.072C156.383 204.072 157.204 204.403 157.823 205.064C158.452 205.715 158.767 206.659 158.767 207.896V213H157.311V208.024C157.311 207.16 157.097 206.499 156.671 206.04C156.255 205.581 155.679 205.352 154.943 205.352C154.175 205.352 153.556 205.608 153.087 206.12C152.628 206.621 152.399 207.363 152.399 208.344V213H150.943V208.024C150.943 207.16 150.729 206.499 150.303 206.04C149.876 205.581 149.3 205.352 148.575 205.352C147.796 205.352 147.172 205.608 146.703 206.12C146.244 206.621 146.015 207.363 146.015 208.344V213H144.559V204.216H146.015V206.216C146.228 205.523 146.607 204.995 147.151 204.632C147.705 204.259 148.34 204.072 149.055 204.072C149.801 204.072 150.447 204.264 150.991 204.648C151.545 205.021 151.94 205.576 152.175 206.312C152.42 205.597 152.831 205.048 153.407 204.664C153.983 204.269 154.633 204.072 155.359 204.072ZM160.771 201.64C160.771 201.373 160.862 201.16 161.043 201C161.225 200.829 161.465 200.744 161.763 200.744C162.062 200.744 162.302 200.829 162.483 201C162.665 201.16 162.755 201.373 162.755 201.64C162.755 201.907 162.665 202.125 162.483 202.296C162.302 202.456 162.062 202.536 161.763 202.536C161.465 202.536 161.225 202.456 161.043 202.296C160.862 202.125 160.771 201.907 160.771 201.64ZM162.483 204.216V213H161.027V204.216H162.483ZM169.448 204.072C170.472 204.072 171.299 204.403 171.928 205.064C172.558 205.715 172.872 206.659 172.872 207.896V213H171.416V208.024C171.416 207.149 171.192 206.477 170.744 206.008C170.296 205.539 169.688 205.304 168.92 205.304C168.12 205.304 167.48 205.565 167 206.088C166.52 206.6 166.28 207.352 166.28 208.344V213H164.824V204.216H166.28V206.296C166.504 205.581 166.899 205.032 167.464 204.648C168.04 204.264 168.702 204.072 169.448 204.072ZM183.186 208.12C183.186 208.429 183.164 208.696 183.122 208.92H176.098C176.13 209.923 176.412 210.675 176.946 211.176C177.49 211.677 178.151 211.928 178.93 211.928C179.634 211.928 180.22 211.752 180.69 211.4C181.17 211.037 181.463 210.557 181.57 209.96H183.122C183.015 210.568 182.775 211.112 182.402 211.592C182.039 212.072 181.564 212.445 180.978 212.712C180.391 212.979 179.73 213.112 178.994 213.112C178.151 213.112 177.404 212.931 176.754 212.568C176.103 212.205 175.591 211.688 175.218 211.016C174.855 210.333 174.674 209.533 174.674 208.616C174.674 207.699 174.855 206.899 175.218 206.216C175.591 205.533 176.103 205.011 176.754 204.648C177.404 204.285 178.151 204.104 178.994 204.104C179.847 204.104 180.588 204.285 181.218 204.648C181.858 205.011 182.343 205.496 182.674 206.104C183.015 206.712 183.186 207.384 183.186 208.12ZM181.714 208.216C181.746 207.565 181.639 207.021 181.394 206.584C181.148 206.147 180.812 205.821 180.386 205.608C179.959 205.395 179.495 205.288 178.994 205.288C178.194 205.288 177.522 205.539 176.978 206.04C176.434 206.531 176.14 207.256 176.098 208.216H181.714ZM189.714 204.072C190.738 204.072 191.565 204.403 192.194 205.064C192.823 205.715 193.138 206.659 193.138 207.896V213H191.682V208.024C191.682 207.149 191.458 206.477 191.01 206.008C190.562 205.539 189.954 205.304 189.186 205.304C188.386 205.304 187.746 205.565 187.266 206.088C186.786 206.6 186.546 207.352 186.546 208.344V213H185.09V204.216H186.546V206.296C186.77 205.581 187.165 205.032 187.73 204.648C188.306 204.264 188.967 204.072 189.714 204.072ZM199.563 211.72V213H198.475C197.579 213 196.907 212.787 196.459 212.36C196.022 211.933 195.803 211.219 195.803 210.216V205.48H194.491V204.216H195.803V202.024H197.275V204.216H199.547V205.48H197.275V210.248C197.275 210.813 197.376 211.203 197.579 211.416C197.792 211.619 198.155 211.72 198.667 211.72H199.563ZM209.917 204.072C210.941 204.072 211.768 204.403 212.397 205.064C213.026 205.715 213.341 206.659 213.341 207.896V213H211.885V208.024C211.885 207.149 211.661 206.477 211.213 206.008C210.765 205.539 210.157 205.304 209.389 205.304C208.589 205.304 207.949 205.565 207.469 206.088C206.989 206.6 206.749 207.352 206.749 208.344V213H205.293V204.216H206.749V206.296C206.973 205.581 207.368 205.032 207.933 204.648C208.509 204.264 209.17 204.072 209.917 204.072ZM219.174 204.104C220.028 204.104 220.748 204.317 221.334 204.744C221.932 205.171 222.348 205.741 222.582 206.456V204.216H224.038V213H222.582V210.76C222.348 211.475 221.932 212.045 221.334 212.472C220.748 212.899 220.028 213.112 219.174 213.112C218.396 213.112 217.702 212.931 217.094 212.568C216.486 212.205 216.006 211.688 215.654 211.016C215.313 210.333 215.142 209.533 215.142 208.616C215.142 207.699 215.313 206.899 215.654 206.216C216.006 205.533 216.486 205.011 217.094 204.648C217.702 204.285 218.396 204.104 219.174 204.104ZM219.59 205.4C218.694 205.4 217.974 205.688 217.43 206.264C216.897 206.829 216.63 207.613 216.63 208.616C216.63 209.619 216.897 210.408 217.43 210.984C217.974 211.549 218.694 211.832 219.59 211.832C220.166 211.832 220.678 211.699 221.126 211.432C221.585 211.165 221.942 210.792 222.198 210.312C222.454 209.821 222.582 209.256 222.582 208.616C222.582 207.976 222.454 207.411 222.198 206.92C221.942 206.429 221.585 206.056 221.126 205.8C220.678 205.533 220.166 205.4 219.59 205.4ZM237.156 204.072C238.18 204.072 239.001 204.403 239.62 205.064C240.249 205.715 240.564 206.659 240.564 207.896V213H239.108V208.024C239.108 207.16 238.894 206.499 238.468 206.04C238.052 205.581 237.476 205.352 236.74 205.352C235.972 205.352 235.353 205.608 234.884 206.12C234.425 206.621 234.196 207.363 234.196 208.344V213H232.74V208.024C232.74 207.16 232.526 206.499 232.1 206.04C231.673 205.581 231.097 205.352 230.372 205.352C229.593 205.352 228.969 205.608 228.5 206.12C228.041 206.621 227.812 207.363 227.812 208.344V213H226.356V204.216H227.812V206.216C228.025 205.523 228.404 204.995 228.948 204.632C229.502 204.259 230.137 204.072 230.852 204.072C231.598 204.072 232.244 204.264 232.788 204.648C233.342 205.021 233.737 205.576 233.972 206.312C234.217 205.597 234.628 205.048 235.204 204.664C235.78 204.269 236.43 204.072 237.156 204.072ZM250.904 208.12C250.904 208.429 250.883 208.696 250.84 208.92H243.816C243.848 209.923 244.131 210.675 244.664 211.176C245.208 211.677 245.87 211.928 246.648 211.928C247.352 211.928 247.939 211.752 248.408 211.4C248.888 211.037 249.182 210.557 249.288 209.96H250.84C250.734 210.568 250.494 211.112 250.12 211.592C249.758 212.072 249.283 212.445 248.696 212.712C248.11 212.979 247.448 213.112 246.712 213.112C245.87 213.112 245.123 212.931 244.472 212.568C243.822 212.205 243.31 211.688 242.936 211.016C242.574 210.333 242.392 209.533 242.392 208.616C242.392 207.699 242.574 206.899 242.936 206.216C243.31 205.533 243.822 205.011 244.472 204.648C245.123 204.285 245.87 204.104 246.712 204.104C247.566 204.104 248.307 204.285 248.936 204.648C249.576 205.011 250.062 205.496 250.392 206.104C250.734 206.712 250.904 207.384 250.904 208.12ZM249.432 208.216C249.464 207.565 249.358 207.021 249.112 206.584C248.867 206.147 248.531 205.821 248.104 205.608C247.678 205.395 247.214 205.288 246.712 205.288C245.912 205.288 245.24 205.539 244.696 206.04C244.152 206.531 243.859 207.256 243.816 208.216H249.432ZM255.561 204.104C256.553 204.104 257.347 204.365 257.945 204.888C258.553 205.4 258.921 206.093 259.049 206.968H257.657C257.593 206.445 257.374 206.019 257.001 205.688C256.638 205.347 256.147 205.176 255.529 205.176C255.006 205.176 254.595 205.304 254.297 205.56C254.009 205.805 253.865 206.141 253.865 206.568C253.865 206.888 253.961 207.149 254.153 207.352C254.355 207.544 254.601 207.693 254.889 207.8C255.187 207.896 255.593 208.003 256.105 208.12C256.755 208.269 257.278 208.424 257.673 208.584C258.078 208.733 258.419 208.979 258.697 209.32C258.985 209.661 259.129 210.12 259.129 210.696C259.129 211.411 258.857 211.992 258.313 212.44C257.779 212.888 257.065 213.112 256.169 213.112C255.123 213.112 254.27 212.861 253.609 212.36C252.947 211.859 252.558 211.16 252.441 210.264H253.849C253.902 210.797 254.131 211.229 254.537 211.56C254.953 211.891 255.497 212.056 256.169 212.056C256.67 212.056 257.059 211.928 257.337 211.672C257.625 211.416 257.769 211.08 257.769 210.664C257.769 210.323 257.667 210.051 257.465 209.848C257.262 209.645 257.011 209.491 256.713 209.384C256.414 209.277 256.003 209.165 255.481 209.048C254.83 208.899 254.307 208.749 253.913 208.6C253.529 208.451 253.198 208.216 252.921 207.896C252.654 207.565 252.521 207.123 252.521 206.568C252.521 205.832 252.793 205.24 253.337 204.792C253.881 204.333 254.622 204.104 255.561 204.104ZM277.091 204.216L274.563 213H272.995L270.579 205.848L268.147 213H266.563L264.067 204.216H265.539L267.411 211.608L269.843 204.216H271.363L273.811 211.592L275.699 204.216H277.091ZM283.073 204.072C284.097 204.072 284.924 204.403 285.553 205.064C286.183 205.715 286.497 206.659 286.497 207.896V213H285.041V208.024C285.041 207.149 284.817 206.477 284.369 206.008C283.921 205.539 283.313 205.304 282.545 205.304C281.745 205.304 281.105 205.565 280.625 206.088C280.145 206.6 279.905 207.352 279.905 208.344V213H278.449V201.16H279.905V206.296C280.129 205.581 280.524 205.032 281.089 204.648C281.665 204.264 282.327 204.072 283.073 204.072ZM296.811 208.12C296.811 208.429 296.789 208.696 296.747 208.92H289.723C289.755 209.923 290.037 210.675 290.571 211.176C291.115 211.677 291.776 211.928 292.555 211.928C293.259 211.928 293.845 211.752 294.315 211.4C294.795 211.037 295.088 210.557 295.195 209.96H296.747C296.64 210.568 296.4 211.112 296.027 211.592C295.664 212.072 295.189 212.445 294.603 212.712C294.016 212.979 293.355 213.112 292.619 213.112C291.776 213.112 291.029 212.931 290.379 212.568C289.728 212.205 289.216 211.688 288.843 211.016C288.48 210.333 288.299 209.533 288.299 208.616C288.299 207.699 288.48 206.899 288.843 206.216C289.216 205.533 289.728 205.011 290.379 204.648C291.029 204.285 291.776 204.104 292.619 204.104C293.472 204.104 294.213 204.285 294.843 204.648C295.483 205.011 295.968 205.496 296.299 206.104C296.64 206.712 296.811 207.384 296.811 208.12ZM295.339 208.216C295.371 207.565 295.264 207.021 295.019 206.584C294.773 206.147 294.437 205.821 294.011 205.608C293.584 205.395 293.12 205.288 292.619 205.288C291.819 205.288 291.147 205.539 290.603 206.04C290.059 206.531 289.765 207.256 289.723 208.216H295.339ZM303.339 204.072C304.363 204.072 305.19 204.403 305.819 205.064C306.448 205.715 306.763 206.659 306.763 207.896V213H305.307V208.024C305.307 207.149 305.083 206.477 304.635 206.008C304.187 205.539 303.579 205.304 302.811 205.304C302.011 205.304 301.371 205.565 300.891 206.088C300.411 206.6 300.171 207.352 300.171 208.344V213H298.715V204.216H300.171V206.296C300.395 205.581 300.79 205.032 301.355 204.648C301.931 204.264 302.592 204.072 303.339 204.072ZM312.693 201.64C312.693 201.373 312.784 201.16 312.965 201C313.147 200.829 313.387 200.744 313.685 200.744C313.984 200.744 314.224 200.829 314.405 201C314.587 201.16 314.677 201.373 314.677 201.64C314.677 201.907 314.587 202.125 314.405 202.296C314.224 202.456 313.984 202.536 313.685 202.536C313.387 202.536 313.147 202.456 312.965 202.296C312.784 202.125 312.693 201.907 312.693 201.64ZM314.405 204.216V213H312.949V204.216H314.405ZM320.938 211.72V213H319.85C318.954 213 318.282 212.787 317.834 212.36C317.397 211.933 317.178 211.219 317.178 210.216V205.48H315.866V204.216H317.178V202.024H318.65V204.216H320.922V205.48H318.65V210.248C318.65 210.813 318.751 211.203 318.954 211.416C319.167 211.619 319.53 211.72 320.042 211.72H320.938ZM330.556 204.104C331.676 204.104 332.604 204.403 333.34 205C334.076 205.597 334.529 206.397 334.7 207.4H333.164C333.057 206.771 332.764 206.28 332.284 205.928C331.815 205.565 331.228 205.384 330.524 205.384C330.012 205.384 329.543 205.501 329.116 205.736C328.7 205.971 328.364 206.333 328.108 206.824C327.852 207.304 327.724 207.901 327.724 208.616C327.724 209.331 327.852 209.933 328.108 210.424C328.364 210.904 328.7 211.261 329.116 211.496C329.543 211.731 330.012 211.848 330.524 211.848C331.228 211.848 331.815 211.667 332.284 211.304C332.764 210.941 333.057 210.445 333.164 209.816H334.7C334.529 210.829 334.076 211.635 333.34 212.232C332.604 212.819 331.676 213.112 330.556 213.112C329.713 213.112 328.967 212.931 328.316 212.568C327.665 212.205 327.153 211.688 326.78 211.016C326.417 210.333 326.236 209.533 326.236 208.616C326.236 207.699 326.417 206.899 326.78 206.216C327.153 205.533 327.665 205.011 328.316 204.648C328.967 204.285 329.713 204.104 330.556 204.104ZM340.59 204.104C341.432 204.104 342.184 204.285 342.846 204.648C343.518 205.011 344.04 205.533 344.414 206.216C344.798 206.899 344.99 207.699 344.99 208.616C344.99 209.533 344.798 210.333 344.414 211.016C344.04 211.688 343.518 212.205 342.846 212.568C342.184 212.931 341.432 213.112 340.59 213.112C339.747 213.112 338.99 212.931 338.318 212.568C337.656 212.205 337.134 211.688 336.75 211.016C336.366 210.333 336.174 209.533 336.174 208.616C336.174 207.699 336.366 206.899 336.75 206.216C337.134 205.533 337.656 205.011 338.318 204.648C338.99 204.285 339.747 204.104 340.59 204.104ZM340.59 205.384C340.067 205.384 339.582 205.501 339.134 205.736C338.696 205.971 338.339 206.333 338.062 206.824C337.795 207.304 337.662 207.901 337.662 208.616C337.662 209.32 337.795 209.917 338.062 210.408C338.339 210.888 338.696 211.245 339.134 211.48C339.582 211.715 340.067 211.832 340.59 211.832C341.112 211.832 341.592 211.715 342.03 211.48C342.478 211.245 342.835 210.888 343.102 210.408C343.379 209.917 343.517 209.32 343.517 208.616C343.517 207.901 343.379 207.304 343.102 206.824C342.835 206.333 342.478 205.971 342.03 205.736C341.592 205.501 341.112 205.384 340.59 205.384ZM357.687 204.072C358.711 204.072 359.532 204.403 360.151 205.064C360.78 205.715 361.095 206.659 361.095 207.896V213H359.639V208.024C359.639 207.16 359.425 206.499 358.999 206.04C358.583 205.581 358.007 205.352 357.271 205.352C356.503 205.352 355.884 205.608 355.415 206.12C354.956 206.621 354.727 207.363 354.727 208.344V213H353.271V208.024C353.271 207.16 353.057 206.499 352.631 206.04C352.204 205.581 351.628 205.352 350.903 205.352C350.124 205.352 349.5 205.608 349.031 206.12C348.572 206.621 348.343 207.363 348.343 208.344V213H346.887V204.216H348.343V206.216C348.556 205.523 348.935 204.995 349.479 204.632C350.033 204.259 350.668 204.072 351.383 204.072C352.129 204.072 352.775 204.264 353.319 204.648C353.873 205.021 354.268 205.576 354.503 206.312C354.748 205.597 355.159 205.048 355.735 204.664C356.311 204.269 356.961 204.072 357.687 204.072ZM371.436 208.12C371.436 208.429 371.414 208.696 371.372 208.92H364.348C364.38 209.923 364.662 210.675 365.196 211.176C365.74 211.677 366.401 211.928 367.18 211.928C367.884 211.928 368.47 211.752 368.94 211.4C369.42 211.037 369.713 210.557 369.82 209.96H371.372C371.265 210.568 371.025 211.112 370.652 211.592C370.289 212.072 369.814 212.445 369.228 212.712C368.641 212.979 367.98 213.112 367.244 213.112C366.401 213.112 365.654 212.931 365.004 212.568C364.353 212.205 363.841 211.688 363.468 211.016C363.105 210.333 362.924 209.533 362.924 208.616C362.924 207.699 363.105 206.899 363.468 206.216C363.841 205.533 364.353 205.011 365.004 204.648C365.654 204.285 366.401 204.104 367.244 204.104C368.097 204.104 368.838 204.285 369.468 204.648C370.108 205.011 370.593 205.496 370.924 206.104C371.265 206.712 371.436 207.384 371.436 208.12ZM369.964 208.216C369.996 207.565 369.889 207.021 369.644 206.584C369.398 206.147 369.062 205.821 368.636 205.608C368.209 205.395 367.745 205.288 367.244 205.288C366.444 205.288 365.772 205.539 365.228 206.04C364.684 206.531 364.39 207.256 364.348 208.216H369.964ZM376.092 204.104C377.084 204.104 377.879 204.365 378.476 204.888C379.084 205.4 379.452 206.093 379.58 206.968H378.188C378.124 206.445 377.905 206.019 377.532 205.688C377.169 205.347 376.679 205.176 376.06 205.176C375.537 205.176 375.127 205.304 374.828 205.56C374.54 205.805 374.396 206.141 374.396 206.568C374.396 206.888 374.492 207.149 374.684 207.352C374.887 207.544 375.132 207.693 375.42 207.8C375.719 207.896 376.124 208.003 376.636 208.12C377.287 208.269 377.809 208.424 378.204 208.584C378.609 208.733 378.951 208.979 379.228 209.32C379.516 209.661 379.66 210.12 379.66 210.696C379.66 211.411 379.388 211.992 378.844 212.44C378.311 212.888 377.596 213.112 376.7 213.112C375.655 213.112 374.801 212.861 374.14 212.36C373.479 211.859 373.089 211.16 372.972 210.264H374.38C374.433 210.797 374.663 211.229 375.068 211.56C375.484 211.891 376.028 212.056 376.7 212.056C377.201 212.056 377.591 211.928 377.868 211.672C378.156 211.416 378.3 211.08 378.3 210.664C378.3 210.323 378.199 210.051 377.996 209.848C377.793 209.645 377.543 209.491 377.244 209.384C376.945 209.277 376.535 209.165 376.012 209.048C375.361 208.899 374.839 208.749 374.444 208.6C374.06 208.451 373.729 208.216 373.452 207.896C373.185 207.565 373.052 207.123 373.052 206.568C373.052 205.832 373.324 205.24 373.868 204.792C374.412 204.333 375.153 204.104 376.092 204.104ZM389.751 211.72V213H388.663C387.767 213 387.095 212.787 386.647 212.36C386.209 211.933 385.991 211.219 385.991 210.216V205.48H384.679V204.216H385.991V202.024H387.463V204.216H389.735V205.48H387.463V210.248C387.463 210.813 387.564 211.203 387.767 211.416C387.98 211.619 388.343 211.72 388.855 211.72H389.751ZM395.511 204.104C396.354 204.104 397.106 204.285 397.767 204.648C398.439 205.011 398.962 205.533 399.335 206.216C399.719 206.899 399.911 207.699 399.911 208.616C399.911 209.533 399.719 210.333 399.335 211.016C398.962 211.688 398.439 212.205 397.767 212.568C397.106 212.931 396.354 213.112 395.511 213.112C394.669 213.112 393.911 212.931 393.239 212.568C392.578 212.205 392.055 211.688 391.671 211.016C391.287 210.333 391.095 209.533 391.095 208.616C391.095 207.699 391.287 206.899 391.671 206.216C392.055 205.533 392.578 205.011 393.239 204.648C393.911 204.285 394.669 204.104 395.511 204.104ZM395.511 205.384C394.989 205.384 394.503 205.501 394.055 205.736C393.618 205.971 393.261 206.333 392.983 206.824C392.717 207.304 392.583 207.901 392.583 208.616C392.583 209.32 392.717 209.917 392.983 210.408C393.261 210.888 393.618 211.245 394.055 211.48C394.503 211.715 394.989 211.832 395.511 211.832C396.034 211.832 396.514 211.715 396.951 211.48C397.399 211.245 397.757 210.888 398.023 210.408C398.301 209.917 398.439 209.32 398.439 208.616C398.439 207.901 398.301 207.304 398.023 206.824C397.757 206.333 397.399 205.971 396.951 205.736C396.514 205.501 396.034 205.384 395.511 205.384ZM99.232 228.216L96.704 237H95.136L92.72 229.848L90.288 237H88.704L86.208 228.216H87.68L89.552 235.608L91.984 228.216H93.504L95.952 235.592L97.84 228.216H99.232ZM104.574 228.104C105.417 228.104 106.169 228.285 106.83 228.648C107.502 229.011 108.025 229.533 108.398 230.216C108.782 230.899 108.974 231.699 108.974 232.616C108.974 233.533 108.782 234.333 108.398 235.016C108.025 235.688 107.502 236.205 106.83 236.568C106.169 236.931 105.417 237.112 104.574 237.112C103.731 237.112 102.974 236.931 102.302 236.568C101.641 236.205 101.118 235.688 100.734 235.016C100.35 234.333 100.158 233.533 100.158 232.616C100.158 231.699 100.35 230.899 100.734 230.216C101.118 229.533 101.641 229.011 102.302 228.648C102.974 228.285 103.731 228.104 104.574 228.104ZM104.574 229.384C104.051 229.384 103.566 229.501 103.118 229.736C102.681 229.971 102.323 230.333 102.046 230.824C101.779 231.304 101.646 231.901 101.646 232.616C101.646 233.32 101.779 233.917 102.046 234.408C102.323 234.888 102.681 235.245 103.118 235.48C103.566 235.715 104.051 235.832 104.574 235.832C105.097 235.832 105.577 235.715 106.014 235.48C106.462 235.245 106.819 234.888 107.086 234.408C107.363 233.917 107.502 233.32 107.502 232.616C107.502 231.901 107.363 231.304 107.086 230.824C106.819 230.333 106.462 229.971 106.014 229.736C105.577 229.501 105.097 229.384 104.574 229.384ZM112.327 229.992C112.615 229.384 113.036 228.915 113.591 228.584C114.146 228.243 114.807 228.072 115.575 228.072V229.656H115.127C114.306 229.656 113.634 229.869 113.111 230.296C112.588 230.712 112.327 231.405 112.327 232.376V237H110.871V228.216H112.327V229.992ZM118.468 225.16V237H117.012V225.16H118.468ZM124.409 228.104C125.262 228.104 125.982 228.317 126.569 228.744C127.166 229.171 127.582 229.741 127.817 230.456V225.16H129.273V237H127.817V234.76C127.582 235.475 127.166 236.045 126.569 236.472C125.982 236.899 125.262 237.112 124.409 237.112C123.63 237.112 122.937 236.931 122.329 236.568C121.721 236.205 121.241 235.688 120.889 235.016C120.547 234.333 120.377 233.533 120.377 232.616C120.377 231.699 120.547 230.899 120.889 230.216C121.241 229.533 121.721 229.011 122.329 228.648C122.937 228.285 123.63 228.104 124.409 228.104ZM124.825 229.4C123.929 229.4 123.209 229.688 122.665 230.264C122.131 230.829 121.865 231.613 121.865 232.616C121.865 233.619 122.131 234.408 122.665 234.984C123.209 235.549 123.929 235.832 124.825 235.832C125.401 235.832 125.913 235.699 126.361 235.432C126.819 235.165 127.177 234.792 127.433 234.312C127.689 233.821 127.817 233.256 127.817 232.616C127.817 231.976 127.689 231.411 127.433 230.92C127.177 230.429 126.819 230.056 126.361 229.8C125.913 229.533 125.401 229.4 124.825 229.4ZM136.582 230.52V231.752H130.182V230.52H136.582ZM143.337 228.104C144.457 228.104 145.385 228.403 146.121 229C146.857 229.597 147.311 230.397 147.481 231.4H145.945C145.839 230.771 145.545 230.28 145.065 229.928C144.596 229.565 144.009 229.384 143.305 229.384C142.793 229.384 142.324 229.501 141.897 229.736C141.481 229.971 141.145 230.333 140.889 230.824C140.633 231.304 140.505 231.901 140.505 232.616C140.505 233.331 140.633 233.933 140.889 234.424C141.145 234.904 141.481 235.261 141.897 235.496C142.324 235.731 142.793 235.848 143.305 235.848C144.009 235.848 144.596 235.667 145.065 235.304C145.545 234.941 145.839 234.445 145.945 233.816H147.481C147.311 234.829 146.857 235.635 146.121 236.232C145.385 236.819 144.457 237.112 143.337 237.112C142.495 237.112 141.748 236.931 141.097 236.568C140.447 236.205 139.935 235.688 139.561 235.016C139.199 234.333 139.017 233.533 139.017 232.616C139.017 231.699 139.199 230.899 139.561 230.216C139.935 229.533 140.447 229.011 141.097 228.648C141.748 228.285 142.495 228.104 143.337 228.104ZM150.843 225.16V237H149.387V225.16H150.843ZM156.784 228.104C157.637 228.104 158.357 228.317 158.944 228.744C159.541 229.171 159.957 229.741 160.192 230.456V228.216H161.648V237H160.192V234.76C159.957 235.475 159.541 236.045 158.944 236.472C158.357 236.899 157.637 237.112 156.784 237.112C156.005 237.112 155.312 236.931 154.704 236.568C154.096 236.205 153.616 235.688 153.264 235.016C152.922 234.333 152.752 233.533 152.752 232.616C152.752 231.699 152.922 230.899 153.264 230.216C153.616 229.533 154.096 229.011 154.704 228.648C155.312 228.285 156.005 228.104 156.784 228.104ZM157.2 229.4C156.304 229.4 155.584 229.688 155.04 230.264C154.506 230.829 154.24 231.613 154.24 232.616C154.24 233.619 154.506 234.408 155.04 234.984C155.584 235.549 156.304 235.832 157.2 235.832C157.776 235.832 158.288 235.699 158.736 235.432C159.194 235.165 159.552 234.792 159.808 234.312C160.064 233.821 160.192 233.256 160.192 232.616C160.192 231.976 160.064 231.411 159.808 230.92C159.552 230.429 159.194 230.056 158.736 229.8C158.288 229.533 157.776 229.4 157.2 229.4ZM166.717 228.104C167.709 228.104 168.504 228.365 169.101 228.888C169.709 229.4 170.077 230.093 170.205 230.968H168.813C168.749 230.445 168.53 230.019 168.157 229.688C167.794 229.347 167.304 229.176 166.685 229.176C166.162 229.176 165.752 229.304 165.453 229.56C165.165 229.805 165.021 230.141 165.021 230.568C165.021 230.888 165.117 231.149 165.309 231.352C165.512 231.544 165.757 231.693 166.045 231.8C166.344 231.896 166.749 232.003 167.261 232.12C167.912 232.269 168.434 232.424 168.829 232.584C169.234 232.733 169.576 232.979 169.853 233.32C170.141 233.661 170.285 234.12 170.285 234.696C170.285 235.411 170.013 235.992 169.469 236.44C168.936 236.888 168.221 237.112 167.325 237.112C166.28 237.112 165.426 236.861 164.765 236.36C164.104 235.859 163.714 235.16 163.597 234.264H165.005C165.058 234.797 165.288 235.229 165.693 235.56C166.109 235.891 166.653 236.056 167.325 236.056C167.826 236.056 168.216 235.928 168.493 235.672C168.781 235.416 168.925 235.08 168.925 234.664C168.925 234.323 168.824 234.051 168.621 233.848C168.418 233.645 168.168 233.491 167.869 233.384C167.57 233.277 167.16 233.165 166.637 233.048C165.986 232.899 165.464 232.749 165.069 232.6C164.685 232.451 164.354 232.216 164.077 231.896C163.81 231.565 163.677 231.123 163.677 230.568C163.677 229.832 163.949 229.24 164.493 228.792C165.037 228.333 165.778 228.104 166.717 228.104ZM174.983 228.104C175.975 228.104 176.769 228.365 177.367 228.888C177.975 229.4 178.343 230.093 178.471 230.968H177.079C177.015 230.445 176.796 230.019 176.423 229.688C176.06 229.347 175.569 229.176 174.951 229.176C174.428 229.176 174.017 229.304 173.719 229.56C173.431 229.805 173.287 230.141 173.287 230.568C173.287 230.888 173.383 231.149 173.575 231.352C173.777 231.544 174.023 231.693 174.311 231.8C174.609 231.896 175.015 232.003 175.527 232.12C176.177 232.269 176.7 232.424 177.095 232.584C177.5 232.733 177.841 232.979 178.119 233.32C178.407 233.661 178.551 234.12 178.551 234.696C178.551 235.411 178.279 235.992 177.735 236.44C177.201 236.888 176.487 237.112 175.591 237.112C174.545 237.112 173.692 236.861 173.031 236.36C172.369 235.859 171.98 235.16 171.863 234.264H173.271C173.324 234.797 173.553 235.229 173.959 235.56C174.375 235.891 174.919 236.056 175.591 236.056C176.092 236.056 176.481 235.928 176.759 235.672C177.047 235.416 177.191 235.08 177.191 234.664C177.191 234.323 177.089 234.051 176.887 233.848C176.684 233.645 176.433 233.491 176.135 233.384C175.836 233.277 175.425 233.165 174.903 233.048C174.252 232.899 173.729 232.749 173.335 232.6C172.951 232.451 172.62 232.216 172.343 231.896C172.076 231.565 171.943 231.123 171.943 230.568C171.943 229.832 172.215 229.24 172.759 228.792C173.303 228.333 174.044 228.104 174.983 228.104ZM187.201 228.104C188.193 228.104 188.988 228.365 189.585 228.888C190.193 229.4 190.561 230.093 190.689 230.968H189.297C189.233 230.445 189.015 230.019 188.641 229.688C188.279 229.347 187.788 229.176 187.169 229.176C186.647 229.176 186.236 229.304 185.937 229.56C185.649 229.805 185.505 230.141 185.505 230.568C185.505 230.888 185.601 231.149 185.793 231.352C185.996 231.544 186.241 231.693 186.529 231.8C186.828 231.896 187.233 232.003 187.745 232.12C188.396 232.269 188.919 232.424 189.313 232.584C189.719 232.733 190.06 232.979 190.337 233.32C190.625 233.661 190.769 234.12 190.769 234.696C190.769 235.411 190.497 235.992 189.953 236.44C189.42 236.888 188.705 237.112 187.809 237.112C186.764 237.112 185.911 236.861 185.249 236.36C184.588 235.859 184.199 235.16 184.081 234.264H185.489C185.543 234.797 185.772 235.229 186.177 235.56C186.593 235.891 187.137 236.056 187.809 236.056C188.311 236.056 188.7 235.928 188.977 235.672C189.265 235.416 189.409 235.08 189.409 234.664C189.409 234.323 189.308 234.051 189.105 233.848C188.903 233.645 188.652 233.491 188.353 233.384C188.055 233.277 187.644 233.165 187.121 233.048C186.471 232.899 185.948 232.749 185.553 232.6C185.169 232.451 184.839 232.216 184.561 231.896C184.295 231.565 184.161 231.123 184.161 230.568C184.161 229.832 184.433 229.24 184.977 228.792C185.521 228.333 186.263 228.104 187.201 228.104ZM200.795 232.12C200.795 232.429 200.774 232.696 200.731 232.92H193.707C193.739 233.923 194.022 234.675 194.555 235.176C195.099 235.677 195.76 235.928 196.539 235.928C197.243 235.928 197.83 235.752 198.299 235.4C198.779 235.037 199.072 234.557 199.179 233.96H200.731C200.624 234.568 200.384 235.112 200.011 235.592C199.648 236.072 199.174 236.445 198.587 236.712C198 236.979 197.339 237.112 196.603 237.112C195.76 237.112 195.014 236.931 194.363 236.568C193.712 236.205 193.2 235.688 192.827 235.016C192.464 234.333 192.283 233.533 192.283 232.616C192.283 231.699 192.464 230.899 192.827 230.216C193.2 229.533 193.712 229.011 194.363 228.648C195.014 228.285 195.76 228.104 196.603 228.104C197.456 228.104 198.198 228.285 198.827 228.648C199.467 229.011 199.952 229.496 200.283 230.104C200.624 230.712 200.795 231.384 200.795 232.12ZM199.323 232.216C199.355 231.565 199.248 231.021 199.003 230.584C198.758 230.147 198.422 229.821 197.995 229.608C197.568 229.395 197.104 229.288 196.603 229.288C195.803 229.288 195.131 229.539 194.587 230.04C194.043 230.531 193.75 231.256 193.707 232.216H199.323ZM204.155 229.992C204.443 229.384 204.865 228.915 205.419 228.584C205.974 228.243 206.635 228.072 207.403 228.072V229.656H206.955C206.134 229.656 205.462 229.869 204.939 230.296C204.417 230.712 204.155 231.405 204.155 232.376V237H202.699V228.216H204.155V229.992ZM212.248 235.448L214.968 228.216H216.536L213.096 237H211.368L207.928 228.216H209.496L212.248 235.448ZM217.709 225.64C217.709 225.373 217.8 225.16 217.981 225C218.162 224.829 218.402 224.744 218.701 224.744C219 224.744 219.24 224.829 219.421 225C219.602 225.16 219.693 225.373 219.693 225.64C219.693 225.907 219.602 226.125 219.421 226.296C219.24 226.456 219 226.536 218.701 226.536C218.402 226.536 218.162 226.456 217.981 226.296C217.8 226.125 217.709 225.907 217.709 225.64ZM219.421 228.216V237H217.965V228.216H219.421ZM225.65 228.104C226.77 228.104 227.698 228.403 228.434 229C229.17 229.597 229.623 230.397 229.794 231.4H228.258C228.151 230.771 227.858 230.28 227.378 229.928C226.908 229.565 226.322 229.384 225.618 229.384C225.106 229.384 224.636 229.501 224.21 229.736C223.794 229.971 223.458 230.333 223.202 230.824C222.946 231.304 222.818 231.901 222.818 232.616C222.818 233.331 222.946 233.933 223.202 234.424C223.458 234.904 223.794 235.261 224.21 235.496C224.636 235.731 225.106 235.848 225.618 235.848C226.322 235.848 226.908 235.667 227.378 235.304C227.858 234.941 228.151 234.445 228.258 233.816H229.794C229.623 234.829 229.17 235.635 228.434 236.232C227.698 236.819 226.77 237.112 225.65 237.112C224.807 237.112 224.06 236.931 223.41 236.568C222.759 236.205 222.247 235.688 221.874 235.016C221.511 234.333 221.33 233.533 221.33 232.616C221.33 231.699 221.511 230.899 221.874 230.216C222.247 229.533 222.759 229.011 223.41 228.648C224.06 228.285 224.807 228.104 225.65 228.104ZM239.779 232.12C239.779 232.429 239.758 232.696 239.715 232.92H232.691C232.723 233.923 233.006 234.675 233.539 235.176C234.083 235.677 234.745 235.928 235.523 235.928C236.227 235.928 236.814 235.752 237.283 235.4C237.763 235.037 238.057 234.557 238.163 233.96H239.715C239.609 234.568 239.369 235.112 238.995 235.592C238.633 236.072 238.158 236.445 237.571 236.712C236.985 236.979 236.323 237.112 235.587 237.112C234.745 237.112 233.998 236.931 233.347 236.568C232.697 236.205 232.185 235.688 231.811 235.016C231.449 234.333 231.267 233.533 231.267 232.616C231.267 231.699 231.449 230.899 231.811 230.216C232.185 229.533 232.697 229.011 233.347 228.648C233.998 228.285 234.745 228.104 235.587 228.104C236.441 228.104 237.182 228.285 237.811 228.648C238.451 229.011 238.937 229.496 239.267 230.104C239.609 230.712 239.779 231.384 239.779 232.12ZM238.307 232.216C238.339 231.565 238.233 231.021 237.987 230.584C237.742 230.147 237.406 229.821 236.979 229.608C236.553 229.395 236.089 229.288 235.587 229.288C234.787 229.288 234.115 229.539 233.571 230.04C233.027 230.531 232.734 231.256 232.691 232.216H238.307Z" fill="#5D5F6D"/>
<path d="M94.704 119.704V121.496H91.584V131H89.328V121.496H86.224V119.704H94.704ZM104.282 126.232C104.282 126.456 104.255 126.712 104.202 127H97.7059C97.7379 127.789 97.9512 128.371 98.3459 128.744C98.7405 129.117 99.2312 129.304 99.8179 129.304C100.341 129.304 100.773 129.176 101.114 128.92C101.466 128.664 101.69 128.317 101.786 127.88H104.17C104.053 128.499 103.802 129.053 103.418 129.544C103.034 130.035 102.538 130.419 101.93 130.696C101.333 130.973 100.666 131.112 99.9299 131.112C99.0659 131.112 98.2979 130.931 97.6259 130.568C96.9539 130.195 96.4312 129.667 96.0579 128.984C95.6845 128.301 95.4979 127.496 95.4979 126.568C95.4979 125.64 95.6845 124.835 96.0579 124.152C96.4312 123.459 96.9539 122.931 97.6259 122.568C98.2979 122.205 99.0659 122.024 99.9299 122.024C100.805 122.024 101.567 122.205 102.218 122.568C102.879 122.931 103.386 123.432 103.738 124.072C104.101 124.701 104.282 125.421 104.282 126.232ZM102.01 126.008C102.042 125.283 101.85 124.733 101.434 124.36C101.029 123.987 100.527 123.8 99.9299 123.8C99.3219 123.8 98.8099 123.987 98.3939 124.36C97.9779 124.733 97.7485 125.283 97.7059 126.008H102.01ZM109.867 122.024C111.009 122.024 111.958 122.333 112.715 122.952C113.483 123.571 113.963 124.413 114.155 125.48H111.771C111.675 125.011 111.457 124.643 111.115 124.376C110.774 124.099 110.342 123.96 109.819 123.96C109.222 123.96 108.721 124.184 108.315 124.632C107.921 125.069 107.723 125.715 107.723 126.568C107.723 127.421 107.921 128.072 108.315 128.52C108.721 128.957 109.222 129.176 109.819 129.176C110.342 129.176 110.774 129.043 111.115 128.776C111.457 128.499 111.675 128.125 111.771 127.656H114.155C113.963 128.723 113.483 129.565 112.715 130.184C111.958 130.803 111.009 131.112 109.867 131.112C109.003 131.112 108.235 130.931 107.563 130.568C106.891 130.195 106.369 129.667 105.995 128.984C105.622 128.301 105.435 127.496 105.435 126.568C105.435 125.64 105.622 124.835 105.995 124.152C106.369 123.459 106.891 122.931 107.563 122.568C108.235 122.205 109.003 122.024 109.867 122.024ZM121.038 122.008C122.062 122.008 122.878 122.344 123.486 123.016C124.094 123.688 124.398 124.632 124.398 125.848V131H122.158V126.104C122.158 125.4 121.977 124.856 121.614 124.472C121.252 124.077 120.756 123.88 120.126 123.88C119.486 123.88 118.974 124.088 118.59 124.504C118.206 124.92 118.014 125.517 118.014 126.296V131H115.758V119.16H118.014V123.912C118.249 123.315 118.633 122.851 119.166 122.52C119.71 122.179 120.334 122.008 121.038 122.008ZM131.663 122.008C132.687 122.008 133.503 122.344 134.111 123.016C134.719 123.688 135.023 124.632 135.023 125.848V131H132.783V126.104C132.783 125.4 132.602 124.856 132.239 124.472C131.877 124.077 131.381 123.88 130.751 123.88C130.111 123.88 129.599 124.088 129.215 124.504C128.831 124.92 128.639 125.517 128.639 126.296V131H126.383V122.136H128.639V123.912C128.874 123.315 129.258 122.851 129.791 122.52C130.335 122.179 130.959 122.008 131.663 122.008ZM136.752 119.592C136.752 119.229 136.88 118.936 137.136 118.712C137.392 118.477 137.728 118.36 138.144 118.36C138.56 118.36 138.896 118.477 139.152 118.712C139.408 118.936 139.536 119.229 139.536 119.592C139.536 119.944 139.408 120.237 139.152 120.472C138.896 120.696 138.56 120.808 138.144 120.808C137.728 120.808 137.392 120.696 137.136 120.472C136.88 120.237 136.752 119.944 136.752 119.592ZM139.264 122.136V131H137.008V122.136H139.264ZM145.289 122.024C146.431 122.024 147.38 122.333 148.137 122.952C148.905 123.571 149.385 124.413 149.577 125.48H147.193C147.097 125.011 146.879 124.643 146.537 124.376C146.196 124.099 145.764 123.96 145.241 123.96C144.644 123.96 144.143 124.184 143.737 124.632C143.343 125.069 143.145 125.715 143.145 126.568C143.145 127.421 143.343 128.072 143.737 128.52C144.143 128.957 144.644 129.176 145.241 129.176C145.764 129.176 146.196 129.043 146.537 128.776C146.879 128.499 147.097 128.125 147.193 127.656H149.577C149.385 128.723 148.905 129.565 148.137 130.184C147.38 130.803 146.431 131.112 145.289 131.112C144.425 131.112 143.657 130.931 142.985 130.568C142.313 130.195 141.791 129.667 141.417 128.984C141.044 128.301 140.857 127.496 140.857 126.568C140.857 125.64 141.044 124.835 141.417 124.152C141.791 123.459 142.313 122.931 142.985 122.568C143.657 122.205 144.425 122.024 145.289 122.024ZM154.652 122.024C155.399 122.024 156.039 122.2 156.572 122.552C157.106 122.904 157.484 123.379 157.708 123.976V122.136H159.948V131H157.708V129.144C157.484 129.741 157.106 130.221 156.572 130.584C156.039 130.936 155.399 131.112 154.652 131.112C153.906 131.112 153.234 130.931 152.636 130.568C152.039 130.205 151.57 129.683 151.228 129C150.898 128.307 150.732 127.496 150.732 126.568C150.732 125.64 150.898 124.835 151.228 124.152C151.57 123.459 152.039 122.931 152.636 122.568C153.234 122.205 153.906 122.024 154.652 122.024ZM155.356 123.992C154.652 123.992 154.087 124.221 153.66 124.68C153.234 125.139 153.02 125.768 153.02 126.568C153.02 127.368 153.234 127.997 153.66 128.456C154.087 128.904 154.652 129.128 155.356 129.128C156.039 129.128 156.599 128.899 157.036 128.44C157.484 127.971 157.708 127.347 157.708 126.568C157.708 125.779 157.484 125.155 157.036 124.696C156.599 124.227 156.039 123.992 155.356 123.992ZM164.249 119.16V131H161.993V119.16H164.249ZM172.83 122.024C173.907 122.024 174.771 122.296 175.422 122.84C176.073 123.384 176.478 124.109 176.638 125.016H174.526C174.441 124.589 174.249 124.248 173.95 123.992C173.651 123.736 173.262 123.608 172.782 123.608C172.398 123.608 172.099 123.699 171.886 123.88C171.673 124.061 171.566 124.307 171.566 124.616C171.566 124.861 171.651 125.059 171.822 125.208C171.993 125.357 172.206 125.475 172.462 125.56C172.718 125.645 173.086 125.747 173.566 125.864C174.238 126.013 174.782 126.173 175.198 126.344C175.625 126.504 175.987 126.765 176.286 127.128C176.595 127.48 176.75 127.96 176.75 128.568C176.75 129.325 176.451 129.939 175.854 130.408C175.267 130.877 174.473 131.112 173.47 131.112C172.318 131.112 171.395 130.856 170.702 130.344C170.009 129.821 169.587 129.08 169.438 128.12H171.598C171.651 128.557 171.843 128.904 172.174 129.16C172.505 129.405 172.937 129.528 173.47 129.528C173.854 129.528 174.147 129.437 174.35 129.256C174.553 129.064 174.654 128.819 174.654 128.52C174.654 128.264 174.563 128.056 174.382 127.896C174.211 127.736 173.993 127.613 173.726 127.528C173.47 127.443 173.102 127.341 172.622 127.224C171.961 127.075 171.422 126.925 171.006 126.776C170.601 126.616 170.249 126.365 169.95 126.024C169.662 125.683 169.518 125.213 169.518 124.616C169.518 123.848 169.811 123.224 170.398 122.744C170.985 122.264 171.795 122.024 172.83 122.024ZM186.91 122.136V131H184.654V129.208C184.42 129.805 184.03 130.275 183.486 130.616C182.953 130.947 182.334 131.112 181.63 131.112C180.606 131.112 179.79 130.776 179.182 130.104C178.574 129.432 178.27 128.493 178.27 127.288V122.136H180.51V127.032C180.51 127.736 180.692 128.285 181.054 128.68C181.417 129.064 181.908 129.256 182.526 129.256C183.177 129.256 183.694 129.048 184.078 128.632C184.462 128.216 184.654 127.619 184.654 126.84V122.136H186.91ZM194.258 122.024C195.004 122.024 195.676 122.205 196.274 122.568C196.871 122.931 197.335 123.459 197.666 124.152C198.007 124.835 198.178 125.64 198.178 126.568C198.178 127.496 198.007 128.307 197.666 129C197.335 129.683 196.871 130.205 196.274 130.568C195.676 130.931 195.004 131.112 194.258 131.112C193.511 131.112 192.871 130.936 192.338 130.584C191.815 130.221 191.442 129.741 191.218 129.144V135.224H188.962V122.136H191.218V123.976C191.442 123.379 191.815 122.904 192.338 122.552C192.871 122.2 193.511 122.024 194.258 122.024ZM193.554 123.992C192.871 123.992 192.306 124.227 191.858 124.696C191.42 125.155 191.202 125.779 191.202 126.568C191.202 127.347 191.42 127.971 191.858 128.44C192.306 128.899 192.871 129.128 193.554 129.128C194.258 129.128 194.823 128.904 195.25 128.456C195.676 127.997 195.89 127.368 195.89 126.568C195.89 125.768 195.676 125.139 195.25 124.68C194.823 124.221 194.258 123.992 193.554 123.992ZM205.07 122.024C205.817 122.024 206.489 122.205 207.086 122.568C207.683 122.931 208.147 123.459 208.478 124.152C208.819 124.835 208.99 125.64 208.99 126.568C208.99 127.496 208.819 128.307 208.478 129C208.147 129.683 207.683 130.205 207.086 130.568C206.489 130.931 205.817 131.112 205.07 131.112C204.323 131.112 203.683 130.936 203.15 130.584C202.627 130.221 202.254 129.741 202.03 129.144V135.224H199.774V122.136H202.03V123.976C202.254 123.379 202.627 122.904 203.15 122.552C203.683 122.2 204.323 122.024 205.07 122.024ZM204.366 123.992C203.683 123.992 203.118 124.227 202.67 124.696C202.233 125.155 202.014 125.779 202.014 126.568C202.014 127.347 202.233 127.971 202.67 128.44C203.118 128.899 203.683 129.128 204.366 129.128C205.07 129.128 205.635 128.904 206.062 128.456C206.489 127.997 206.702 127.368 206.702 126.568C206.702 125.768 206.489 125.139 206.062 124.68C205.635 124.221 205.07 123.992 204.366 123.992ZM214.683 122.024C215.547 122.024 216.32 122.205 217.003 122.568C217.696 122.931 218.24 123.459 218.635 124.152C219.029 124.835 219.227 125.64 219.227 126.568C219.227 127.496 219.029 128.301 218.635 128.984C218.24 129.667 217.696 130.195 217.003 130.568C216.32 130.931 215.547 131.112 214.683 131.112C213.819 131.112 213.04 130.931 212.347 130.568C211.664 130.195 211.125 129.667 210.731 128.984C210.336 128.301 210.139 127.496 210.139 126.568C210.139 125.64 210.336 124.835 210.731 124.152C211.125 123.459 211.664 122.931 212.347 122.568C213.04 122.205 213.819 122.024 214.683 122.024ZM214.683 123.976C214.053 123.976 213.52 124.2 213.083 124.648C212.645 125.085 212.427 125.725 212.427 126.568C212.427 127.411 212.645 128.056 213.083 128.504C213.52 128.941 214.053 129.16 214.683 129.16C215.312 129.16 215.845 128.941 216.283 128.504C216.72 128.056 216.939 127.411 216.939 126.568C216.939 125.725 216.72 125.085 216.283 124.648C215.845 124.2 215.312 123.976 214.683 123.976ZM223.077 123.832C223.408 123.267 223.845 122.824 224.389 122.504C224.933 122.173 225.541 122.008 226.213 122.008V124.424H225.557C223.904 124.424 223.077 125.192 223.077 126.728V131H220.821V122.136H223.077V123.832ZM232.198 129.064V131H231.014C230.022 131 229.259 130.76 228.726 130.28C228.203 129.8 227.942 129 227.942 127.88V124.04H226.71V122.136H227.942V119.944H230.198V122.136H232.182V124.04H230.198V127.912C230.198 128.339 230.283 128.637 230.454 128.808C230.624 128.979 230.912 129.064 231.318 129.064H232.198Z" fill="black"/>
<circle cx="109.5" cy="71.5" r="23.5" fill="#FFA155" fill-opacity="0.1"/>
<path d="M110 60C104.184 60 99.4531 64.7313 99.4531 70.5469C99.4531 71.1914 99.4531 76.1769 99.4531 76.2656C99.4531 77.4287 100.399 78.375 101.562 78.375H102.387C102.677 79.1933 103.458 79.7812 104.375 79.7812C105.538 79.7812 106.484 78.835 106.484 77.6719V71.9531C106.484 70.79 105.538 69.8438 104.375 69.8438C103.458 69.8438 102.677 70.4317 102.387 71.25H101.562C101.316 71.25 101.079 71.2929 100.859 71.3709V70.5469C100.859 65.5067 104.96 61.4062 110 61.4062C115.04 61.4062 119.141 65.5067 119.141 70.5469V71.3709C118.921 71.2929 118.684 71.25 118.438 71.25H117.613C117.323 70.4317 116.542 69.8438 115.625 69.8438C114.462 69.8438 113.516 70.79 113.516 71.9531V77.6719C113.516 78.835 114.462 79.7812 115.625 79.7812C115.838 79.7812 116.043 79.7493 116.237 79.6904C115.974 80.5558 115.169 81.1875 114.219 81.1875H111.988C111.698 80.3692 110.917 79.7812 110 79.7812C108.837 79.7812 107.891 80.7275 107.891 81.8906C107.891 83.0537 108.837 84 110 84C110.917 84 111.698 83.4121 111.988 82.5938H114.219C116.157 82.5938 117.734 81.0166 117.734 79.0781V78.375H118.438C119.601 78.375 120.547 77.4287 120.547 76.2656C120.547 76.1782 120.547 71.1908 120.547 70.5469C120.547 64.7313 115.816 60 110 60ZM103.672 71.9531C103.672 71.5654 103.987 71.25 104.375 71.25C104.763 71.25 105.078 71.5654 105.078 71.9531V77.6719C105.078 78.0596 104.763 78.375 104.375 78.375C103.987 78.375 103.672 78.0596 103.672 77.6719V71.9531ZM101.562 72.6562H102.266V76.9688H101.562C101.175 76.9688 100.859 76.6533 100.859 76.2656V73.3594C100.859 72.9717 101.175 72.6562 101.562 72.6562ZM110 82.5938C109.612 82.5938 109.297 82.2783 109.297 81.8906C109.297 81.5029 109.612 81.1875 110 81.1875C110.388 81.1875 110.703 81.5029 110.703 81.8906C110.703 82.2783 110.388 82.5938 110 82.5938ZM116.328 77.6719C116.328 78.0596 116.013 78.375 115.625 78.375C115.237 78.375 114.922 78.0596 114.922 77.6719V71.9531C114.922 71.5654 115.237 71.25 115.625 71.25C116.013 71.25 116.328 71.5654 116.328 71.9531V77.6719ZM119.141 76.2656C119.141 76.6533 118.825 76.9688 118.438 76.9688H117.734V72.6562H118.438C118.825 72.6562 119.141 72.9717 119.141 73.3594V76.2656Z" fill="#FFA155"/>
<path d="M106 66C108.154 63.643 111.231 63.3062 114 65.3265" stroke="#454DFD" stroke-width="1.5"/>
<defs>
<filter id="filter0_d_1_2030" x="0" y="0" width="481" height="433" filterUnits="userSpaceOnUse" color-interpolation-filters="sRGB">
<feFlood flood-opacity="0" result="BackgroundImageFix"/>
<feColorMatrix in="SourceAlpha" type="matrix" values="0 0 0 0 0 0 0 0 0 0 0 0 0 0 0 0 0 0 127 0" result="hardAlpha"/>
<feMorphology radius="30" operator="erode" in="SourceAlpha" result="effect1_dropShadow_1_2030"/>
<feOffset dy="60"/>
<feGaussianBlur stdDeviation="34"/>
<feColorMatrix type="matrix" values="0 0 0 0 1 0 0 0 0 0.631372 0 0 0 0 0.333333 0 0 0 0.35 0"/>
<feBlend mode="normal" in2="BackgroundImageFix" result="effect1_dropShadow_1_2030"/>
<feBlend mode="normal" in="SourceGraphic" in2="effect1_dropShadow_1_2030" result="shape"/>
</filter>
</defs>
</svg>
