<svg width="515" height="140" viewBox="0 0 515 140" fill="none" xmlns="http://www.w3.org/2000/svg">
<rect width="515" height="140" fill="white"/>
<path d="M101.32 40.544C102.376 40.544 103.331 40.7893 104.184 41.28C105.048 41.7707 105.725 42.4587 106.216 43.344C106.717 44.2187 106.968 45.2107 106.968 46.32C106.968 47.4293 106.717 48.4267 106.216 49.312C105.725 50.1973 105.048 50.8853 104.184 51.376C103.331 51.8667 102.376 52.112 101.32 52.112C100.264 52.112 99.304 51.8667 98.44 51.376C97.5867 50.8853 96.9093 50.1973 96.408 49.312C95.9173 48.4267 95.672 47.4293 95.672 46.32C95.672 45.2107 95.9173 44.2187 96.408 43.344C96.9093 42.4587 97.5867 41.7707 98.44 41.28C99.304 40.7893 100.264 40.544 101.32 40.544ZM101.32 42.624C100.659 42.624 100.077 42.7733 99.576 43.072C99.0747 43.3707 98.68 43.8027 98.392 44.368C98.1147 44.9227 97.976 45.5733 97.976 46.32C97.976 47.0667 98.1147 47.7227 98.392 48.288C98.68 48.8427 99.0747 49.2693 99.576 49.568C100.077 49.8667 100.659 50.016 101.32 50.016C101.981 50.016 102.563 49.8667 103.064 49.568C103.565 49.2693 103.955 48.8427 104.232 48.288C104.52 47.7227 104.664 47.0667 104.664 46.32C104.664 45.5733 104.52 44.9227 104.232 44.368C103.955 43.8027 103.565 43.3707 103.064 43.072C102.563 42.7733 101.981 42.624 101.32 42.624ZM113.945 43.008C114.969 43.008 115.785 43.344 116.393 44.016C117.001 44.688 117.305 45.632 117.305 46.848V52H115.065V47.104C115.065 46.4 114.883 45.856 114.521 45.472C114.158 45.0773 113.662 44.88 113.033 44.88C112.393 44.88 111.881 45.088 111.497 45.504C111.113 45.92 110.921 46.5173 110.921 47.296V52H108.665V43.136H110.921V44.912C111.155 44.3147 111.539 43.8507 112.073 43.52C112.617 43.1787 113.241 43.008 113.945 43.008ZM130.454 40.704V42.496H127.334V52H125.078V42.496H121.974V40.704H130.454ZM131.44 40.592C131.44 40.2293 131.568 39.936 131.824 39.712C132.08 39.4773 132.416 39.36 132.832 39.36C133.248 39.36 133.584 39.4773 133.84 39.712C134.096 39.936 134.224 40.2293 134.224 40.592C134.224 40.944 134.096 41.2373 133.84 41.472C133.584 41.696 133.248 41.808 132.832 41.808C132.416 41.808 132.08 41.696 131.824 41.472C131.568 41.2373 131.44 40.944 131.44 40.592ZM133.952 43.136V52H131.696V43.136H133.952ZM147.273 43.008C148.35 43.008 149.198 43.344 149.817 44.016C150.446 44.6773 150.761 45.6213 150.761 46.848V52H148.521V47.104C148.521 46.4213 148.345 45.8987 147.993 45.536C147.651 45.1627 147.177 44.976 146.569 44.976C145.939 44.976 145.438 45.1733 145.065 45.568C144.691 45.9627 144.505 46.5387 144.505 47.296V52H142.265V47.104C142.265 46.4213 142.089 45.8987 141.737 45.536C141.395 45.1627 140.921 44.976 140.313 44.976C139.683 44.976 139.182 45.1733 138.809 45.568C138.435 45.9627 138.249 46.5387 138.249 47.296V52H135.993V43.136H138.249V44.816C138.483 44.24 138.851 43.7973 139.353 43.488C139.865 43.168 140.457 43.008 141.129 43.008C141.843 43.008 142.462 43.1787 142.985 43.52C143.518 43.8613 143.918 44.352 144.185 44.992C144.462 44.384 144.873 43.904 145.417 43.552C145.971 43.1893 146.59 43.008 147.273 43.008ZM161.079 47.232C161.079 47.456 161.052 47.712 160.999 48H154.503C154.535 48.7893 154.748 49.3707 155.143 49.744C155.537 50.1173 156.028 50.304 156.615 50.304C157.137 50.304 157.569 50.176 157.911 49.92C158.263 49.664 158.487 49.3173 158.583 48.88H160.967C160.849 49.4987 160.599 50.0533 160.215 50.544C159.831 51.0347 159.335 51.4187 158.727 51.696C158.129 51.9733 157.463 52.112 156.727 52.112C155.863 52.112 155.095 51.9307 154.423 51.568C153.751 51.1947 153.228 50.6667 152.855 49.984C152.481 49.3013 152.295 48.496 152.295 47.568C152.295 46.64 152.481 45.8347 152.855 45.152C153.228 44.4587 153.751 43.9307 154.423 43.568C155.095 43.2053 155.863 43.024 156.727 43.024C157.601 43.024 158.364 43.2053 159.015 43.568C159.676 43.9307 160.183 44.432 160.535 45.072C160.897 45.7013 161.079 46.4213 161.079 47.232ZM158.807 47.008C158.839 46.2827 158.647 45.7333 158.231 45.36C157.825 44.9867 157.324 44.8 156.727 44.8C156.119 44.8 155.607 44.9867 155.191 45.36C154.775 45.7333 154.545 46.2827 154.503 47.008H158.807ZM176.101 46.336C176.101 47.456 175.866 48.4427 175.397 49.296C174.927 50.1493 174.245 50.816 173.349 51.296C172.463 51.7653 171.407 52 170.181 52H166.165V40.704H170.181C171.407 40.704 172.463 40.9387 173.349 41.408C174.245 41.8667 174.927 42.5227 175.397 43.376C175.866 44.2187 176.101 45.2053 176.101 46.336ZM169.989 49.984C171.205 49.984 172.143 49.664 172.805 49.024C173.477 48.384 173.813 47.488 173.813 46.336C173.813 45.1733 173.477 44.272 172.805 43.632C172.143 42.992 171.205 42.672 169.989 42.672H168.421V49.984H169.989ZM186.126 47.232C186.126 47.456 186.099 47.712 186.046 48H179.55C179.582 48.7893 179.795 49.3707 180.19 49.744C180.584 50.1173 181.075 50.304 181.662 50.304C182.184 50.304 182.616 50.176 182.958 49.92C183.31 49.664 183.534 49.3173 183.63 48.88H186.014C185.896 49.4987 185.646 50.0533 185.262 50.544C184.878 51.0347 184.382 51.4187 183.774 51.696C183.176 51.9733 182.51 52.112 181.774 52.112C180.91 52.112 180.142 51.9307 179.47 51.568C178.798 51.1947 178.275 50.6667 177.902 49.984C177.528 49.3013 177.342 48.496 177.342 47.568C177.342 46.64 177.528 45.8347 177.902 45.152C178.275 44.4587 178.798 43.9307 179.47 43.568C180.142 43.2053 180.91 43.024 181.774 43.024C182.648 43.024 183.411 43.2053 184.062 43.568C184.723 43.9307 185.23 44.432 185.582 45.072C185.944 45.7013 186.126 46.4213 186.126 47.232ZM183.854 47.008C183.886 46.2827 183.694 45.7333 183.278 45.36C182.872 44.9867 182.371 44.8 181.774 44.8C181.166 44.8 180.654 44.9867 180.238 45.36C179.822 45.7333 179.592 46.2827 179.55 47.008H183.854ZM189.983 40.16V52H187.727V40.16H189.983ZM191.768 40.592C191.768 40.2293 191.896 39.936 192.152 39.712C192.408 39.4773 192.744 39.36 193.16 39.36C193.576 39.36 193.912 39.4773 194.168 39.712C194.424 39.936 194.552 40.2293 194.552 40.592C194.552 40.944 194.424 41.2373 194.168 41.472C193.912 41.696 193.576 41.808 193.16 41.808C192.744 41.808 192.408 41.696 192.152 41.472C191.896 41.2373 191.768 40.944 191.768 40.592ZM194.28 43.136V52H192.024V43.136H194.28ZM200.177 49.744L202.417 43.136H204.817L201.537 52H198.785L195.505 43.136H197.921L200.177 49.744ZM214.407 47.232C214.407 47.456 214.38 47.712 214.327 48H207.831C207.863 48.7893 208.076 49.3707 208.471 49.744C208.866 50.1173 209.356 50.304 209.943 50.304C210.466 50.304 210.898 50.176 211.239 49.92C211.591 49.664 211.815 49.3173 211.911 48.88H214.295C214.178 49.4987 213.927 50.0533 213.543 50.544C213.159 51.0347 212.663 51.4187 212.055 51.696C211.458 51.9733 210.791 52.112 210.055 52.112C209.191 52.112 208.423 51.9307 207.751 51.568C207.079 51.1947 206.556 50.6667 206.183 49.984C205.81 49.3013 205.623 48.496 205.623 47.568C205.623 46.64 205.81 45.8347 206.183 45.152C206.556 44.4587 207.079 43.9307 207.751 43.568C208.423 43.2053 209.191 43.024 210.055 43.024C210.93 43.024 211.692 43.2053 212.343 43.568C213.004 43.9307 213.511 44.432 213.863 45.072C214.226 45.7013 214.407 46.4213 214.407 47.232ZM212.135 47.008C212.167 46.2827 211.975 45.7333 211.559 45.36C211.154 44.9867 210.652 44.8 210.055 44.8C209.447 44.8 208.935 44.9867 208.519 45.36C208.103 45.7333 207.874 46.2827 207.831 47.008H212.135ZM218.264 44.832C218.595 44.2667 219.032 43.824 219.576 43.504C220.12 43.1733 220.728 43.008 221.4 43.008V45.424H220.744C219.091 45.424 218.264 46.192 218.264 47.728V52H216.008V43.136H218.264V44.832ZM224.169 43.136L226.585 49.152L228.825 43.136H231.305L225.881 56.224H223.385L225.385 51.744L221.657 43.136H224.169Z" fill="black"/>
<path d="M102.322 73.116V74.404H99.564V83H97.954V74.404H95.21V73.116H102.322ZM107.825 75.16C108.721 75.16 109.44 75.4493 109.981 76.028C110.522 76.6067 110.793 77.4327 110.793 78.506V83H109.197V78.674C109.197 77.9833 109.02 77.4513 108.665 77.078C108.31 76.6953 107.825 76.504 107.209 76.504C106.574 76.504 106.066 76.7093 105.683 77.12C105.3 77.5213 105.109 78.114 105.109 78.898V83H103.513V72.64H105.109V76.98C105.314 76.4013 105.66 75.9533 106.145 75.636C106.63 75.3187 107.19 75.16 107.825 75.16ZM114.255 76.798C114.517 76.294 114.89 75.8973 115.375 75.608C115.861 75.3093 116.421 75.16 117.055 75.16V76.896H116.579C115.879 76.896 115.315 77.0687 114.885 77.414C114.465 77.75 114.255 78.31 114.255 79.094V83H112.659V75.286H114.255V76.798ZM121.779 75.188C122.526 75.188 123.198 75.3467 123.795 75.664C124.392 75.9813 124.859 76.4387 125.195 77.036C125.531 77.6333 125.699 78.3333 125.699 79.136C125.699 79.948 125.531 80.6527 125.195 81.25C124.859 81.8473 124.392 82.3047 123.795 82.622C123.198 82.9393 122.526 83.098 121.779 83.098C121.032 83.098 120.36 82.9393 119.763 82.622C119.175 82.3047 118.708 81.8473 118.363 81.25C118.027 80.6433 117.859 79.9387 117.859 79.136C117.859 78.3333 118.027 77.6333 118.363 77.036C118.708 76.4387 119.175 75.9813 119.763 75.664C120.36 75.3467 121.032 75.188 121.779 75.188ZM121.779 76.574C121.368 76.574 120.99 76.6673 120.645 76.854C120.3 77.0407 120.02 77.33 119.805 77.722C119.6 78.1047 119.497 78.576 119.497 79.136C119.497 79.7053 119.6 80.1813 119.805 80.564C120.02 80.9467 120.3 81.2313 120.645 81.418C120.99 81.6047 121.368 81.698 121.779 81.698C122.19 81.698 122.568 81.6047 122.913 81.418C123.258 81.2313 123.534 80.9467 123.739 80.564C123.954 80.1813 124.061 79.7053 124.061 79.136C124.061 78.576 123.954 78.1047 123.739 77.722C123.534 77.33 123.258 77.0407 122.913 76.854C122.568 76.6673 122.19 76.574 121.779 76.574ZM134.346 75.286V83H132.736V81.32C132.54 81.8893 132.199 82.3327 131.714 82.65C131.228 82.958 130.664 83.112 130.02 83.112C129.124 83.112 128.405 82.8227 127.864 82.244C127.322 81.6653 127.052 80.8393 127.052 79.766V75.286H128.648V79.598C128.648 80.298 128.825 80.8393 129.18 81.222C129.534 81.5953 130.02 81.782 130.636 81.782C131.27 81.782 131.779 81.5767 132.162 81.166C132.544 80.7553 132.736 80.158 132.736 79.374V75.286H134.346ZM139.351 75.188C140.051 75.188 140.648 75.3607 141.143 75.706C141.638 76.0513 141.988 76.5087 142.193 77.078V75.286H143.789V83.084C143.789 83.8027 143.64 84.4373 143.341 84.988C143.052 85.548 142.632 85.9867 142.081 86.304C141.53 86.6213 140.877 86.78 140.121 86.78C139.038 86.78 138.161 86.5233 137.489 86.01C136.826 85.4967 136.411 84.8013 136.243 83.924H137.825C137.956 84.3813 138.208 84.736 138.581 84.988C138.954 85.2493 139.43 85.38 140.009 85.38C140.644 85.38 141.166 85.184 141.577 84.792C141.988 84.4 142.193 83.8307 142.193 83.084V81.208C141.988 81.7773 141.638 82.2347 141.143 82.58C140.648 82.9253 140.051 83.098 139.351 83.098C138.679 83.098 138.077 82.9393 137.545 82.622C137.022 82.3047 136.612 81.8473 136.313 81.25C136.014 80.6527 135.865 79.948 135.865 79.136C135.865 78.3333 136.014 77.6333 136.313 77.036C136.612 76.4387 137.022 75.9813 137.545 75.664C138.077 75.3467 138.679 75.188 139.351 75.188ZM139.841 76.588C139.132 76.588 138.562 76.8167 138.133 77.274C137.713 77.722 137.503 78.3427 137.503 79.136C137.503 79.9293 137.713 80.5547 138.133 81.012C138.562 81.46 139.132 81.684 139.841 81.684C140.289 81.684 140.69 81.5813 141.045 81.376C141.4 81.1613 141.68 80.8627 141.885 80.48C142.09 80.0973 142.193 79.6493 142.193 79.136C142.193 78.632 142.09 78.1887 141.885 77.806C141.68 77.414 141.4 77.1153 141.045 76.91C140.69 76.6953 140.289 76.588 139.841 76.588ZM150.016 75.16C150.912 75.16 151.631 75.4493 152.172 76.028C152.714 76.6067 152.984 77.4327 152.984 78.506V83H151.388V78.674C151.388 77.9833 151.211 77.4513 150.856 77.078C150.502 76.6953 150.016 76.504 149.4 76.504C148.766 76.504 148.257 76.7093 147.874 77.12C147.492 77.5213 147.3 78.114 147.3 78.898V83H145.704V72.64H147.3V76.98C147.506 76.4013 147.851 75.9533 148.336 75.636C148.822 75.3187 149.382 75.16 150.016 75.16ZM164.488 73.116V74.404H161.73V83H160.12V74.404H157.376V73.116H164.488ZM167.275 76.798C167.536 76.294 167.91 75.8973 168.395 75.608C168.88 75.3093 169.44 75.16 170.075 75.16V76.896H169.599C168.899 76.896 168.334 77.0687 167.905 77.414C167.485 77.75 167.275 78.31 167.275 79.094V83H165.679V75.286H167.275V76.798ZM178.383 75.286V83H176.773V81.32C176.577 81.8893 176.236 82.3327 175.751 82.65C175.265 82.958 174.701 83.112 174.057 83.112C173.161 83.112 172.442 82.8227 171.901 82.244C171.359 81.6653 171.089 80.8393 171.089 79.766V75.286H172.685V79.598C172.685 80.298 172.862 80.8393 173.217 81.222C173.571 81.5953 174.057 81.782 174.673 81.782C175.307 81.782 175.816 81.5767 176.199 81.166C176.581 80.7553 176.773 80.158 176.773 79.374V75.286H178.383ZM187.462 78.772C187.462 79.0333 187.443 79.262 187.406 79.458H181.47C181.498 80.2513 181.717 80.8393 182.128 81.222C182.539 81.6047 183.047 81.796 183.654 81.796C184.186 81.796 184.634 81.6607 184.998 81.39C185.371 81.1193 185.6 80.76 185.684 80.312H187.392C187.289 80.8533 187.075 81.334 186.748 81.754C186.421 82.174 185.997 82.5053 185.474 82.748C184.951 82.9813 184.368 83.098 183.724 83.098C182.977 83.098 182.315 82.9393 181.736 82.622C181.167 82.3047 180.719 81.8473 180.392 81.25C180.065 80.6527 179.902 79.948 179.902 79.136C179.902 78.3333 180.065 77.6333 180.392 77.036C180.719 76.4387 181.167 75.9813 181.736 75.664C182.315 75.3467 182.977 75.188 183.724 75.188C184.48 75.188 185.138 75.3467 185.698 75.664C186.267 75.972 186.701 76.4013 187 76.952C187.308 77.4933 187.462 78.1 187.462 78.772ZM185.852 78.73C185.871 78.226 185.782 77.806 185.586 77.47C185.399 77.1247 185.138 76.8727 184.802 76.714C184.475 76.546 184.116 76.462 183.724 76.462C183.099 76.462 182.576 76.6533 182.156 77.036C181.736 77.4187 181.507 77.9833 181.47 78.73H185.852ZM197.478 83L195.014 79.052H193.88V83H192.284V73.116H195.77C196.9 73.116 197.754 73.3913 198.332 73.942C198.92 74.4927 199.214 75.2207 199.214 76.126C199.214 76.9007 198.995 77.5353 198.556 78.03C198.127 78.5247 197.502 78.842 196.68 78.982L199.27 83H197.478ZM193.88 77.918H195.644C196.932 77.918 197.576 77.3487 197.576 76.21C197.576 75.6687 197.418 75.2487 197.1 74.95C196.792 74.642 196.307 74.488 195.644 74.488H193.88V77.918ZM200.428 73.046C200.428 72.7753 200.521 72.5513 200.708 72.374C200.894 72.1967 201.142 72.108 201.45 72.108C201.758 72.108 202.005 72.1967 202.192 72.374C202.388 72.5513 202.486 72.7753 202.486 73.046C202.486 73.3167 202.388 73.536 202.192 73.704C202.005 73.872 201.758 73.956 201.45 73.956C201.142 73.956 200.894 73.872 200.708 73.704C200.521 73.536 200.428 73.3167 200.428 73.046ZM202.248 75.286V83H200.652V75.286H202.248ZM207.609 75.188C208.608 75.188 209.434 75.454 210.087 75.986C210.74 76.5087 211.146 77.2227 211.305 78.128H209.611C209.518 77.6427 209.289 77.2647 208.925 76.994C208.57 76.714 208.122 76.574 207.581 76.574C206.965 76.574 206.452 76.7933 206.041 77.232C205.63 77.6613 205.425 78.296 205.425 79.136C205.425 79.976 205.63 80.6153 206.041 81.054C206.452 81.4927 206.965 81.712 207.581 81.712C208.122 81.712 208.57 81.572 208.925 81.292C209.289 81.012 209.518 80.6293 209.611 80.144H211.305C211.146 81.0493 210.74 81.768 210.087 82.3C209.434 82.832 208.608 83.098 207.609 83.098C206.862 83.098 206.2 82.9393 205.621 82.622C205.052 82.3047 204.604 81.8473 204.277 81.25C203.95 80.6527 203.787 79.948 203.787 79.136C203.787 78.3333 203.95 77.6333 204.277 77.036C204.604 76.4387 205.052 75.9813 205.621 75.664C206.2 75.3467 206.862 75.188 207.609 75.188ZM217.159 75.16C218.055 75.16 218.774 75.4493 219.315 76.028C219.856 76.6067 220.127 77.4327 220.127 78.506V83H218.531V78.674C218.531 77.9833 218.354 77.4513 217.999 77.078C217.644 76.6953 217.159 76.504 216.543 76.504C215.908 76.504 215.4 76.7093 215.017 77.12C214.634 77.5213 214.443 78.114 214.443 78.898V83H212.847V72.64H214.443V76.98C214.648 76.4013 214.994 75.9533 215.479 75.636C215.964 75.3187 216.524 75.16 217.159 75.16ZM231.169 80.858H226.997L226.241 83H224.533L228.173 73.27H230.007L233.633 83H231.925L231.169 80.858ZM230.721 79.626L229.083 75.006L227.445 79.626H230.721ZM238.696 81.614V83H237.716C236.894 83 236.269 82.804 235.84 82.412C235.42 82.0107 235.21 81.348 235.21 80.424V76.644H234.104V75.286H235.21V73.368H236.82V75.286H238.682V76.644H236.82V80.452C236.82 80.8907 236.899 81.194 237.058 81.362C237.226 81.53 237.515 81.614 237.926 81.614H238.696ZM244.069 81.614V83H243.089C242.267 83 241.642 82.804 241.213 82.412C240.793 82.0107 240.583 81.348 240.583 80.424V76.644H239.477V75.286H240.583V73.368H242.193V75.286H244.055V76.644H242.193V80.452C242.193 80.8907 242.272 81.194 242.431 81.362C242.599 81.53 242.888 81.614 243.299 81.614H244.069ZM252.732 78.772C252.732 79.0333 252.713 79.262 252.676 79.458H246.74C246.768 80.2513 246.987 80.8393 247.398 81.222C247.808 81.6047 248.317 81.796 248.924 81.796C249.456 81.796 249.904 81.6607 250.268 81.39C250.641 81.1193 250.87 80.76 250.954 80.312H252.662C252.559 80.8533 252.344 81.334 252.018 81.754C251.691 82.174 251.266 82.5053 250.744 82.748C250.221 82.9813 249.638 83.098 248.994 83.098C248.247 83.098 247.584 82.9393 247.006 82.622C246.436 82.3047 245.988 81.8473 245.662 81.25C245.335 80.6527 245.172 79.948 245.172 79.136C245.172 78.3333 245.335 77.6333 245.662 77.036C245.988 76.4387 246.436 75.9813 247.006 75.664C247.584 75.3467 248.247 75.188 248.994 75.188C249.75 75.188 250.408 75.3467 250.968 75.664C251.537 75.972 251.971 76.4013 252.27 76.952C252.578 77.4933 252.732 78.1 252.732 78.772ZM251.122 78.73C251.14 78.226 251.052 77.806 250.856 77.47C250.669 77.1247 250.408 76.8727 250.072 76.714C249.745 76.546 249.386 76.462 248.994 76.462C248.368 76.462 247.846 76.6533 247.426 77.036C247.006 77.4187 246.777 77.9833 246.74 78.73H251.122ZM258.585 75.16C259.481 75.16 260.199 75.4493 260.741 76.028C261.282 76.6067 261.553 77.4327 261.553 78.506V83H259.957V78.674C259.957 77.9833 259.779 77.4513 259.425 77.078C259.07 76.6953 258.585 76.504 257.969 76.504C257.334 76.504 256.825 76.7093 256.443 77.12C256.06 77.5213 255.869 78.114 255.869 78.898V83H254.273V75.286H255.869V76.98C256.074 76.4013 256.419 75.9533 256.905 75.636C257.39 75.3187 257.95 75.16 258.585 75.16ZM266.513 75.188C267.213 75.188 267.81 75.3607 268.305 75.706C268.8 76.0513 269.145 76.5087 269.341 77.078V72.64H270.951V83H269.341V81.208C269.145 81.7773 268.8 82.2347 268.305 82.58C267.81 82.9253 267.213 83.098 266.513 83.098C265.841 83.098 265.239 82.9393 264.707 82.622C264.184 82.3047 263.774 81.8473 263.475 81.25C263.176 80.6527 263.027 79.948 263.027 79.136C263.027 78.3333 263.176 77.6333 263.475 77.036C263.774 76.4387 264.184 75.9813 264.707 75.664C265.239 75.3467 265.841 75.188 266.513 75.188ZM267.003 76.588C266.294 76.588 265.724 76.8167 265.295 77.274C264.875 77.722 264.665 78.3427 264.665 79.136C264.665 79.9293 264.875 80.5547 265.295 81.012C265.724 81.46 266.294 81.684 267.003 81.684C267.451 81.684 267.852 81.5813 268.207 81.376C268.562 81.1613 268.842 80.8627 269.047 80.48C269.252 80.0973 269.355 79.6493 269.355 79.136C269.355 78.632 269.252 78.1887 269.047 77.806C268.842 77.414 268.562 77.1153 268.207 76.91C267.852 76.6953 267.451 76.588 267.003 76.588ZM280.034 78.772C280.034 79.0333 280.016 79.262 279.978 79.458H274.042C274.07 80.2513 274.29 80.8393 274.7 81.222C275.111 81.6047 275.62 81.796 276.226 81.796C276.758 81.796 277.206 81.6607 277.57 81.39C277.944 81.1193 278.172 80.76 278.256 80.312H279.964C279.862 80.8533 279.647 81.334 279.32 81.754C278.994 82.174 278.569 82.5053 278.046 82.748C277.524 82.9813 276.94 83.098 276.296 83.098C275.55 83.098 274.887 82.9393 274.308 82.622C273.739 82.3047 273.291 81.8473 272.964 81.25C272.638 80.6527 272.474 79.948 272.474 79.136C272.474 78.3333 272.638 77.6333 272.964 77.036C273.291 76.4387 273.739 75.9813 274.308 75.664C274.887 75.3467 275.55 75.188 276.296 75.188C277.052 75.188 277.71 75.3467 278.27 75.664C278.84 75.972 279.274 76.4013 279.572 76.952C279.88 77.4933 280.034 78.1 280.034 78.772ZM278.424 78.73C278.443 78.226 278.354 77.806 278.158 77.47C277.972 77.1247 277.71 76.8727 277.374 76.714C277.048 76.546 276.688 76.462 276.296 76.462C275.671 76.462 275.148 76.6533 274.728 77.036C274.308 77.4187 274.08 77.9833 274.042 78.73H278.424ZM284.669 75.188C285.369 75.188 285.967 75.3607 286.461 75.706C286.956 76.0513 287.301 76.5087 287.497 77.078V72.64H289.107V83H287.497V81.208C287.301 81.7773 286.956 82.2347 286.461 82.58C285.967 82.9253 285.369 83.098 284.669 83.098C283.997 83.098 283.395 82.9393 282.863 82.622C282.341 82.3047 281.93 81.8473 281.631 81.25C281.333 80.6527 281.183 79.948 281.183 79.136C281.183 78.3333 281.333 77.6333 281.631 77.036C281.93 76.4387 282.341 75.9813 282.863 75.664C283.395 75.3467 283.997 75.188 284.669 75.188ZM285.159 76.588C284.45 76.588 283.881 76.8167 283.451 77.274C283.031 77.722 282.821 78.3427 282.821 79.136C282.821 79.9293 283.031 80.5547 283.451 81.012C283.881 81.46 284.45 81.684 285.159 81.684C285.607 81.684 286.009 81.5813 286.363 81.376C286.718 81.1613 286.998 80.8627 287.203 80.48C287.409 80.0973 287.511 79.6493 287.511 79.136C287.511 78.632 287.409 78.1887 287.203 77.806C286.998 77.414 286.718 77.1153 286.363 76.91C286.009 76.6953 285.607 76.588 285.159 76.588ZM297.398 75.188C298.098 75.188 298.695 75.3607 299.19 75.706C299.685 76.0513 300.03 76.5087 300.226 77.078V72.64H301.836V83H300.226V81.208C300.03 81.7773 299.685 82.2347 299.19 82.58C298.695 82.9253 298.098 83.098 297.398 83.098C296.726 83.098 296.124 82.9393 295.592 82.622C295.069 82.3047 294.659 81.8473 294.36 81.25C294.061 80.6527 293.912 79.948 293.912 79.136C293.912 78.3333 294.061 77.6333 294.36 77.036C294.659 76.4387 295.069 75.9813 295.592 75.664C296.124 75.3467 296.726 75.188 297.398 75.188ZM297.888 76.588C297.179 76.588 296.609 76.8167 296.18 77.274C295.76 77.722 295.55 78.3427 295.55 79.136C295.55 79.9293 295.76 80.5547 296.18 81.012C296.609 81.46 297.179 81.684 297.888 81.684C298.336 81.684 298.737 81.5813 299.092 81.376C299.447 81.1613 299.727 80.8627 299.932 80.48C300.137 80.0973 300.24 79.6493 300.24 79.136C300.24 78.632 300.137 78.1887 299.932 77.806C299.727 77.414 299.447 77.1153 299.092 76.91C298.737 76.6953 298.336 76.588 297.888 76.588ZM307.279 75.188C308.026 75.188 308.698 75.3467 309.295 75.664C309.892 75.9813 310.359 76.4387 310.695 77.036C311.031 77.6333 311.199 78.3333 311.199 79.136C311.199 79.948 311.031 80.6527 310.695 81.25C310.359 81.8473 309.892 82.3047 309.295 82.622C308.698 82.9393 308.026 83.098 307.279 83.098C306.532 83.098 305.86 82.9393 305.263 82.622C304.675 82.3047 304.208 81.8473 303.863 81.25C303.527 80.6433 303.359 79.9387 303.359 79.136C303.359 78.3333 303.527 77.6333 303.863 77.036C304.208 76.4387 304.675 75.9813 305.263 75.664C305.86 75.3467 306.532 75.188 307.279 75.188ZM307.279 76.574C306.868 76.574 306.49 76.6673 306.145 76.854C305.8 77.0407 305.52 77.33 305.305 77.722C305.1 78.1047 304.997 78.576 304.997 79.136C304.997 79.7053 305.1 80.1813 305.305 80.564C305.52 80.9467 305.8 81.2313 306.145 81.418C306.49 81.6047 306.868 81.698 307.279 81.698C307.69 81.698 308.068 81.6047 308.413 81.418C308.758 81.2313 309.034 80.9467 309.239 80.564C309.454 80.1813 309.561 79.7053 309.561 79.136C309.561 78.576 309.454 78.1047 309.239 77.722C309.034 77.33 308.758 77.0407 308.413 76.854C308.068 76.6673 307.69 76.574 307.279 76.574ZM319.902 78.772C319.902 79.0333 319.883 79.262 319.846 79.458H313.91C313.938 80.2513 314.157 80.8393 314.568 81.222C314.978 81.6047 315.487 81.796 316.094 81.796C316.626 81.796 317.074 81.6607 317.438 81.39C317.811 81.1193 318.04 80.76 318.124 80.312H319.832C319.729 80.8533 319.514 81.334 319.188 81.754C318.861 82.174 318.436 82.5053 317.914 82.748C317.391 82.9813 316.808 83.098 316.164 83.098C315.417 83.098 314.754 82.9393 314.176 82.622C313.606 82.3047 313.158 81.8473 312.832 81.25C312.505 80.6527 312.342 79.948 312.342 79.136C312.342 78.3333 312.505 77.6333 312.832 77.036C313.158 76.4387 313.606 75.9813 314.176 75.664C314.754 75.3467 315.417 75.188 316.164 75.188C316.92 75.188 317.578 75.3467 318.138 75.664C318.707 75.972 319.141 76.4013 319.44 76.952C319.748 77.4933 319.902 78.1 319.902 78.772ZM318.292 78.73C318.31 78.226 318.222 77.806 318.026 77.47C317.839 77.1247 317.578 76.8727 317.242 76.714C316.915 76.546 316.556 76.462 316.164 76.462C315.538 76.462 315.016 76.6533 314.596 77.036C314.176 77.4187 313.947 77.9833 313.91 78.73H318.292ZM323.977 75.188C324.882 75.188 325.605 75.4213 326.147 75.888C326.697 76.3453 327.033 76.9613 327.155 77.736H325.643C325.577 77.316 325.395 76.98 325.097 76.728C324.807 76.4667 324.42 76.336 323.935 76.336C323.533 76.336 323.221 76.434 322.997 76.63C322.782 76.8167 322.675 77.0733 322.675 77.4C322.675 77.6427 322.754 77.8387 322.913 77.988C323.071 78.1373 323.267 78.254 323.501 78.338C323.743 78.422 324.084 78.5153 324.523 78.618C325.101 78.7487 325.568 78.884 325.923 79.024C326.287 79.164 326.595 79.388 326.847 79.696C327.108 79.9947 327.239 80.4053 327.239 80.928C327.239 81.572 326.991 82.0947 326.497 82.496C326.011 82.8973 325.353 83.098 324.523 83.098C323.561 83.098 322.782 82.874 322.185 82.426C321.597 81.978 321.242 81.3527 321.121 80.55H322.675C322.721 80.97 322.908 81.3107 323.235 81.572C323.561 81.8333 323.991 81.964 324.523 81.964C324.905 81.964 325.204 81.866 325.419 81.67C325.643 81.4647 325.755 81.208 325.755 80.9C325.755 80.6293 325.671 80.4147 325.503 80.256C325.335 80.0973 325.125 79.976 324.873 79.892C324.621 79.7987 324.275 79.7053 323.837 79.612C323.277 79.4813 322.819 79.3507 322.465 79.22C322.119 79.0893 321.821 78.8793 321.569 78.59C321.326 78.2913 321.205 77.89 321.205 77.386C321.205 76.7327 321.447 76.2053 321.933 75.804C322.427 75.3933 323.109 75.188 323.977 75.188ZM336.432 75.16C337.328 75.16 338.047 75.4493 338.588 76.028C339.13 76.6067 339.4 77.4327 339.4 78.506V83H337.804V78.674C337.804 77.9833 337.627 77.4513 337.272 77.078C336.918 76.6953 336.432 76.504 335.816 76.504C335.182 76.504 334.673 76.7093 334.29 77.12C333.908 77.5213 333.716 78.114 333.716 78.898V83H332.12V75.286H333.716V76.98C333.922 76.4013 334.267 75.9533 334.752 75.636C335.238 75.3187 335.798 75.16 336.432 75.16ZM344.795 75.188C345.541 75.188 346.213 75.3467 346.811 75.664C347.408 75.9813 347.875 76.4387 348.211 77.036C348.547 77.6333 348.715 78.3333 348.715 79.136C348.715 79.948 348.547 80.6527 348.211 81.25C347.875 81.8473 347.408 82.3047 346.811 82.622C346.213 82.9393 345.541 83.098 344.795 83.098C344.048 83.098 343.376 82.9393 342.779 82.622C342.191 82.3047 341.724 81.8473 341.379 81.25C341.043 80.6433 340.875 79.9387 340.875 79.136C340.875 78.3333 341.043 77.6333 341.379 77.036C341.724 76.4387 342.191 75.9813 342.779 75.664C343.376 75.3467 344.048 75.188 344.795 75.188ZM344.795 76.574C344.384 76.574 344.006 76.6673 343.661 76.854C343.315 77.0407 343.035 77.33 342.821 77.722C342.615 78.1047 342.513 78.576 342.513 79.136C342.513 79.7053 342.615 80.1813 342.821 80.564C343.035 80.9467 343.315 81.2313 343.661 81.418C344.006 81.6047 344.384 81.698 344.795 81.698C345.205 81.698 345.583 81.6047 345.929 81.418C346.274 81.2313 346.549 80.9467 346.755 80.564C346.969 80.1813 347.077 79.7053 347.077 79.136C347.077 78.576 346.969 78.1047 346.755 77.722C346.549 77.33 346.274 77.0407 345.929 76.854C345.583 76.6673 345.205 76.574 344.795 76.574ZM360.698 78.772C360.698 79.0333 360.68 79.262 360.642 79.458H354.706C354.734 80.2513 354.954 80.8393 355.364 81.222C355.775 81.6047 356.284 81.796 356.89 81.796C357.422 81.796 357.87 81.6607 358.234 81.39C358.608 81.1193 358.836 80.76 358.92 80.312H360.628C360.526 80.8533 360.311 81.334 359.984 81.754C359.658 82.174 359.233 82.5053 358.71 82.748C358.188 82.9813 357.604 83.098 356.96 83.098C356.214 83.098 355.551 82.9393 354.972 82.622C354.403 82.3047 353.955 81.8473 353.628 81.25C353.302 80.6527 353.138 79.948 353.138 79.136C353.138 78.3333 353.302 77.6333 353.628 77.036C353.955 76.4387 354.403 75.9813 354.972 75.664C355.551 75.3467 356.214 75.188 356.96 75.188C357.716 75.188 358.374 75.3467 358.934 75.664C359.504 75.972 359.938 76.4013 360.236 76.952C360.544 77.4933 360.698 78.1 360.698 78.772ZM359.088 78.73C359.107 78.226 359.018 77.806 358.822 77.47C358.636 77.1247 358.374 76.8727 358.038 76.714C357.712 76.546 357.352 76.462 356.96 76.462C356.335 76.462 355.812 76.6533 355.392 77.036C354.972 77.4187 354.744 77.9833 354.706 78.73H359.088ZM366.551 75.16C367.447 75.16 368.166 75.4493 368.707 76.028C369.249 76.6067 369.519 77.4327 369.519 78.506V83H367.923V78.674C367.923 77.9833 367.746 77.4513 367.391 77.078C367.037 76.6953 366.551 76.504 365.935 76.504C365.301 76.504 364.792 76.7093 364.409 77.12C364.027 77.5213 363.835 78.114 363.835 78.898V83H362.239V75.286H363.835V76.98C364.041 76.4013 364.386 75.9533 364.871 75.636C365.357 75.3187 365.917 75.16 366.551 75.16ZM374.48 75.188C375.18 75.188 375.777 75.3607 376.272 75.706C376.767 76.0513 377.112 76.5087 377.308 77.078V72.64H378.918V83H377.308V81.208C377.112 81.7773 376.767 82.2347 376.272 82.58C375.777 82.9253 375.18 83.098 374.48 83.098C373.808 83.098 373.206 82.9393 372.674 82.622C372.151 82.3047 371.741 81.8473 371.442 81.25C371.143 80.6527 370.994 79.948 370.994 79.136C370.994 78.3333 371.143 77.6333 371.442 77.036C371.741 76.4387 372.151 75.9813 372.674 75.664C373.206 75.3467 373.808 75.188 374.48 75.188ZM374.97 76.588C374.261 76.588 373.691 76.8167 373.262 77.274C372.842 77.722 372.632 78.3427 372.632 79.136C372.632 79.9293 372.842 80.5547 373.262 81.012C373.691 81.46 374.261 81.684 374.97 81.684C375.418 81.684 375.819 81.5813 376.174 81.376C376.529 81.1613 376.809 80.8627 377.014 80.48C377.219 80.0973 377.322 79.6493 377.322 79.136C377.322 78.632 377.219 78.1887 377.014 77.806C376.809 77.414 376.529 77.1153 376.174 76.91C375.819 76.6953 375.418 76.588 374.97 76.588ZM383.89 73.046C383.89 72.7753 383.984 72.5513 384.17 72.374C384.357 72.1967 384.604 72.108 384.912 72.108C385.22 72.108 385.468 72.1967 385.654 72.374C385.85 72.5513 385.948 72.7753 385.948 73.046C385.948 73.3167 385.85 73.536 385.654 73.704C385.468 73.872 385.22 73.956 384.912 73.956C384.604 73.956 384.357 73.872 384.17 73.704C383.984 73.536 383.89 73.3167 383.89 73.046ZM385.71 75.286V83H384.114V75.286H385.71ZM391.52 81.614V83H390.54C389.718 83 389.093 82.804 388.664 82.412C388.244 82.0107 388.034 81.348 388.034 80.424V76.644H386.928V75.286H388.034V73.368H389.644V75.286H391.506V76.644H389.644V80.452C389.644 80.8907 389.723 81.194 389.882 81.362C390.05 81.53 390.339 81.614 390.75 81.614H391.52ZM100.278 95.16C101.174 95.16 101.893 95.4493 102.434 96.028C102.975 96.6067 103.246 97.4327 103.246 98.506V103H101.65V98.674C101.65 97.9833 101.473 97.4513 101.118 97.078C100.763 96.6953 100.278 96.504 99.662 96.504C99.0273 96.504 98.5187 96.7093 98.136 97.12C97.7533 97.5213 97.562 98.114 97.562 98.898V103H95.966V92.64H97.562V96.98C97.7673 96.4013 98.1127 95.9533 98.598 95.636C99.0833 95.3187 99.6433 95.16 100.278 95.16ZM104.888 93.046C104.888 92.7753 104.982 92.5513 105.168 92.374C105.355 92.1967 105.602 92.108 105.91 92.108C106.218 92.108 106.466 92.1967 106.652 92.374C106.848 92.5513 106.946 92.7753 106.946 93.046C106.946 93.3167 106.848 93.536 106.652 93.704C106.466 93.872 106.218 93.956 105.91 93.956C105.602 93.956 105.355 93.872 105.168 93.704C104.982 93.536 104.888 93.3167 104.888 93.046ZM106.708 95.286V103H105.112V95.286H106.708ZM111.174 95.188C112.079 95.188 112.802 95.4213 113.344 95.888C113.894 96.3453 114.23 96.9613 114.352 97.736H112.84C112.774 97.316 112.592 96.98 112.294 96.728C112.004 96.4667 111.617 96.336 111.132 96.336C110.73 96.336 110.418 96.434 110.194 96.63C109.979 96.8167 109.872 97.0733 109.872 97.4C109.872 97.6427 109.951 97.8387 110.11 97.988C110.268 98.1373 110.464 98.254 110.698 98.338C110.94 98.422 111.281 98.5153 111.72 98.618C112.298 98.7487 112.765 98.884 113.12 99.024C113.484 99.164 113.792 99.388 114.044 99.696C114.305 99.9947 114.436 100.405 114.436 100.928C114.436 101.572 114.188 102.095 113.694 102.496C113.208 102.897 112.55 103.098 111.72 103.098C110.758 103.098 109.979 102.874 109.382 102.426C108.794 101.978 108.439 101.353 108.318 100.55H109.872C109.918 100.97 110.105 101.311 110.432 101.572C110.758 101.833 111.188 101.964 111.72 101.964C112.102 101.964 112.401 101.866 112.616 101.67C112.84 101.465 112.952 101.208 112.952 100.9C112.952 100.629 112.868 100.415 112.7 100.256C112.532 100.097 112.322 99.976 112.07 99.892C111.818 99.7987 111.472 99.7053 111.034 99.612C110.474 99.4813 110.016 99.3507 109.662 99.22C109.316 99.0893 109.018 98.8793 108.766 98.59C108.523 98.2913 108.402 97.89 108.402 97.386C108.402 96.7327 108.644 96.2053 109.13 95.804C109.624 95.3933 110.306 95.188 111.174 95.188ZM128.964 95.16C129.878 95.16 130.606 95.4493 131.148 96.028C131.698 96.6067 131.974 97.4327 131.974 98.506V103H130.378V98.674C130.378 98.002 130.21 97.484 129.874 97.12C129.538 96.7467 129.076 96.56 128.488 96.56C127.862 96.56 127.363 96.7607 126.99 97.162C126.626 97.554 126.444 98.1327 126.444 98.898V103H124.848V98.674C124.848 98.002 124.68 97.484 124.344 97.12C124.008 96.7467 123.546 96.56 122.958 96.56C122.332 96.56 121.833 96.7607 121.46 97.162C121.096 97.554 120.914 98.1327 120.914 98.898V103H119.318V95.286H120.914V96.896C121.11 96.336 121.436 95.9067 121.894 95.608C122.351 95.3093 122.888 95.16 123.504 95.16C124.148 95.16 124.703 95.3187 125.17 95.636C125.646 95.9533 125.991 96.4107 126.206 97.008C126.43 96.4293 126.789 95.9767 127.284 95.65C127.778 95.3233 128.338 95.16 128.964 95.16ZM137.365 95.188C138.112 95.188 138.784 95.3467 139.381 95.664C139.978 95.9813 140.445 96.4387 140.781 97.036C141.117 97.6333 141.285 98.3333 141.285 99.136C141.285 99.948 141.117 100.653 140.781 101.25C140.445 101.847 139.978 102.305 139.381 102.622C138.784 102.939 138.112 103.098 137.365 103.098C136.618 103.098 135.946 102.939 135.349 102.622C134.761 102.305 134.294 101.847 133.949 101.25C133.613 100.643 133.445 99.9387 133.445 99.136C133.445 98.3333 133.613 97.6333 133.949 97.036C134.294 96.4387 134.761 95.9813 135.349 95.664C135.946 95.3467 136.618 95.188 137.365 95.188ZM137.365 96.574C136.954 96.574 136.576 96.6673 136.231 96.854C135.886 97.0407 135.606 97.33 135.391 97.722C135.186 98.1047 135.083 98.576 135.083 99.136C135.083 99.7053 135.186 100.181 135.391 100.564C135.606 100.947 135.886 101.231 136.231 101.418C136.576 101.605 136.954 101.698 137.365 101.698C137.776 101.698 138.154 101.605 138.499 101.418C138.844 101.231 139.12 100.947 139.325 100.564C139.54 100.181 139.647 99.7053 139.647 99.136C139.647 98.576 139.54 98.1047 139.325 97.722C139.12 97.33 138.844 97.0407 138.499 96.854C138.154 96.6673 137.776 96.574 137.365 96.574ZM146.698 101.614V103H145.718C144.896 103 144.271 102.804 143.842 102.412C143.422 102.011 143.212 101.348 143.212 100.424V96.644H142.106V95.286H143.212V93.368H144.822V95.286H146.684V96.644H144.822V100.452C144.822 100.891 144.901 101.194 145.06 101.362C145.228 101.53 145.517 101.614 145.928 101.614H146.698ZM152.505 95.16C153.401 95.16 154.119 95.4493 154.661 96.028C155.202 96.6067 155.473 97.4327 155.473 98.506V103H153.877V98.674C153.877 97.9833 153.699 97.4513 153.345 97.078C152.99 96.6953 152.505 96.504 151.889 96.504C151.254 96.504 150.745 96.7093 150.363 97.12C149.98 97.5213 149.789 98.114 149.789 98.898V103H148.193V92.64H149.789V96.98C149.994 96.4013 150.339 95.9533 150.825 95.636C151.31 95.3187 151.87 95.16 152.505 95.16ZM164.507 98.772C164.507 99.0333 164.488 99.262 164.451 99.458H158.515C158.543 100.251 158.762 100.839 159.173 101.222C159.584 101.605 160.092 101.796 160.699 101.796C161.231 101.796 161.679 101.661 162.043 101.39C162.416 101.119 162.645 100.76 162.729 100.312H164.437C164.334 100.853 164.12 101.334 163.793 101.754C163.466 102.174 163.042 102.505 162.519 102.748C161.996 102.981 161.413 103.098 160.769 103.098C160.022 103.098 159.36 102.939 158.781 102.622C158.212 102.305 157.764 101.847 157.437 101.25C157.11 100.653 156.947 99.948 156.947 99.136C156.947 98.3333 157.11 97.6333 157.437 97.036C157.764 96.4387 158.212 95.9813 158.781 95.664C159.36 95.3467 160.022 95.188 160.769 95.188C161.525 95.188 162.183 95.3467 162.743 95.664C163.312 95.972 163.746 96.4013 164.045 96.952C164.353 97.4933 164.507 98.1 164.507 98.772ZM162.897 98.73C162.916 98.226 162.827 97.806 162.631 97.47C162.444 97.1247 162.183 96.8727 161.847 96.714C161.52 96.546 161.161 96.462 160.769 96.462C160.144 96.462 159.621 96.6533 159.201 97.036C158.781 97.4187 158.552 97.9833 158.515 98.73H162.897ZM167.644 96.798C167.905 96.294 168.279 95.8973 168.764 95.608C169.249 95.3093 169.809 95.16 170.444 95.16V96.896H169.968C169.268 96.896 168.703 97.0687 168.274 97.414C167.854 97.75 167.644 98.31 167.644 99.094V103H166.048V95.286H167.644V96.798ZM177.455 95.188C178.36 95.188 179.084 95.4213 179.625 95.888C180.176 96.3453 180.512 96.9613 180.633 97.736H179.121C179.056 97.316 178.874 96.98 178.575 96.728C178.286 96.4667 177.898 96.336 177.413 96.336C177.012 96.336 176.699 96.434 176.475 96.63C176.26 96.8167 176.153 97.0733 176.153 97.4C176.153 97.6427 176.232 97.8387 176.391 97.988C176.55 98.1373 176.746 98.254 176.979 98.338C177.222 98.422 177.562 98.5153 178.001 98.618C178.58 98.7487 179.046 98.884 179.401 99.024C179.765 99.164 180.073 99.388 180.325 99.696C180.586 99.9947 180.717 100.405 180.717 100.928C180.717 101.572 180.47 102.095 179.975 102.496C179.49 102.897 178.832 103.098 178.001 103.098C177.04 103.098 176.26 102.874 175.663 102.426C175.075 101.978 174.72 101.353 174.599 100.55H176.153C176.2 100.97 176.386 101.311 176.713 101.572C177.04 101.833 177.469 101.964 178.001 101.964C178.384 101.964 178.682 101.866 178.897 101.67C179.121 101.465 179.233 101.208 179.233 100.9C179.233 100.629 179.149 100.415 178.981 100.256C178.813 100.097 178.603 99.976 178.351 99.892C178.099 99.7987 177.754 99.7053 177.315 99.612C176.755 99.4813 176.298 99.3507 175.943 99.22C175.598 99.0893 175.299 98.8793 175.047 98.59C174.804 98.2913 174.683 97.89 174.683 97.386C174.683 96.7327 174.926 96.2053 175.411 95.804C175.906 95.3933 176.587 95.188 177.455 95.188ZM182.094 93.046C182.094 92.7753 182.187 92.5513 182.374 92.374C182.56 92.1967 182.808 92.108 183.116 92.108C183.424 92.108 183.671 92.1967 183.858 92.374C184.054 92.5513 184.152 92.7753 184.152 93.046C184.152 93.3167 184.054 93.536 183.858 93.704C183.671 93.872 183.424 93.956 183.116 93.956C182.808 93.956 182.56 93.872 182.374 93.704C182.187 93.536 182.094 93.3167 182.094 93.046ZM183.914 95.286V103H182.318V95.286H183.914ZM190.157 95.16C191.053 95.16 191.772 95.4493 192.313 96.028C192.854 96.6067 193.125 97.4327 193.125 98.506V103H191.529V98.674C191.529 97.9833 191.352 97.4513 190.997 97.078C190.642 96.6953 190.157 96.504 189.541 96.504C188.906 96.504 188.398 96.7093 188.015 97.12C187.632 97.5213 187.441 98.114 187.441 98.898V103H185.845V95.286H187.441V96.98C187.646 96.4013 187.992 95.9533 188.477 95.636C188.962 95.3187 189.522 95.16 190.157 95.16ZM198.421 95.188C199.42 95.188 200.246 95.454 200.899 95.986C201.553 96.5087 201.959 97.2227 202.117 98.128H200.423C200.33 97.6427 200.101 97.2647 199.737 96.994C199.383 96.714 198.935 96.574 198.393 96.574C197.777 96.574 197.264 96.7933 196.853 97.232C196.443 97.6613 196.237 98.296 196.237 99.136C196.237 99.976 196.443 100.615 196.853 101.054C197.264 101.493 197.777 101.712 198.393 101.712C198.935 101.712 199.383 101.572 199.737 101.292C200.101 101.012 200.33 100.629 200.423 100.144H202.117C201.959 101.049 201.553 101.768 200.899 102.3C200.246 102.832 199.42 103.098 198.421 103.098C197.675 103.098 197.012 102.939 196.433 102.622C195.864 102.305 195.416 101.847 195.089 101.25C194.763 100.653 194.599 99.948 194.599 99.136C194.599 98.3333 194.763 97.6333 195.089 97.036C195.416 96.4387 195.864 95.9813 196.433 95.664C197.012 95.3467 197.675 95.188 198.421 95.188ZM210.827 98.772C210.827 99.0333 210.809 99.262 210.771 99.458H204.835C204.863 100.251 205.083 100.839 205.493 101.222C205.904 101.605 206.413 101.796 207.019 101.796C207.551 101.796 207.999 101.661 208.363 101.39C208.737 101.119 208.965 100.76 209.049 100.312H210.757C210.655 100.853 210.44 101.334 210.113 101.754C209.787 102.174 209.362 102.505 208.839 102.748C208.317 102.981 207.733 103.098 207.089 103.098C206.343 103.098 205.68 102.939 205.101 102.622C204.532 102.305 204.084 101.847 203.757 101.25C203.431 100.653 203.267 99.948 203.267 99.136C203.267 98.3333 203.431 97.6333 203.757 97.036C204.084 96.4387 204.532 95.9813 205.101 95.664C205.68 95.3467 206.343 95.188 207.089 95.188C207.845 95.188 208.503 95.3467 209.063 95.664C209.633 95.972 210.067 96.4013 210.365 96.952C210.673 97.4933 210.827 98.1 210.827 98.772ZM209.217 98.73C209.236 98.226 209.147 97.806 208.951 97.47C208.765 97.1247 208.503 96.8727 208.167 96.714C207.841 96.546 207.481 96.462 207.089 96.462C206.464 96.462 205.941 96.6533 205.521 97.036C205.101 97.4187 204.873 97.9833 204.835 98.73H209.217ZM217.246 96.798C217.507 96.294 217.88 95.8973 218.366 95.608C218.851 95.3093 219.411 95.16 220.046 95.16V96.896H219.57C218.87 96.896 218.305 97.0687 217.876 97.414C217.456 97.75 217.246 98.31 217.246 99.094V103H215.65V95.286H217.246V96.798ZM228.409 98.772C228.409 99.0333 228.391 99.262 228.353 99.458H222.417C222.445 100.251 222.665 100.839 223.075 101.222C223.486 101.605 223.995 101.796 224.601 101.796C225.133 101.796 225.581 101.661 225.945 101.39C226.319 101.119 226.547 100.76 226.631 100.312H228.339C228.237 100.853 228.022 101.334 227.695 101.754C227.369 102.174 226.944 102.505 226.421 102.748C225.899 102.981 225.315 103.098 224.671 103.098C223.925 103.098 223.262 102.939 222.683 102.622C222.114 102.305 221.666 101.847 221.339 101.25C221.013 100.653 220.849 99.948 220.849 99.136C220.849 98.3333 221.013 97.6333 221.339 97.036C221.666 96.4387 222.114 95.9813 222.683 95.664C223.262 95.3467 223.925 95.188 224.671 95.188C225.427 95.188 226.085 95.3467 226.645 95.664C227.215 95.972 227.649 96.4013 227.947 96.952C228.255 97.4933 228.409 98.1 228.409 98.772ZM226.799 98.73C226.818 98.226 226.729 97.806 226.533 97.47C226.347 97.1247 226.085 96.8727 225.749 96.714C225.423 96.546 225.063 96.462 224.671 96.462C224.046 96.462 223.523 96.6533 223.103 97.036C222.683 97.4187 222.455 97.9833 222.417 98.73H226.799ZM233.044 95.188C233.744 95.188 234.342 95.3607 234.836 95.706C235.331 96.0513 235.681 96.5087 235.886 97.078V95.286H237.482V103H235.886V101.208C235.681 101.777 235.331 102.235 234.836 102.58C234.342 102.925 233.744 103.098 233.044 103.098C232.372 103.098 231.77 102.939 231.238 102.622C230.716 102.305 230.305 101.847 230.006 101.25C229.708 100.653 229.558 99.948 229.558 99.136C229.558 98.3333 229.708 97.6333 230.006 97.036C230.305 96.4387 230.716 95.9813 231.238 95.664C231.77 95.3467 232.372 95.188 233.044 95.188ZM233.534 96.588C232.825 96.588 232.256 96.8167 231.826 97.274C231.406 97.722 231.196 98.3427 231.196 99.136C231.196 99.9293 231.406 100.555 231.826 101.012C232.256 101.46 232.825 101.684 233.534 101.684C233.982 101.684 234.384 101.581 234.738 101.376C235.093 101.161 235.373 100.863 235.578 100.48C235.784 100.097 235.886 99.6493 235.886 99.136C235.886 98.632 235.784 98.1887 235.578 97.806C235.373 97.414 235.093 97.1153 234.738 96.91C234.384 96.6953 233.982 96.588 233.534 96.588ZM240.994 92.64V103H239.398V92.64H240.994ZM250.518 95.16C251.414 95.16 252.133 95.4493 252.674 96.028C253.216 96.6067 253.486 97.4327 253.486 98.506V103H251.89V98.674C251.89 97.9833 251.713 97.4513 251.358 97.078C251.004 96.6953 250.518 96.504 249.902 96.504C249.268 96.504 248.759 96.7093 248.376 97.12C247.994 97.5213 247.802 98.114 247.802 98.898V103H246.206V92.64H247.802V96.98C248.008 96.4013 248.353 95.9533 248.838 95.636C249.324 95.3187 249.884 95.16 250.518 95.16ZM258.447 95.188C259.147 95.188 259.744 95.3607 260.239 95.706C260.733 96.0513 261.083 96.5087 261.289 97.078V95.286H262.885V103H261.289V101.208C261.083 101.777 260.733 102.235 260.239 102.58C259.744 102.925 259.147 103.098 258.447 103.098C257.775 103.098 257.173 102.939 256.641 102.622C256.118 102.305 255.707 101.847 255.409 101.25C255.11 100.653 254.961 99.948 254.961 99.136C254.961 98.3333 255.11 97.6333 255.409 97.036C255.707 96.4387 256.118 95.9813 256.641 95.664C257.173 95.3467 257.775 95.188 258.447 95.188ZM258.937 96.588C258.227 96.588 257.658 96.8167 257.229 97.274C256.809 97.722 256.599 98.3427 256.599 99.136C256.599 99.9293 256.809 100.555 257.229 101.012C257.658 101.46 258.227 101.684 258.937 101.684C259.385 101.684 259.786 101.581 260.141 101.376C260.495 101.161 260.775 100.863 260.981 100.48C261.186 100.097 261.289 99.6493 261.289 99.136C261.289 98.632 261.186 98.1887 260.981 97.806C260.775 97.414 260.495 97.1153 260.141 96.91C259.786 96.6953 259.385 96.588 258.937 96.588ZM267.894 95.188C268.594 95.188 269.191 95.3607 269.686 95.706C270.181 96.0513 270.526 96.5087 270.722 97.078V92.64H272.332V103H270.722V101.208C270.526 101.777 270.181 102.235 269.686 102.58C269.191 102.925 268.594 103.098 267.894 103.098C267.222 103.098 266.62 102.939 266.088 102.622C265.565 102.305 265.155 101.847 264.856 101.25C264.557 100.653 264.408 99.948 264.408 99.136C264.408 98.3333 264.557 97.6333 264.856 97.036C265.155 96.4387 265.565 95.9813 266.088 95.664C266.62 95.3467 267.222 95.188 267.894 95.188ZM268.384 96.588C267.675 96.588 267.105 96.8167 266.676 97.274C266.256 97.722 266.046 98.3427 266.046 99.136C266.046 99.9293 266.256 100.555 266.676 101.012C267.105 101.46 267.675 101.684 268.384 101.684C268.832 101.684 269.233 101.581 269.588 101.376C269.943 101.161 270.223 100.863 270.428 100.48C270.633 100.097 270.736 99.6493 270.736 99.136C270.736 98.632 270.633 98.1887 270.428 97.806C270.223 97.414 269.943 97.1153 269.588 96.91C269.233 96.6953 268.832 96.588 268.384 96.588ZM281.841 95.16C282.737 95.16 283.455 95.4493 283.997 96.028C284.538 96.6067 284.809 97.4327 284.809 98.506V103H283.213V98.674C283.213 97.9833 283.035 97.4513 282.681 97.078C282.326 96.6953 281.841 96.504 281.225 96.504C280.59 96.504 280.081 96.7093 279.699 97.12C279.316 97.5213 279.125 98.114 279.125 98.898V103H277.529V92.64H279.125V96.98C279.33 96.4013 279.675 95.9533 280.16 95.636C280.646 95.3187 281.206 95.16 281.841 95.16ZM289.769 95.188C290.469 95.188 291.066 95.3607 291.561 95.706C292.056 96.0513 292.406 96.5087 292.611 97.078V95.286H294.207V103H292.611V101.208C292.406 101.777 292.056 102.235 291.561 102.58C291.066 102.925 290.469 103.098 289.769 103.098C289.097 103.098 288.495 102.939 287.963 102.622C287.44 102.305 287.03 101.847 286.731 101.25C286.432 100.653 286.283 99.948 286.283 99.136C286.283 98.3333 286.432 97.6333 286.731 97.036C287.03 96.4387 287.44 95.9813 287.963 95.664C288.495 95.3467 289.097 95.188 289.769 95.188ZM290.259 96.588C289.55 96.588 288.98 96.8167 288.551 97.274C288.131 97.722 287.921 98.3427 287.921 99.136C287.921 99.9293 288.131 100.555 288.551 101.012C288.98 101.46 289.55 101.684 290.259 101.684C290.707 101.684 291.108 101.581 291.463 101.376C291.818 101.161 292.098 100.863 292.303 100.48C292.508 100.097 292.611 99.6493 292.611 99.136C292.611 98.632 292.508 98.1887 292.303 97.806C292.098 97.414 291.818 97.1153 291.463 96.91C291.108 96.6953 290.707 96.588 290.259 96.588ZM297.718 92.64V103H296.122V92.64H297.718ZM303.248 93.69C302.622 93.662 302.184 93.7647 301.932 93.998C301.68 94.222 301.554 94.6093 301.554 95.16V95.286H303.248V96.658H301.554V103H299.944V96.658H298.894V95.286H299.944V95.034C299.944 94.0913 300.219 93.3867 300.77 92.92C301.32 92.444 302.146 92.234 303.248 92.29V93.69ZM314.98 98.772C314.98 99.0333 314.961 99.262 314.924 99.458H308.988C309.016 100.251 309.235 100.839 309.646 101.222C310.056 101.605 310.565 101.796 311.172 101.796C311.704 101.796 312.152 101.661 312.516 101.39C312.889 101.119 313.118 100.76 313.202 100.312H314.91C314.807 100.853 314.592 101.334 314.266 101.754C313.939 102.174 313.514 102.505 312.992 102.748C312.469 102.981 311.886 103.098 311.242 103.098C310.495 103.098 309.832 102.939 309.254 102.622C308.684 102.305 308.236 101.847 307.91 101.25C307.583 100.653 307.42 99.948 307.42 99.136C307.42 98.3333 307.583 97.6333 307.91 97.036C308.236 96.4387 308.684 95.9813 309.254 95.664C309.832 95.3467 310.495 95.188 311.242 95.188C311.998 95.188 312.656 95.3467 313.216 95.664C313.785 95.972 314.219 96.4013 314.518 96.952C314.826 97.4933 314.98 98.1 314.98 98.772ZM313.37 98.73C313.388 98.226 313.3 97.806 313.104 97.47C312.917 97.1247 312.656 96.8727 312.32 96.714C311.993 96.546 311.634 96.462 311.242 96.462C310.616 96.462 310.094 96.6533 309.674 97.036C309.254 97.4187 309.025 97.9833 308.988 98.73H313.37ZM319.685 101.348L321.869 95.286H323.577L320.637 103H318.705L315.765 95.286H317.473L319.685 101.348ZM331.919 98.772C331.919 99.0333 331.9 99.262 331.863 99.458H325.927C325.955 100.251 326.174 100.839 326.585 101.222C326.996 101.605 327.504 101.796 328.111 101.796C328.643 101.796 329.091 101.661 329.455 101.39C329.828 101.119 330.057 100.76 330.141 100.312H331.849C331.746 100.853 331.532 101.334 331.205 101.754C330.878 102.174 330.454 102.505 329.931 102.748C329.408 102.981 328.825 103.098 328.181 103.098C327.434 103.098 326.772 102.939 326.193 102.622C325.624 102.305 325.176 101.847 324.849 101.25C324.522 100.653 324.359 99.948 324.359 99.136C324.359 98.3333 324.522 97.6333 324.849 97.036C325.176 96.4387 325.624 95.9813 326.193 95.664C326.772 95.3467 327.434 95.188 328.181 95.188C328.937 95.188 329.595 95.3467 330.155 95.664C330.724 95.972 331.158 96.4013 331.457 96.952C331.765 97.4933 331.919 98.1 331.919 98.772ZM330.309 98.73C330.328 98.226 330.239 97.806 330.043 97.47C329.856 97.1247 329.595 96.8727 329.259 96.714C328.932 96.546 328.573 96.462 328.181 96.462C327.556 96.462 327.033 96.6533 326.613 97.036C326.193 97.4187 325.964 97.9833 325.927 98.73H330.309ZM335.056 96.798C335.317 96.294 335.691 95.8973 336.176 95.608C336.661 95.3093 337.221 95.16 337.856 95.16V96.896H337.38C336.68 96.896 336.115 97.0687 335.686 97.414C335.266 97.75 335.056 98.31 335.056 99.094V103H333.46V95.286H335.056V96.798ZM339.962 95.286L342.272 100.956L344.414 95.286H346.192L341.53 106.668H339.752L341.418 102.818L338.17 95.286H339.962ZM354.835 95.16C355.731 95.16 356.449 95.4493 356.991 96.028C357.532 96.6067 357.803 97.4327 357.803 98.506V103H356.207V98.674C356.207 97.9833 356.029 97.4513 355.675 97.078C355.32 96.6953 354.835 96.504 354.219 96.504C353.584 96.504 353.075 96.7093 352.693 97.12C352.31 97.5213 352.119 98.114 352.119 98.898V103H350.523V92.64H352.119V96.98C352.324 96.4013 352.669 95.9533 353.155 95.636C353.64 95.3187 354.2 95.16 354.835 95.16ZM359.445 93.046C359.445 92.7753 359.538 92.5513 359.725 92.374C359.912 92.1967 360.159 92.108 360.467 92.108C360.775 92.108 361.022 92.1967 361.209 92.374C361.405 92.5513 361.503 92.7753 361.503 93.046C361.503 93.3167 361.405 93.536 361.209 93.704C361.022 93.872 360.775 93.956 360.467 93.956C360.159 93.956 359.912 93.872 359.725 93.704C359.538 93.536 359.445 93.3167 359.445 93.046ZM361.265 95.286V103H359.669V95.286H361.265ZM372.842 95.16C373.757 95.16 374.485 95.4493 375.026 96.028C375.577 96.6067 375.852 97.4327 375.852 98.506V103H374.256V98.674C374.256 98.002 374.088 97.484 373.752 97.12C373.416 96.7467 372.954 96.56 372.366 96.56C371.741 96.56 371.242 96.7607 370.868 97.162C370.504 97.554 370.322 98.1327 370.322 98.898V103H368.726V98.674C368.726 98.002 368.558 97.484 368.222 97.12C367.886 96.7467 367.424 96.56 366.836 96.56C366.211 96.56 365.712 96.7607 365.338 97.162C364.974 97.554 364.792 98.1327 364.792 98.898V103H363.196V95.286H364.792V96.896C364.988 96.336 365.315 95.9067 365.772 95.608C366.23 95.3093 366.766 95.16 367.382 95.16C368.026 95.16 368.582 95.3187 369.048 95.636C369.524 95.9533 369.87 96.4107 370.084 97.008C370.308 96.4293 370.668 95.9767 371.162 95.65C371.657 95.3233 372.217 95.16 372.842 95.16ZM378.976 101.236V103H377.17V101.236H378.976Z" fill="#5D5F6D"/>
<circle opacity="0.5" cx="55.5" cy="55.5" r="23.5" fill="#FFE6D2"/>
<g clip-path="url(#clip0_1_2097)">
<path d="M66.9714 44.7918C66.9194 43.8384 66.1612 43.0803 65.2079 43.0283C63.2842 42.9232 59.52 43.0254 55.9205 44.8872C54.0856 45.8363 52.145 47.4455 50.5963 49.3021C50.5772 49.325 50.5586 49.348 50.5397 49.3709L47.025 49.6424C46.4465 49.6871 45.9312 49.9904 45.6112 50.4743L43.2134 54.1011C42.9707 54.4681 42.9321 54.9275 43.1101 55.3298C43.2881 55.7322 43.6539 56.0126 44.0887 56.0799L47.0499 56.5386C47.0394 56.5961 47.0289 56.6536 47.0193 56.7112C46.9207 57.3009 47.1161 57.9072 47.542 58.333L51.6666 62.4577C52.0197 62.8108 52.4969 63.0055 52.9858 63.0055C53.0865 63.0055 53.1877 62.9972 53.2885 62.9804C53.3461 62.9707 53.4036 62.9602 53.4611 62.9498L53.9198 65.911C53.9871 66.3457 54.2675 66.7116 54.6698 66.8896C54.8372 66.9636 55.0143 67.0002 55.1907 67.0002C55.4383 67.0002 55.6842 66.9281 55.8985 66.7864L59.5254 64.3885C60.0093 64.0685 60.3125 63.5532 60.3571 62.9747L60.6286 59.46C60.6516 59.4411 60.6746 59.4225 60.6975 59.4035C62.5542 57.8548 64.1634 55.9141 65.1125 54.0792C66.9743 50.4796 67.0764 46.7153 66.9714 44.7918ZM58.7498 63.2154L55.2805 65.5091L54.8335 62.6233C56.2998 62.1921 57.7502 61.5017 59.1321 60.5767L58.9552 62.8663C58.9442 63.0091 58.8693 63.1364 58.7498 63.2154ZM52.661 61.4633L48.5363 57.3387C48.4311 57.2334 48.3824 57.0855 48.4063 56.943C48.5289 56.2098 48.7194 55.5118 48.9553 54.8542L55.1441 61.043C54.3544 61.3259 53.647 61.4946 53.0566 61.5934C52.9139 61.6171 52.7662 61.5686 52.661 61.4633ZM47.1333 51.0445L49.4229 50.8676C48.4979 52.2494 47.8074 53.6999 47.3763 55.1661L44.4905 54.7192L46.7843 51.2499C46.8633 51.1304 46.9906 51.0555 47.1333 51.0445ZM59.7969 58.3235C58.6609 59.271 57.5583 59.9563 56.5419 60.4522L49.5472 53.4575C50.1968 52.1307 50.9896 51.0259 51.6761 50.2029C53.1093 48.4847 54.8919 47.0024 56.5666 46.1362C59.8701 44.4275 63.3506 44.3354 65.1313 44.4324C65.367 44.4452 65.5545 44.6327 65.5673 44.8684C65.6644 46.6491 65.5722 50.1296 63.8634 53.4331C62.9972 55.1078 61.515 56.8903 59.7969 58.3235Z" fill="#FFA155"/>
<path d="M59.4398 54.0739C60.3399 54.0738 61.2404 53.7311 61.9257 53.0458C62.5897 52.3819 62.9553 51.499 62.9553 50.56C62.9553 49.621 62.5897 48.7382 61.9257 48.0742C60.555 46.7034 58.3246 46.7035 56.954 48.0742C56.29 48.7382 55.9243 49.621 55.9243 50.56C55.9243 51.499 56.29 52.3819 56.954 53.0458C57.6394 53.7312 58.5394 54.0739 59.4398 54.0739ZM57.9483 49.0685C58.3595 48.6573 58.8996 48.4517 59.4398 48.4517C59.9799 48.4517 60.5201 48.6573 60.9313 49.0685C61.3297 49.4669 61.549 49.9966 61.549 50.56C61.549 51.1234 61.3297 51.6531 60.9313 52.0515C60.1089 52.8739 58.7707 52.8739 57.9482 52.0515C57.5498 51.6531 57.3304 51.1234 57.3304 50.56C57.3304 49.9966 57.5499 49.4669 57.9483 49.0685Z" fill="#444CFC"/>
<path d="M43.7173 62.7783C43.8972 62.7783 44.0772 62.7097 44.2144 62.5723L46.51 60.2767C46.7846 60.0021 46.7846 59.557 46.51 59.2824C46.2355 59.0078 45.7903 59.0078 45.5157 59.2824L43.2201 61.578C42.9455 61.8526 42.9455 62.2977 43.2201 62.5723C43.3574 62.7096 43.5373 62.7783 43.7173 62.7783Z" fill="#FFA155"/>
<path d="M48.6138 61.3862C48.3392 61.1116 47.894 61.1116 47.6194 61.3862L43.2059 65.7998C42.9314 66.0744 42.9314 66.5195 43.2059 66.7941C43.3432 66.9314 43.5231 67 43.7031 67C43.8831 67 44.063 66.9314 44.2003 66.7941L48.6137 62.3806C48.8884 62.106 48.8884 61.6608 48.6138 61.3862Z" fill="#FFA155"/>
<path d="M49.7232 63.49L47.4276 65.7856C47.153 66.0602 47.153 66.5054 47.4276 66.78C47.5649 66.9173 47.7449 66.9859 47.9248 66.9859C48.1047 66.9859 48.2847 66.9173 48.4219 66.78L50.7175 64.4844C50.9921 64.2098 50.9921 63.7646 50.7175 63.49C50.443 63.2154 49.9978 63.2154 49.7232 63.49Z" fill="#FFA155"/>
</g>
<defs>
<clipPath id="clip0_1_2097">
<rect width="24" height="24" fill="white" transform="translate(43 43)"/>
</clipPath>
</defs>
</svg>
