<svg width="1280" height="106" viewBox="0 0 1280 106" fill="none" xmlns="http://www.w3.org/2000/svg">
<g opacity="0.8">
<path d="M946.019 60.6854C945.396 60.719 944.781 60.5431 944.272 60.1862C944.059 60.0294 943.887 59.8234 943.773 59.586C943.658 59.3487 943.603 59.0871 943.612 58.8238V49.183C943.607 49.1422 943.612 49.1008 943.625 49.0619C943.639 49.023 943.661 48.9877 943.69 48.9586C943.719 48.9295 943.755 48.9074 943.794 48.8941C943.833 48.8807 943.875 48.8764 943.916 48.8814H945.674C945.872 48.8814 945.966 48.9854 945.966 49.183V58.075C945.966 58.4702 946.144 58.6678 946.51 58.6678C946.666 58.6742 946.821 58.6567 946.971 58.6158C947.18 58.6158 947.295 58.6782 947.306 58.8654L947.463 60.1654C947.47 60.2033 947.469 60.2424 947.46 60.28C947.452 60.3176 947.435 60.3529 947.411 60.3834C947.387 60.414 947.357 60.4391 947.323 60.4571C947.288 60.4751 947.25 60.4856 947.211 60.4878C946.826 60.6143 946.424 60.6809 946.019 60.6854Z" fill="white" fill-opacity="0.45"/>
<path d="M955.906 59.5728C955.022 60.2982 953.913 60.695 952.767 60.695C951.621 60.695 950.511 60.2982 949.628 59.5728C948.852 58.7938 948.417 57.7417 948.417 56.6452C948.417 55.5487 948.852 54.4966 949.628 53.7176C950.513 52.996 951.622 52.6016 952.767 52.6016C953.912 52.6016 955.021 52.996 955.906 53.7176C956.664 54.5037 957.087 55.5508 957.087 56.64C957.087 57.7292 956.664 58.7762 955.906 59.5624V59.5728ZM951.281 58.2C951.691 58.569 952.224 58.7734 952.777 58.7734C953.33 58.7734 953.864 58.569 954.274 58.2C954.645 57.776 954.849 57.2331 954.849 56.6712C954.849 56.1093 954.645 55.5664 954.274 55.1424C953.864 54.7733 953.33 54.5689 952.777 54.5689C952.224 54.5689 951.691 54.7733 951.281 55.1424C950.91 55.5664 950.706 56.1093 950.706 56.6712C950.706 57.2331 950.91 57.776 951.281 58.2Z" fill="white" fill-opacity="0.45"/>
<path d="M966.765 52.8648C966.964 52.8648 967.058 52.9688 967.058 53.1664V60.6232C967.077 61.1265 966.982 61.6275 966.781 62.0899C966.58 62.5522 966.278 62.9642 965.897 63.296C965.051 64.0131 963.963 64.3847 962.852 64.336C961.849 64.3711 960.859 64.0988 960.017 63.556C959.657 63.3212 959.35 63.0154 959.114 62.6576C958.879 62.2998 958.719 61.8976 958.646 61.476C958.646 61.268 958.646 61.1744 958.929 61.1744H960.687C960.761 61.177 960.834 61.2009 960.895 61.2433C960.956 61.2858 961.004 61.3449 961.032 61.4136C961.146 61.7295 961.373 61.9924 961.67 62.152C962.032 62.3376 962.435 62.4306 962.842 62.4224C963.088 62.4358 963.333 62.4004 963.565 62.3182C963.797 62.2361 964.01 62.1089 964.192 61.944C964.358 61.7716 964.487 61.5675 964.571 61.344C964.656 61.1206 964.694 60.8825 964.683 60.644V59.9888C964.054 60.449 963.288 60.6869 962.507 60.6648C961.961 60.6846 961.416 60.5944 960.905 60.3996C960.394 60.2048 959.929 59.9094 959.536 59.5312C958.781 58.7555 958.36 57.7189 958.36 56.64C958.36 55.5612 958.781 54.5245 959.536 53.7488C959.931 53.374 960.397 53.0815 960.907 52.8886C961.418 52.6957 961.961 52.6063 962.507 52.6256C963.311 52.6045 964.097 52.8578 964.736 53.3432V53.1768C964.731 53.137 964.735 53.0966 964.748 53.0585C964.761 53.0205 964.782 52.9857 964.81 52.9569C964.838 52.928 964.872 52.9057 964.91 52.8916C964.948 52.8774 964.988 52.8719 965.029 52.8752L966.765 52.8648ZM962.706 58.8136C962.975 58.8219 963.244 58.7713 963.491 58.6652C963.739 58.5592 963.96 58.4004 964.139 58.2C964.487 57.7535 964.676 57.2048 964.676 56.64C964.676 56.0753 964.487 55.5266 964.139 55.08C963.961 54.8824 963.741 54.7259 963.495 54.6217C963.249 54.5175 962.983 54.4681 962.716 54.4768C962.444 54.4683 962.172 54.5188 961.921 54.6247C961.67 54.7307 961.445 54.8896 961.262 55.0904C960.877 55.5176 960.674 56.0772 960.697 56.6504C960.678 57.2181 960.876 57.7718 961.252 58.2C961.435 58.4004 961.66 58.5589 961.911 58.6648C962.162 58.7707 962.433 58.8215 962.706 58.8136Z" fill="white" fill-opacity="0.45"/>
<path d="M976.087 59.5727C975.202 60.2943 974.093 60.6887 972.948 60.6887C971.804 60.6887 970.695 60.2943 969.81 59.5727C969.051 58.7848 968.627 57.736 968.627 56.6451C968.627 55.5542 969.051 54.5054 969.81 53.7175C970.695 52.9977 971.804 52.6045 972.948 52.6045C974.093 52.6045 975.201 52.9977 976.087 53.7175C976.846 54.5036 977.269 55.5507 977.269 56.6399C977.269 57.7291 976.846 58.7761 976.087 59.5623V59.5727ZM971.452 58.1999C971.653 58.3895 971.889 58.5378 972.148 58.636C972.407 58.7341 972.682 58.7803 972.959 58.7719C973.234 58.779 973.508 58.7321 973.764 58.6339C974.021 58.5358 974.256 58.3883 974.455 58.1999C974.82 57.7731 975.02 57.2312 975.02 56.6711C975.02 56.111 974.82 55.5691 974.455 55.1423C974.256 54.9539 974.021 54.8064 973.764 54.7082C973.508 54.6101 973.234 54.5632 972.959 54.5703C972.682 54.5618 972.407 54.608 972.148 54.7062C971.889 54.8044 971.653 54.9526 971.452 55.1423C971.087 55.5691 970.887 56.111 970.887 56.6711C970.887 57.2312 971.087 57.7731 971.452 58.1999Z" fill="white" fill-opacity="0.45"/>
<path d="M981.047 51.0968C980.77 51.3374 980.415 51.4701 980.048 51.4701C979.68 51.4701 979.325 51.3374 979.048 51.0968C978.923 50.9792 978.823 50.8373 978.755 50.6799C978.687 50.5226 978.651 50.353 978.651 50.1816C978.651 50.0102 978.687 49.8406 978.755 49.6833C978.823 49.5259 978.923 49.384 979.048 49.2664C979.328 49.0318 979.682 48.9031 980.048 48.9031C980.413 48.9031 980.767 49.0318 981.047 49.2664C981.172 49.384 981.272 49.5259 981.34 49.6833C981.409 49.8406 981.444 50.0102 981.444 50.1816C981.444 50.353 981.409 50.5226 981.34 50.6799C981.272 50.8373 981.172 50.9792 981.047 51.0968ZM981.266 60.6856C980.645 60.7159 980.03 60.5403 979.519 60.1864C979.31 60.0272 979.141 59.8205 979.028 59.5835C978.916 59.3465 978.861 59.0861 978.871 58.824V53.1664C978.865 53.1256 978.87 53.0841 978.883 53.0453C978.897 53.0064 978.919 52.971 978.948 52.9419C978.977 52.9129 979.013 52.8908 979.052 52.8774C979.091 52.8641 979.133 52.8597 979.174 52.8648H980.932C981.13 52.8648 981.225 52.9688 981.225 53.1664V58.0752C981.225 58.4704 981.402 58.668 981.758 58.668C981.917 58.6737 982.075 58.6561 982.229 58.616C982.438 58.616 982.553 58.6784 982.564 58.8656L982.721 60.1656C982.728 60.2035 982.728 60.2426 982.719 60.2802C982.71 60.3178 982.693 60.353 982.669 60.3836C982.645 60.4141 982.615 60.4393 982.581 60.4573C982.546 60.4753 982.508 60.4858 982.47 60.488C982.081 60.6151 981.675 60.6818 981.266 60.6856Z" fill="white" fill-opacity="0.45"/>
<path d="M989.186 52.6152C989.735 52.5936 990.283 52.6819 990.797 52.8749C991.311 53.0678 991.781 53.3614 992.178 53.7384C992.918 54.5276 993.33 55.5664 993.33 56.6452C993.33 57.724 992.918 58.7627 992.178 59.552C991.783 59.9322 991.314 60.2287 990.799 60.4236C990.285 60.6184 989.736 60.7076 989.186 60.6856C988.403 60.7029 987.635 60.4655 987 60.0096V63.764C987 63.9616 986.895 64.0552 986.696 64.0552H984.938C984.898 64.0626 984.857 64.0602 984.818 64.0482C984.779 64.0362 984.744 64.015 984.715 63.9863C984.686 63.9576 984.665 63.9224 984.653 63.8836C984.64 63.8449 984.638 63.8038 984.646 63.764V55.236C984.658 55.1525 984.65 55.0674 984.624 54.9874C984.597 54.9074 984.552 54.8346 984.492 54.775C984.432 54.7154 984.359 54.6706 984.278 54.6441C984.198 54.6175 984.112 54.6101 984.028 54.6224H983.683C983.453 54.6224 983.338 54.5392 983.338 54.3728V53.1456C983.332 53.0696 983.353 52.9941 983.397 52.9317C983.441 52.8692 983.505 52.8236 983.578 52.8024C983.94 52.6716 984.323 52.6081 984.708 52.6152C985.092 52.5814 985.478 52.6623 985.815 52.8476C986.152 53.0329 986.426 53.3141 986.602 53.6552C986.939 53.3163 987.342 53.0493 987.786 52.8705C988.231 52.6917 988.707 52.6048 989.186 52.6152ZM987.554 58.2C987.741 58.3938 987.965 58.548 988.213 58.6534C988.461 58.7587 988.728 58.813 988.998 58.813C989.268 58.813 989.535 58.7587 989.783 58.6534C990.031 58.548 990.255 58.3938 990.442 58.2C990.835 57.7643 991.041 57.1934 991.017 56.6088C991.045 56.0236 990.838 55.4515 990.442 55.0176C990.255 54.8238 990.031 54.6695 989.783 54.5642C989.535 54.4588 989.268 54.4045 988.998 54.4045C988.728 54.4045 988.461 54.4588 988.213 54.5642C987.965 54.6695 987.741 54.8238 987.554 55.0176C987.173 55.4591 986.975 56.0277 987 56.6088C986.978 57.1893 987.176 57.7568 987.554 58.2Z" fill="white" fill-opacity="0.45"/>
<path d="M998.268 60.6855C997.328 60.7239 996.397 60.5005 995.579 60.0407C995.251 59.8441 994.971 59.5766 994.761 59.2579C994.551 58.9392 994.416 58.5776 994.365 58.1999C994.365 57.9919 994.438 57.8879 994.669 57.8879H996.207C996.28 57.8907 996.351 57.9136 996.412 57.954C996.473 57.9943 996.521 58.0507 996.552 58.1167C996.772 58.6783 997.347 58.9591 998.268 58.9591C998.589 58.9737 998.909 58.9094 999.199 58.7719C999.299 58.7269 999.385 58.6558 999.448 58.566C999.51 58.4763 999.547 58.3713 999.555 58.2623C999.555 57.9919 999.387 57.8047 999.052 57.6799C998.655 57.5485 998.245 57.4613 997.828 57.4199C997.335 57.3644 996.846 57.2775 996.364 57.1599C995.895 57.0544 995.468 56.8117 995.139 56.4631C994.946 56.2262 994.803 55.9521 994.721 55.6581C994.638 55.3641 994.617 55.0563 994.659 54.7539C994.702 54.4515 994.806 54.161 994.966 53.9004C995.126 53.6398 995.338 53.4147 995.589 53.2391C996.343 52.7616 997.228 52.529 998.121 52.5735C998.986 52.5444 999.841 52.757 1000.59 53.1871C1000.89 53.3571 1001.15 53.5918 1001.35 53.8743C1001.55 54.1568 1001.68 54.4798 1001.74 54.8199C1001.74 55.0279 1001.65 55.1319 1001.46 55.1319H999.91C999.845 55.1357 999.78 55.1199 999.724 55.0865C999.668 55.0531 999.624 55.0037 999.596 54.9447C999.493 54.6984 999.298 54.501 999.052 54.3935C998.775 54.2493 998.465 54.1777 998.153 54.1855C997.846 54.1689 997.54 54.2297 997.263 54.3623C997.166 54.3997 997.082 54.4652 997.022 54.5505C996.962 54.6358 996.93 54.7368 996.929 54.8407C996.935 54.9829 996.988 55.1193 997.078 55.2297C997.168 55.3401 997.292 55.4189 997.431 55.4543C997.832 55.6048 998.25 55.7095 998.676 55.7663C999.165 55.8303 999.651 55.9206 1000.13 56.0367C1000.6 56.1422 1001.03 56.3849 1001.35 56.7335C1001.53 56.9255 1001.67 57.1503 1001.75 57.3949C1001.84 57.6394 1001.88 57.8989 1001.87 58.1583C1001.88 58.5178 1001.79 58.8735 1001.62 59.1907C1001.45 59.5078 1001.2 59.7756 1000.89 59.9679C1000.11 60.4667 999.196 60.717 998.268 60.6855Z" fill="white" fill-opacity="0.45"/>
<path d="M1012.93 60.1655C1012.93 60.2025 1012.93 60.2402 1012.92 60.2765C1012.91 60.3129 1012.9 60.347 1012.87 60.3771C1012.85 60.4071 1012.82 60.4324 1012.79 60.4514C1012.76 60.4705 1012.72 60.4829 1012.68 60.488C1012.3 60.6119 1011.9 60.6785 1011.5 60.6855C1011.11 60.7265 1010.7 60.6647 1010.34 60.5062C1009.97 60.3477 1009.65 60.0978 1009.41 59.7808C1008.67 60.4123 1007.72 60.7364 1006.74 60.6855C1006.29 60.7062 1005.84 60.6327 1005.42 60.4697C1005 60.3068 1004.61 60.0579 1004.29 59.7391C1003.98 59.4052 1003.73 59.011 1003.57 58.5803C1003.41 58.1497 1003.34 57.6913 1003.36 57.2327V53.1663C1003.36 52.9687 1003.46 52.8647 1003.66 52.8647H1005.41C1005.61 52.8647 1005.71 52.9687 1005.71 53.1663V56.9207C1005.69 57.3885 1005.85 57.8459 1006.16 58.1999C1006.31 58.3621 1006.5 58.4897 1006.7 58.574C1006.91 58.6583 1007.14 58.6974 1007.36 58.6888C1007.59 58.6987 1007.82 58.6634 1008.03 58.5849C1008.25 58.5063 1008.45 58.3861 1008.62 58.2311C1008.77 58.0678 1008.9 57.8737 1008.98 57.6609C1009.06 57.448 1009.1 57.2209 1009.09 56.9935V53.1663C1009.09 52.9687 1009.18 52.8647 1009.38 52.8647H1011.16C1011.36 52.8647 1011.45 52.9687 1011.45 53.1663V58.0647C1011.45 58.4703 1011.63 58.668 1011.97 58.668C1012.14 58.6742 1012.3 58.6567 1012.45 58.616C1012.49 58.6049 1012.54 58.6029 1012.58 58.6102C1012.62 58.6174 1012.65 58.6336 1012.69 58.6576C1012.72 58.6816 1012.75 58.7128 1012.77 58.7488C1012.79 58.7848 1012.8 58.8247 1012.8 58.8655L1012.93 60.1655Z" fill="white" fill-opacity="0.45"/>
<path d="M1029.55 60.1657C1029.56 60.2029 1029.56 60.2417 1029.55 60.2794C1029.55 60.317 1029.53 60.3525 1029.51 60.3833C1029.48 60.4141 1029.45 60.4395 1029.42 60.4576C1029.39 60.4757 1029.35 60.4861 1029.31 60.4881C1028.92 60.6138 1028.52 60.6804 1028.11 60.6857C1027.48 60.7176 1026.87 60.5419 1026.36 60.1865C1026.14 60.0342 1025.96 59.8302 1025.84 59.5926C1025.71 59.3549 1025.65 59.0909 1025.66 58.8241V56.3801C1025.68 55.9137 1025.52 55.4564 1025.22 55.1009C1025.07 54.9383 1024.89 54.8102 1024.69 54.7256C1024.49 54.6411 1024.27 54.6023 1024.05 54.6121C1023.85 54.6046 1023.65 54.642 1023.47 54.7212C1023.29 54.8005 1023.13 54.9196 1023 55.0697C1022.72 55.4182 1022.58 55.8537 1022.6 56.2969V60.1345C1022.6 60.3321 1022.51 60.4361 1022.31 60.4361H1020.54C1020.5 60.4411 1020.46 60.4368 1020.42 60.4234C1020.38 60.4101 1020.35 60.388 1020.32 60.3589C1020.29 60.3298 1020.26 60.2945 1020.25 60.2556C1020.24 60.2167 1020.23 60.1753 1020.24 60.1345V56.3801C1020.26 55.9188 1020.12 55.4648 1019.83 55.1009C1019.7 54.948 1019.54 54.825 1019.36 54.7405C1019.18 54.656 1018.98 54.6121 1018.78 54.6121C1018.57 54.6035 1018.36 54.6398 1018.16 54.7187C1017.96 54.7975 1017.78 54.9171 1017.63 55.0697C1017.33 55.407 1017.18 55.8477 1017.2 56.2969V60.1345C1017.21 60.1753 1017.21 60.2167 1017.19 60.2556C1017.18 60.2945 1017.16 60.3298 1017.13 60.3589C1017.1 60.388 1017.06 60.4101 1017.02 60.4234C1016.98 60.4368 1016.94 60.4411 1016.9 60.4361H1015.2C1015 60.4361 1014.9 60.3321 1014.9 60.1345V55.2361C1014.92 55.1526 1014.91 55.0675 1014.88 54.9875C1014.85 54.9075 1014.81 54.8347 1014.75 54.7751C1014.69 54.7155 1014.62 54.6707 1014.54 54.6442C1014.46 54.6176 1014.37 54.6102 1014.29 54.6225H1013.94C1013.71 54.6225 1013.6 54.5393 1013.6 54.3729V53.1457C1013.59 53.0697 1013.61 52.9942 1013.65 52.9318C1013.7 52.8693 1013.76 52.8237 1013.84 52.8025C1014.2 52.6717 1014.58 52.6082 1014.97 52.6153C1015.34 52.584 1015.71 52.6572 1016.04 52.8265C1016.37 52.9958 1016.64 53.2543 1016.83 53.5721C1017.18 53.2395 1017.6 52.9829 1018.06 52.8183C1018.51 52.6536 1019 52.5845 1019.49 52.6153C1019.96 52.5924 1020.43 52.6803 1020.86 52.8718C1021.29 53.0634 1021.67 53.3531 1021.96 53.7177C1022.31 53.3436 1022.74 53.0506 1023.21 52.86C1023.68 52.6693 1024.2 52.5858 1024.71 52.6153C1025.16 52.594 1025.62 52.6672 1026.05 52.8301C1026.47 52.993 1026.86 53.2421 1027.19 53.5617C1027.5 53.895 1027.75 54.289 1027.91 54.7198C1028.07 55.1507 1028.14 55.6094 1028.12 56.0681V58.0753C1028.12 58.4705 1028.29 58.6681 1028.63 58.6681C1028.79 58.6756 1028.95 58.658 1029.11 58.6161C1029.33 58.6161 1029.44 58.6993 1029.46 58.8657L1029.55 60.1657Z" fill="white" fill-opacity="0.45"/>
<path d="M906.868 51.5128C907.64 48.4288 909.428 45.6902 911.947 43.7331C914.466 41.7759 917.571 40.7126 920.768 40.7126C923.965 40.7126 927.07 41.7759 929.589 43.7331C932.107 45.6902 933.895 48.4288 934.667 51.5128H933.411C931.294 51.4818 929.219 52.1109 927.479 53.312C927.379 53.3842 927.274 53.4502 927.165 53.5096H927.019C926.91 53.4502 926.805 53.3842 926.705 53.312C924.95 52.1387 922.883 51.5121 920.768 51.5121C918.653 51.5121 916.585 52.1387 914.83 53.312C914.73 53.3842 914.625 53.4502 914.516 53.5096H914.37C914.261 53.4502 914.156 53.3842 914.056 53.312C912.316 52.1109 910.242 51.4818 908.124 51.5128H906.868ZM931.152 58.0336C931.796 57.5346 932.595 57.2736 933.411 57.2952H935.096V53.9568H933.411C931.973 53.9395 930.568 54.3845 929.404 55.2256C928.75 55.7053 927.958 55.9641 927.144 55.9641C926.331 55.9641 925.539 55.7053 924.885 55.2256C923.692 54.4002 922.273 53.9577 920.82 53.9577C919.367 53.9577 917.948 54.4002 916.755 55.2256C916.101 55.7053 915.309 55.9641 914.495 55.9641C913.682 55.9641 912.89 55.7053 912.236 55.2256C911.058 54.3737 909.632 53.9281 908.176 53.9568H906.439V57.2952H908.124C908.94 57.2736 909.739 57.5346 910.384 58.0336C911.574 58.8595 912.991 59.3023 914.443 59.3023C915.895 59.3023 917.312 58.8595 918.503 58.0336C919.148 57.5362 919.946 57.2754 920.762 57.2952C921.579 57.2719 922.379 57.5331 923.022 58.0336C924.215 58.8589 925.634 59.3014 927.087 59.3014C928.54 59.3014 929.959 58.8589 931.152 58.0336ZM931.152 64.0032C931.796 63.5042 932.595 63.2432 933.411 63.2648H935.096V59.9264H933.411C931.973 59.9091 930.568 60.3541 929.404 61.1952C928.75 61.6749 927.958 61.9337 927.144 61.9337C926.331 61.9337 925.539 61.6749 924.885 61.1952C923.692 60.3698 922.273 59.9273 920.82 59.9273C919.367 59.9273 917.948 60.3698 916.755 61.1952C916.101 61.6749 915.309 61.9337 914.495 61.9337C913.682 61.9337 912.89 61.6749 912.236 61.1952C911.058 60.3433 909.632 59.8977 908.176 59.9264H906.439V63.2648H908.124C908.94 63.2432 909.739 63.5042 910.384 64.0032C911.574 64.8291 912.991 65.2719 914.443 65.2719C915.895 65.2719 917.312 64.8291 918.503 64.0032C919.148 63.5058 919.946 63.245 920.762 63.2648C921.579 63.2415 922.379 63.5027 923.022 64.0032C924.215 64.8285 925.634 65.271 927.087 65.271C928.54 65.271 929.959 64.8285 931.152 64.0032Z" fill="white" fill-opacity="0.45"/>
<path fill-rule="evenodd" clip-rule="evenodd" d="M476.392 37.5239V42.0289C473.505 42.0289 470.736 43.1848 468.694 45.2423C466.653 47.2997 465.506 50.0902 465.506 52.9999C465.506 55.9096 466.653 58.7001 468.694 60.7576C470.736 62.815 473.505 63.9709 476.392 63.9709V68.4759H462.297V37.5239H476.392ZM476.392 63.9709L476.392 42.0289C479.28 42.0289 482.049 43.1848 484.09 45.2423C486.132 47.2997 487.279 50.0902 487.279 52.9999C487.279 55.9096 486.132 58.7001 484.09 60.7576C482.049 62.8151 479.28 63.9709 476.392 63.9709ZM498.345 44.7849H495.189V60.1019H498.345V44.7849ZM501.045 51.7599C500.436 52.6757 500.112 53.7529 500.112 54.8549C500.102 55.5858 500.237 56.3112 500.509 56.9888C500.781 57.6664 501.185 58.2824 501.696 58.8007C502.208 59.319 502.816 59.7292 503.487 60.0073C504.158 60.2853 504.877 60.4256 505.602 60.4199C506.696 60.4262 507.767 60.1052 508.679 59.4975C509.591 58.8899 510.304 58.023 510.727 57.0067C511.15 55.9904 511.264 54.8704 511.054 53.7888C510.845 52.7072 510.321 51.7127 509.55 50.9312C508.779 50.1498 507.795 49.6166 506.723 49.3993C505.651 49.1819 504.539 49.2903 503.528 49.7105C502.517 50.1308 501.653 50.844 501.045 51.7599ZM507.587 53.53C507.858 53.9189 508.009 54.3798 508.022 54.8549H508.001C508.018 55.1781 507.969 55.5014 507.857 55.8046C507.745 56.1079 507.572 56.3845 507.349 56.6173C507.126 56.8501 506.857 57.034 506.56 57.1576C506.264 57.2811 505.945 57.3416 505.624 57.3353C505.152 57.3351 504.691 57.1948 504.298 56.932C503.905 56.6691 503.598 56.2954 503.415 55.8575C503.231 55.4195 503.18 54.9369 503.268 54.4699C503.355 54.0029 503.578 53.5723 503.907 53.2319C504.236 52.8915 504.657 52.6565 505.118 52.5561C505.579 52.4558 506.059 52.4947 506.498 52.6679C506.938 52.8411 507.316 53.141 507.587 53.53ZM523.579 49.6079V59.5825C523.579 63.1017 520.844 64.5963 518.078 64.5963C517.102 64.677 516.123 64.4816 515.252 64.0321C514.38 63.5827 513.65 62.897 513.144 62.0523L515.806 60.5047C516.021 60.9428 516.364 61.3043 516.789 61.541C517.214 61.7778 517.7 61.8784 518.183 61.8297C518.49 61.8679 518.803 61.8371 519.097 61.7395C519.392 61.6419 519.661 61.48 519.886 61.2653C520.111 61.0506 520.287 60.7884 520.399 60.4975C520.512 60.2066 520.56 59.8941 520.539 59.5825V58.6179C520.172 59.0665 519.706 59.4228 519.178 59.6583C518.65 59.8938 518.076 60.0021 517.499 59.9747C516.104 59.9747 514.767 59.4163 513.78 58.4223C512.794 57.4284 512.24 56.0803 512.24 54.6747C512.24 53.269 512.794 51.9209 513.78 50.927C514.767 49.9331 516.104 49.3747 517.499 49.3747C518.076 49.3472 518.65 49.4555 519.178 49.691C519.706 49.9266 520.172 50.2828 520.539 50.7315V49.6715L523.579 49.6079ZM520.539 54.6429C520.56 54.1357 520.43 53.6339 520.166 53.2018C519.901 52.7697 519.515 52.4272 519.056 52.2183C518.597 52.0094 518.086 51.9437 517.59 52.0295C517.093 52.1154 516.634 52.3489 516.27 52.7001C515.906 53.0513 515.655 53.5041 515.549 54.0003C515.443 54.4964 515.486 55.0133 515.674 55.4843C515.861 55.9554 516.185 56.3591 516.602 56.6436C517.019 56.9282 517.511 57.0804 518.015 57.0809C518.343 57.1047 518.673 57.0588 518.983 56.9462C519.293 56.8336 519.576 56.6566 519.814 56.4269C520.052 56.1971 520.239 55.9196 520.364 55.6123C520.489 55.305 520.549 54.9748 520.539 54.6429ZM526.288 51.762C525.681 52.6774 525.356 53.7537 525.356 54.8549C525.348 55.5871 525.485 56.3137 525.759 56.992C526.032 57.6704 526.438 58.2868 526.951 58.8051C527.465 59.3234 528.076 59.7332 528.748 60.0105C529.421 60.2878 530.142 60.427 530.868 60.4199C531.961 60.4219 533.03 60.0973 533.939 59.4871C534.849 58.8769 535.558 58.0085 535.978 56.9918C536.397 55.9752 536.508 54.8559 536.296 53.7757C536.084 52.6955 535.559 51.7029 534.787 50.9236C534.015 50.1442 533.031 49.6132 531.96 49.3976C530.888 49.182 529.778 49.2916 528.768 49.7125C527.758 50.1333 526.895 50.8466 526.288 51.762ZM532.831 53.5288C533.103 53.918 533.254 54.3793 533.266 54.8549H533.256C533.273 55.178 533.224 55.5013 533.112 55.8046C533 56.1078 532.827 56.3845 532.604 56.6173C532.381 56.8501 532.112 57.034 531.816 57.1575C531.519 57.2811 531.2 57.3416 530.879 57.3353C530.407 57.3372 529.945 57.1987 529.55 56.9371C529.156 56.6755 528.847 56.3025 528.662 55.8648C528.477 55.427 528.425 54.9441 528.511 54.4764C528.598 54.0087 528.819 53.5771 529.148 53.2357C529.476 52.8942 529.898 52.6581 530.359 52.557C530.82 52.4558 531.301 52.494 531.741 52.6669C532.18 52.8398 532.56 53.1396 532.831 53.5288ZM537.842 46.7989C537.842 46.4257 537.952 46.0609 538.158 45.7506C538.363 45.4403 538.656 45.1985 538.998 45.0557C539.34 44.9129 539.716 44.8755 540.08 44.9483C540.443 45.0211 540.776 45.2008 541.038 45.4647C541.3 45.7286 541.479 46.0647 541.551 46.4308C541.623 46.7968 541.586 47.1761 541.444 47.5209C541.302 47.8657 541.063 48.1603 540.755 48.3677C540.447 48.575 540.085 48.6857 539.714 48.6857C539.22 48.6801 538.746 48.4796 538.397 48.1269C538.047 47.7743 537.848 47.2976 537.842 46.7989ZM538.147 49.6079H541.303V60.1019H538.147V49.6079ZM554.509 56.9089C554.742 56.2509 554.844 55.5528 554.809 54.8549C554.84 54.1596 554.735 53.4649 554.499 52.8106C554.264 52.1562 553.903 51.5549 553.437 51.0411C552.971 50.5273 552.409 50.111 551.784 49.816C551.158 49.521 550.481 49.353 549.791 49.3217C549.204 49.2802 548.615 49.3731 548.069 49.5933C547.522 49.8136 547.032 50.1556 546.636 50.5937V49.6079H543.48V64.3207H546.636V59.1373C547.032 59.5767 547.521 59.9203 548.068 60.1424C548.614 60.3644 549.203 60.4593 549.791 60.4199C550.484 60.3887 551.164 60.2197 551.791 59.9227C552.419 59.6257 552.982 59.2065 553.449 58.6893C553.915 58.172 554.275 57.567 554.509 56.9089ZM551.204 53.4818C551.484 53.8849 551.641 54.3626 551.653 54.8549C551.677 55.1917 551.63 55.5297 551.515 55.847C551.401 56.1642 551.221 56.4534 550.987 56.6956C550.754 56.9378 550.472 57.1275 550.161 57.2524C549.85 57.3773 549.516 57.4344 549.181 57.4201C548.692 57.422 548.214 57.2786 547.806 57.0077C547.398 56.7368 547.078 56.3505 546.887 55.8973C546.696 55.4441 546.642 54.9441 546.731 54.4599C546.821 53.9758 547.05 53.5291 547.391 53.1758C547.731 52.8225 548.167 52.5783 548.645 52.4738C549.123 52.3694 549.62 52.4093 550.075 52.5886C550.53 52.7679 550.923 53.0786 551.204 53.4818ZM564.412 56.9537C564.412 59.3705 562.308 60.3987 560.078 60.3987C559.169 60.4812 558.256 60.2869 557.457 59.841C556.658 59.395 556.01 58.7179 555.597 57.8971L558.311 56.3495C558.419 56.7277 558.652 57.0573 558.972 57.283C559.291 57.5088 559.678 57.617 560.068 57.5897C560.815 57.5897 561.193 57.3565 561.193 56.9325C561.193 56.516 560.528 56.3295 559.676 56.091C558.166 55.6679 556.071 55.0812 556.071 52.7561C556.071 50.4665 557.985 49.3217 560.152 49.3217C560.976 49.2845 561.794 49.4728 562.52 49.8666C563.246 50.2604 563.853 50.845 564.275 51.5583L561.562 52.9999C561.442 52.7264 561.246 52.4938 560.997 52.3302C560.749 52.1665 560.459 52.0788 560.163 52.0777C559.616 52.0777 559.29 52.2897 559.29 52.6607C559.29 53.0935 559.947 53.2693 560.79 53.495C562.302 53.8993 564.412 54.4637 564.412 56.9537ZM575.846 60.1019V49.6079H572.732V55.3849C572.732 56.8265 571.933 57.5049 570.797 57.5049C570.548 57.52 570.298 57.4803 570.066 57.3887C569.833 57.2971 569.623 57.1557 569.45 56.9742C569.277 56.7928 569.145 56.5757 569.063 56.3379C568.982 56.1001 568.952 55.8473 568.977 55.5969V49.6079H565.822V56.0739C565.822 58.9041 567.62 60.4199 569.724 60.4199C570.285 60.452 570.846 60.3508 571.361 60.1243C571.877 59.8978 572.332 59.5525 572.69 59.1161V60.1019H575.846ZM593.727 53.657V60.1018H590.572V53.9326C590.572 52.8726 590.077 52.2154 589.078 52.2154C588.079 52.2154 587.448 52.9468 587.448 54.187V60.1018H584.292V53.9326C584.292 52.8726 583.798 52.2154 582.799 52.2154C581.799 52.2154 581.168 52.9468 581.168 54.187V60.1018H578.013V49.6078H581.168V50.5724C581.495 50.1463 581.922 49.8088 582.41 49.5904C582.899 49.3721 583.433 49.2797 583.966 49.3216C584.5 49.2936 585.032 49.4059 585.509 49.6475C585.987 49.889 586.394 50.2516 586.69 50.6996C587.037 50.2316 587.496 49.8597 588.024 49.6187C588.552 49.3777 589.132 49.2755 589.709 49.3216C592.171 49.3216 593.727 51.0388 593.727 53.657ZM598.692 47.2123C598.692 48.5002 597.656 49.5443 596.378 49.5443C595.1 49.5443 594.064 48.5002 594.064 47.2123C594.064 45.9243 595.1 44.8802 596.378 44.8802C597.656 44.8802 598.692 45.9243 598.692 47.2123Z" fill="white" fill-opacity="0.45"/>
<path d="M262.335 51.7895C261.938 52.1899 261.635 52.6731 261.445 53.2046C261.256 53.7362 261.186 54.3031 261.24 54.865L261.222 54.8461C261.277 55.5074 261.188 56.173 260.961 56.7963C260.734 57.4196 260.374 57.9857 259.906 58.455C259.439 58.9243 258.875 59.2855 258.254 59.5135C257.633 59.7414 256.969 59.8306 256.31 59.7748L256.329 59.7937C255.541 59.72 254.749 59.8922 254.062 60.2867C253.375 60.6811 252.826 61.2787 252.489 61.9979C252.153 62.7172 252.046 63.523 252.182 64.3056C252.319 65.0882 252.693 65.8094 253.253 66.371C253.813 66.9325 254.532 67.3071 255.312 67.4435C256.092 67.5799 256.895 67.4716 257.611 67.1334C258.327 66.7951 258.922 66.2434 259.315 65.5533C259.707 64.8633 259.878 64.0686 259.804 63.2776L259.824 63.2965C259.768 62.6351 259.857 61.9696 260.084 61.3463C260.311 60.7229 260.671 60.1569 261.139 59.6876C261.606 59.2183 262.17 58.857 262.792 58.6291C263.413 58.4011 264.076 58.312 264.735 58.3678L264.715 58.3489C265.359 58.407 266.007 58.301 266.599 58.0408C267.191 57.7806 267.709 57.3746 268.103 56.8604C268.497 56.3462 268.756 55.7404 268.855 55.0992C268.953 54.458 268.889 53.8021 268.668 53.1924C268.447 52.5826 268.077 52.0387 267.59 51.6111C267.104 51.1834 266.518 50.8858 265.887 50.7459C265.256 50.606 264.599 50.6283 263.979 50.8108C263.359 50.9932 262.794 51.3298 262.338 51.7895H262.335Z" fill="white" fill-opacity="0.45"/>
<path d="M254.616 57.3177L254.596 57.2988C255.156 57.3554 255.722 57.2864 256.252 57.0968C256.783 56.9072 257.264 56.6016 257.662 56.2023C258.061 55.803 258.365 55.3199 258.555 54.7878C258.744 54.2558 258.813 53.6882 258.757 53.1261L258.777 53.145C258.721 52.4836 258.81 51.8181 259.037 51.1947C259.265 50.5714 259.625 50.0053 260.092 49.536C260.56 49.0667 261.124 48.7055 261.745 48.4776C262.366 48.2496 263.029 48.1604 263.688 48.2163L263.668 48.1974C264.457 48.2717 265.249 48.1001 265.936 47.7061C266.624 47.312 267.174 46.7147 267.51 45.9956C267.847 45.2765 267.955 44.4706 267.819 43.6878C267.683 42.905 267.309 42.1835 266.749 41.6216C266.189 41.0597 265.47 40.6848 264.69 40.5481C263.91 40.4113 263.107 40.5194 262.391 40.8575C261.674 41.1956 261.079 41.7474 260.686 42.4374C260.294 43.1275 260.123 43.9223 260.197 44.7135L260.178 44.6935C260.234 45.3549 260.145 46.0205 259.918 46.6439C259.691 47.2674 259.331 47.8335 258.863 48.3028C258.396 48.7722 257.832 49.1334 257.21 49.3613C256.589 49.5892 255.926 49.6782 255.267 49.6222L255.286 49.6422C254.726 49.5855 254.16 49.6545 253.63 49.8441C253.1 50.0338 252.618 50.3393 252.22 50.7386C251.821 51.1379 251.517 51.6211 251.327 52.1531C251.138 52.6851 251.069 53.2527 251.125 53.8149L251.106 53.796C251.161 54.4573 251.072 55.1227 250.845 55.746C250.618 56.3692 250.258 56.9352 249.791 57.4045C249.323 57.8737 248.759 58.235 248.138 58.463C247.517 58.691 246.854 58.7803 246.195 58.7247L246.214 58.7436C245.425 58.6693 244.633 58.8408 243.946 59.2349C243.258 59.6289 242.709 60.2262 242.372 60.9453C242.035 61.6644 241.927 62.4703 242.063 63.2531C242.2 64.0359 242.573 64.7574 243.133 65.3193C243.693 65.8812 244.412 66.2561 245.192 66.3928C245.972 66.5296 246.775 66.4215 247.491 66.0834C248.208 65.7453 248.803 65.1936 249.196 64.5035C249.588 63.8134 249.759 63.0186 249.685 62.2275L249.705 62.2464C249.649 61.585 249.738 60.9195 249.965 60.2961C250.193 59.6728 250.553 59.1068 251.02 58.6374C251.488 58.1681 252.052 57.8069 252.673 57.579C253.294 57.351 253.957 57.2618 254.616 57.3177Z" fill="white" fill-opacity="0.45"/>
<path d="M247.604 55.2105C248.001 54.8102 248.304 54.327 248.493 53.7954C248.682 53.2638 248.752 52.6968 248.698 52.135L248.718 52.1539C248.662 51.4924 248.751 50.8266 248.978 50.2032C249.205 49.5797 249.565 49.0135 250.033 48.5441C250.501 48.0748 251.065 47.7136 251.687 47.4858C252.308 47.258 252.972 47.1691 253.631 47.2252L253.611 47.2063C254.399 47.2804 255.191 47.1088 255.878 46.7148C256.565 46.3208 257.115 45.7236 257.451 45.0047C257.788 44.2858 257.896 43.4802 257.759 42.6977C257.623 41.9152 257.25 41.194 256.69 40.6323C256.13 40.0706 255.412 39.6958 254.632 39.5591C253.852 39.4224 253.049 39.5303 252.333 39.8682C251.617 40.2061 251.022 40.7576 250.629 41.4473C250.237 42.1371 250.066 42.9316 250.139 43.7224L250.121 43.7035C250.176 44.3649 250.087 45.0304 249.86 45.6538C249.633 46.2771 249.273 46.8432 248.805 47.3125C248.338 47.7818 247.774 48.143 247.153 48.3709C246.532 48.5989 245.868 48.6881 245.209 48.6322L245.228 48.6511C244.584 48.5932 243.936 48.6993 243.344 48.9596C242.752 49.2199 242.235 49.626 241.841 50.1403C241.447 50.6546 241.188 51.2604 241.089 51.9015C240.991 52.5427 241.055 53.1985 241.276 53.8082C241.497 54.4179 241.868 54.9618 242.354 55.3893C242.84 55.8169 243.426 56.1144 244.057 56.2542C244.689 56.3941 245.345 56.3717 245.965 56.1893C246.586 56.0068 247.15 55.6702 247.606 55.2105H247.604Z" fill="white" fill-opacity="0.45"/>
<path d="M280.014 44.7378H283.122V59.9134H280.014V44.7378Z" fill="white" fill-opacity="0.45"/>
<path d="M284.881 54.7169C284.877 53.6264 285.195 52.559 285.795 51.6501C286.396 50.7412 287.252 50.0317 288.255 49.6113C289.257 49.1909 290.362 49.0787 291.428 49.2887C292.494 49.4988 293.475 50.0218 294.245 50.7914C295.015 51.561 295.54 52.5426 295.753 53.6119C295.967 54.6812 295.859 55.7901 295.445 56.7981C295.03 57.8061 294.326 58.6678 293.423 59.2742C292.52 59.8806 291.457 60.2042 290.371 60.2042C289.649 60.2125 288.934 60.0764 288.265 59.8038C287.597 59.5312 286.989 59.1277 286.478 58.6168C285.967 58.1059 285.563 57.4979 285.288 56.8283C285.014 56.1587 284.876 55.4409 284.881 54.7169ZM292.753 54.7169C292.74 54.2469 292.589 53.791 292.32 53.4065C292.05 53.0219 291.673 52.7257 291.237 52.5547C290.8 52.3838 290.323 52.3459 289.865 52.4456C289.407 52.5453 288.989 52.7783 288.662 53.1154C288.335 53.4525 288.115 53.8787 288.028 54.3409C287.942 54.8031 287.993 55.2806 288.175 55.7138C288.357 56.147 288.663 56.5166 289.053 56.7765C289.444 57.0364 289.902 57.175 290.371 57.175C290.692 57.1836 291.011 57.1254 291.308 57.004C291.606 56.8826 291.875 56.7007 292.098 56.4698C292.322 56.2388 292.496 55.9639 292.609 55.6622C292.721 55.3605 292.77 55.0386 292.753 54.7169Z" fill="white" fill-opacity="0.45"/>
<path d="M308.245 49.5194V59.3894C308.245 62.8817 305.531 64.358 302.776 64.358C301.806 64.4308 300.835 64.2342 299.969 63.7897C299.103 63.3452 298.376 62.6699 297.867 61.838L300.518 60.2997C300.732 60.7334 301.073 61.0911 301.495 61.3251C301.917 61.5591 302.4 61.6582 302.88 61.6091C303.186 61.6517 303.498 61.6246 303.793 61.5298C304.088 61.435 304.357 61.2749 304.582 61.0614C304.807 60.8478 304.981 60.5863 305.091 60.2962C305.202 60.006 305.246 59.6947 305.22 59.3852V58.4349C304.856 58.8817 304.393 59.2367 303.868 59.4714C303.343 59.7061 302.77 59.8139 302.195 59.7863C300.829 59.743 299.533 59.1678 298.581 58.1823C297.63 57.1969 297.098 55.8785 297.098 54.5063C297.098 53.1342 297.63 51.8158 298.581 50.8304C299.533 49.8449 300.829 49.2697 302.195 49.2264C302.77 49.1988 303.343 49.3066 303.868 49.5413C304.393 49.776 304.856 50.1309 305.22 50.5778V49.5173L308.245 49.5194ZM305.221 54.5079C305.242 54.0053 305.113 53.508 304.849 53.0799C304.586 52.6518 304.202 52.3125 303.745 52.1057C303.288 51.8989 302.78 51.8341 302.286 51.9196C301.792 52.005 301.335 52.2369 300.973 52.5853C300.612 52.9337 300.362 53.3828 300.257 53.8746C300.152 54.3664 300.196 54.8786 300.383 55.3451C300.571 55.8116 300.893 56.2112 301.309 56.4924C301.724 56.7736 302.214 56.9235 302.715 56.9229C303.042 56.9458 303.37 56.8998 303.677 56.7878C303.985 56.6759 304.266 56.5005 304.502 56.273C304.738 56.0455 304.924 55.7709 305.048 55.4669C305.172 55.1629 305.231 54.8362 305.221 54.5079Z" fill="white" fill-opacity="0.45"/>
<path d="M310.005 54.7169C310 53.6264 310.318 52.559 310.919 51.6501C311.52 50.7412 312.375 50.0317 313.378 49.6113C314.381 49.1909 315.485 49.0787 316.552 49.2887C317.618 49.4988 318.598 50.0218 319.368 50.7914C320.138 51.561 320.663 52.5426 320.877 53.6119C321.09 54.6812 320.983 55.7901 320.568 56.7981C320.153 57.8061 319.45 58.6678 318.546 59.2742C317.643 59.8806 316.581 60.2042 315.494 60.2042C314.773 60.2125 314.057 60.0764 313.389 59.8038C312.72 59.5312 312.113 59.1277 311.602 58.6168C311.091 58.1059 310.686 57.4979 310.412 56.8283C310.138 56.1587 309.999 55.4409 310.005 54.7169ZM317.877 54.7169C317.864 54.2469 317.713 53.791 317.443 53.4065C317.173 53.0219 316.797 52.7257 316.36 52.5547C315.924 52.3838 315.447 52.3459 314.989 52.4456C314.531 52.5453 314.112 52.7783 313.786 53.1154C313.459 53.4525 313.238 53.8787 313.152 54.3409C313.065 54.8031 313.116 55.2806 313.299 55.7138C313.481 56.147 313.786 56.5166 314.177 56.7765C314.567 57.0364 315.026 57.175 315.494 57.175C315.815 57.1836 316.134 57.1254 316.432 57.004C316.729 56.8826 316.998 56.7007 317.222 56.4698C317.446 56.2388 317.62 55.9639 317.732 55.6622C317.845 55.3605 317.894 55.0386 317.877 54.7169Z" fill="white" fill-opacity="0.45"/>
<path d="M322.433 46.7339C322.433 46.3638 322.542 46.0021 322.747 45.6944C322.952 45.3867 323.243 45.1468 323.584 45.0052C323.925 44.8636 324.3 44.8265 324.661 44.8987C325.023 44.9709 325.355 45.1492 325.616 45.4108C325.877 45.6725 326.054 46.0059 326.126 46.3689C326.198 46.7318 326.161 47.108 326.02 47.4499C325.879 47.7918 325.64 48.0841 325.333 48.2897C325.027 48.4953 324.666 48.605 324.298 48.605C323.805 48.6001 323.333 48.4014 322.985 48.0515C322.636 47.7017 322.438 47.2286 322.433 46.7339ZM322.747 49.5195H325.855V59.9145H322.743L322.747 49.5195Z" fill="white" fill-opacity="0.45"/>
<path d="M339.272 54.7168C339.308 55.4038 339.209 56.0911 338.979 56.7393C338.749 57.3875 338.394 57.9837 337.934 58.4936C337.474 59.0036 336.918 59.4172 336.298 59.7108C335.678 60.0043 335.006 60.172 334.322 60.2041C333.746 60.2356 333.17 60.1382 332.637 59.9188C332.103 59.6994 331.625 59.3636 331.236 58.9357V64.0712H328.129V49.5193H331.236V50.4958C331.625 50.0682 332.103 49.7327 332.637 49.5135C333.17 49.2943 333.746 49.1969 334.322 49.2284C335.007 49.2604 335.678 49.428 336.298 49.7216C336.918 50.0152 337.475 50.4289 337.935 50.939C338.395 51.4491 338.75 52.0455 338.98 52.6938C339.209 53.3422 339.309 54.0297 339.272 54.7168ZM336.165 54.7168C336.153 54.2303 335.998 53.7582 335.72 53.3596C335.442 52.961 335.053 52.6536 334.601 52.4759C334.15 52.2981 333.656 52.2579 333.182 52.3604C332.708 52.4628 332.275 52.7032 331.936 53.0516C331.598 53.4001 331.369 53.8409 331.279 54.3191C331.189 54.7973 331.241 55.2915 331.43 55.7399C331.618 56.1883 331.934 56.571 332.338 56.8401C332.742 57.1091 333.216 57.2526 333.701 57.2526C334.034 57.2674 334.366 57.2115 334.676 57.0885C334.986 56.9654 335.267 56.7781 335.499 56.5386C335.732 56.2992 335.911 56.0131 336.026 55.6991C336.141 55.3852 336.188 55.0504 336.165 54.7168Z" fill="white" fill-opacity="0.45"/>
<path d="M348.861 56.7949C348.861 59.1857 346.791 60.2042 344.554 60.2042C343.65 60.2864 342.743 60.0946 341.949 59.6536C341.155 59.2126 340.511 58.5426 340.1 57.7304L342.792 56.1922C342.901 56.5676 343.135 56.8942 343.455 57.1174C343.775 57.3406 344.161 57.4469 344.55 57.4186C345.295 57.4186 345.668 57.1897 345.668 56.7749C345.668 55.6304 340.572 56.2342 340.572 52.6379C340.572 50.371 342.478 49.2286 344.632 49.2286C345.442 49.2029 346.244 49.3956 346.954 49.7868C347.665 50.178 348.258 50.7532 348.671 51.4525L346.02 52.8868C345.904 52.6145 345.71 52.3826 345.463 52.22C345.217 52.0573 344.928 51.9712 344.632 51.9722C344.094 51.9722 343.762 52.1822 343.762 52.5539C343.766 53.7394 348.861 52.9487 348.861 56.7949Z" fill="white" fill-opacity="0.45"/>
<path d="M360.212 49.5195V59.9145H357.105V58.937C356.747 59.3683 356.291 59.7082 355.777 59.9287C355.262 60.1492 354.702 60.244 354.144 60.2054C352.052 60.2054 350.273 58.7091 350.273 55.9004V49.5195H353.38V55.4436C353.354 55.6912 353.382 55.9415 353.463 56.1771C353.543 56.4127 353.673 56.6279 353.845 56.8078C354.016 56.9876 354.225 57.1279 354.455 57.2187C354.686 57.3095 354.934 57.3487 355.182 57.3336C356.321 57.3336 357.108 56.669 357.108 55.1927V49.5227L360.212 49.5195Z" fill="white" fill-opacity="0.45"/>
<path d="M378.03 53.5316V59.9135H374.923V53.8014C374.923 52.7619 374.426 52.0973 373.432 52.0973C372.396 52.0973 371.815 52.8249 371.815 54.0513V59.9135H368.709V53.8014C368.709 52.7619 368.212 52.0973 367.217 52.0973C366.181 52.0973 365.601 52.8249 365.601 54.0513V59.9135H362.494V49.5185H365.601V50.474C365.924 50.0501 366.346 49.7139 366.831 49.4962C367.316 49.2785 367.848 49.1861 368.377 49.2276C368.909 49.2015 369.438 49.3141 369.914 49.5544C370.389 49.7948 370.794 50.1546 371.09 50.5989C371.434 50.1341 371.891 49.7645 372.416 49.5247C372.941 49.2849 373.519 49.1827 374.094 49.2276C376.472 49.2287 378.03 50.9328 378.03 53.5316Z" fill="white" fill-opacity="0.45"/>
<path d="M380.658 49.4553C381.932 49.4553 382.964 48.4192 382.964 47.1411C382.964 45.863 381.932 44.8269 380.658 44.8269C379.384 44.8269 378.352 45.863 378.352 47.1411C378.352 48.4192 379.384 49.4553 380.658 49.4553Z" fill="white" fill-opacity="0.45"/>
<path d="M723.183 47.2735H726.338V60.01H723.183V47.2735ZM727.59 55.201C727.59 52.051 729.525 50.1715 732.513 50.1715C735.5 50.1715 737.435 52.051 737.435 55.201C737.435 58.351 735.542 60.241 732.513 60.241C729.483 60.241 727.59 58.4035 727.59 55.201ZM734.269 55.201C734.269 53.4685 733.586 52.45 732.513 52.45C731.44 52.45 730.767 53.5 730.767 55.201C730.767 56.902 731.429 57.931 732.513 57.931C733.596 57.931 734.269 56.965 734.269 55.2115V55.201ZM738.624 60.6295H741.653C741.797 60.9492 742.041 61.2139 742.348 61.3842C742.655 61.5545 743.009 61.6212 743.357 61.5745C744.556 61.5745 745.188 60.9235 745.188 59.9785V58.2145H745.124C744.873 58.7552 744.465 59.2082 743.953 59.5151C743.441 59.8221 742.849 59.9688 742.253 59.9365C739.949 59.9365 738.424 58.183 738.424 55.1695C738.424 52.156 739.876 50.2555 742.295 50.2555C742.91 50.2315 743.517 50.3956 744.036 50.7259C744.555 51.0561 744.961 51.5368 745.198 52.1035V50.35H748.354V59.905C748.354 62.2045 746.324 63.6325 743.326 63.6325C740.538 63.6325 738.803 62.383 738.624 60.64V60.6295ZM745.198 55.1905C745.198 53.6575 744.493 52.6915 743.378 52.6915C742.263 52.6915 741.58 53.647 741.58 55.1905C741.58 56.734 742.253 57.6055 743.378 57.6055C744.504 57.6055 745.198 56.755 745.198 55.201V55.1905ZM749.542 55.1905C749.542 52.0405 751.478 50.161 754.465 50.161C757.452 50.161 759.398 52.0405 759.398 55.1905C759.398 58.3405 757.505 60.2305 754.465 60.2305C751.425 60.2305 749.542 58.4035 749.542 55.201V55.1905ZM756.222 55.1905C756.222 53.458 755.538 52.4395 754.465 52.4395C753.392 52.4395 752.771 53.5 752.771 55.2115C752.771 56.923 753.434 57.9415 754.507 57.9415C755.58 57.9415 756.222 56.965 756.222 55.2115V55.1905ZM760.597 48.061C760.589 47.743 760.676 47.4297 760.846 47.1608C761.016 46.8919 761.263 46.6795 761.554 46.5506C761.845 46.4217 762.169 46.3821 762.483 46.4367C762.797 46.4914 763.087 46.6379 763.318 46.8576C763.548 47.0774 763.708 47.3605 763.777 47.671C763.846 47.9816 763.821 48.3057 763.706 48.6022C763.59 48.8986 763.389 49.1541 763.128 49.3363C762.866 49.5185 762.557 49.6192 762.238 49.6255C762.027 49.64 761.815 49.6107 761.616 49.5395C761.416 49.4683 761.234 49.3568 761.08 49.2118C760.926 49.0669 760.803 48.8917 760.72 48.6973C760.637 48.5028 760.595 48.2934 760.597 48.082V48.061ZM760.597 50.371H763.753V60.01H760.597V50.371ZM775.208 55.1905C775.208 58.3405 773.809 60.136 771.41 60.136C770.796 60.1754 770.183 60.0254 769.657 59.7061C769.13 59.3869 768.714 58.9138 768.465 58.351H768.402V63.097H765.247V50.35H768.402V52.072H768.465C768.702 51.4999 769.11 51.0146 769.633 50.682C770.157 50.3495 770.77 50.1859 771.389 50.2135C773.809 50.2555 775.25 52.0615 775.25 55.2115L775.208 55.1905ZM772.052 55.1905C772.052 53.6575 771.347 52.681 770.243 52.681C769.138 52.681 768.434 53.668 768.423 55.1905C768.413 56.713 769.138 57.6895 770.243 57.6895C771.347 57.6895 772.052 56.734 772.052 55.2115V55.1905ZM780.625 50.1505C783.244 50.1505 784.832 51.3895 784.906 53.374H782.034C782.034 52.6915 781.466 52.261 780.593 52.261C779.72 52.261 779.331 52.597 779.331 53.0905C779.331 53.584 779.678 53.7415 780.383 53.8885L782.402 54.298C784.327 54.7075 785.148 55.4845 785.148 56.944C785.148 58.939 783.328 60.22 780.646 60.22C777.964 60.22 776.207 58.939 776.07 56.9755H779.11C779.205 57.6895 779.773 58.1095 780.698 58.1095C781.624 58.1095 782.045 57.805 782.045 57.301C782.045 56.797 781.75 56.692 780.993 56.5345L779.173 56.146C777.29 55.7575 776.302 54.76 776.302 53.29C776.323 51.4 778.016 50.1715 780.625 50.1715V50.1505ZM795.677 59.989H792.637V58.1935H792.574C792.407 58.7963 792.038 59.324 791.529 59.6888C791.02 60.0536 790.402 60.2336 789.776 60.199C789.297 60.2262 788.817 60.1504 788.369 59.9766C787.922 59.8029 787.517 59.5353 787.182 59.1919C786.847 58.8485 786.589 58.4373 786.427 57.9861C786.265 57.5349 786.202 57.0542 786.242 56.5765V50.35H789.397V55.852C789.397 56.9965 789.986 57.6055 790.965 57.6055C791.194 57.606 791.421 57.5575 791.63 57.4633C791.839 57.3691 792.025 57.2314 792.177 57.0594C792.328 56.8874 792.441 56.685 792.508 56.4659C792.574 56.2468 792.593 56.016 792.563 55.789V50.35H795.719L795.677 59.989ZM797.202 50.35H800.253V52.2085H800.316C800.483 51.6137 800.843 51.091 801.34 50.7224C801.837 50.3539 802.442 50.1601 803.061 50.1715C803.691 50.1212 804.316 50.3093 804.813 50.6984C805.31 51.0875 805.642 51.6491 805.743 52.2715H805.806C805.997 51.6425 806.392 51.0948 806.929 50.7146C807.466 50.3343 808.115 50.1433 808.773 50.1715C809.202 50.1571 809.629 50.233 810.027 50.3943C810.425 50.5555 810.784 50.7985 811.082 51.1075C811.379 51.4165 811.609 51.7845 811.754 52.1876C811.9 52.5908 811.959 53.02 811.928 53.4475V60.01H808.773V54.2875C808.773 53.2375 808.299 52.7545 807.416 52.7545C807.219 52.7529 807.024 52.7934 806.844 52.8734C806.664 52.9534 806.503 53.071 806.372 53.2183C806.242 53.3656 806.144 53.5391 806.087 53.7272C806.029 53.9153 806.012 54.1135 806.038 54.3085V60.01H803.04V54.2455C803.04 53.2795 802.567 52.7545 801.704 52.7545C801.505 52.7546 801.308 52.7968 801.126 52.8784C800.944 52.9601 800.782 53.0792 800.65 53.2281C800.518 53.3769 800.419 53.552 800.359 53.7419C800.3 53.9317 800.281 54.132 800.305 54.3295V60.01H797.15L797.202 50.35Z" fill="white" fill-opacity="0.45"/>
<path d="M714.357 47.6007C713.822 46.3789 713.114 45.2403 712.254 44.2197C710.982 42.6661 709.396 41.3988 707.599 40.5013C705.802 39.6037 703.834 39.0963 701.826 39.0124C699.819 38.9285 697.816 39.27 695.95 40.0145C694.084 40.7589 692.397 41.8894 691 43.3316C689.603 44.7737 688.528 46.4948 687.845 48.3816C687.163 50.2684 686.888 52.278 687.04 54.2783C687.192 56.2786 687.766 58.2242 688.725 59.987C689.684 61.7498 691.006 63.2898 692.605 64.5057C693.63 65.3015 694.764 65.9484 695.971 66.4272C697.663 67.1196 699.475 67.4762 701.304 67.4772C705.079 67.4689 708.697 65.9666 711.365 63.2996C714.033 60.6326 715.533 57.0186 715.535 53.2497C715.538 51.3057 715.137 49.3822 714.357 47.6007ZM701.293 41.8992C702.936 41.8991 704.558 42.2574 706.048 42.9492C705.684 43.1059 705.303 43.2153 704.912 43.2747C703.625 43.4607 702.433 44.0571 701.513 44.9749C700.594 45.8927 699.996 47.0827 699.81 48.3672C699.728 49.0877 699.4 49.7579 698.881 50.2648C698.361 50.7717 697.683 51.0843 696.959 51.1497C695.673 51.3357 694.481 51.9321 693.561 52.8499C692.642 53.7677 692.044 54.9577 691.858 56.2422C691.795 56.9272 691.502 57.571 691.027 58.0692C690.207 56.3402 689.839 54.4322 689.956 52.5228C690.074 50.6135 690.673 48.7649 691.699 47.149C692.725 45.5331 694.143 44.2024 695.823 43.2809C697.502 42.3593 699.387 41.8768 701.304 41.8782L701.293 41.8992ZM692.594 60.5997C692.72 60.4842 692.847 60.3792 692.973 60.2532C693.909 59.3476 694.509 58.152 694.677 56.8617C694.745 56.1364 695.069 55.459 695.592 54.9507C696.095 54.428 696.772 54.1069 697.496 54.0477C698.783 53.8618 699.975 53.2654 700.894 52.3476C701.814 51.4298 702.411 50.2398 702.597 48.9552C702.643 48.1966 702.969 47.4819 703.513 46.9497C704.028 46.4372 704.712 46.1277 705.438 46.0782C706.62 45.9159 707.722 45.3912 708.593 44.5767C709.585 45.3979 710.425 46.3858 711.075 47.4957C711.036 47.5497 710.99 47.599 710.939 47.6427C710.437 48.17 709.76 48.4982 709.035 48.5667C707.747 48.7494 706.553 49.3448 705.633 50.2632C704.713 51.1816 704.116 52.3733 703.933 53.6592C703.859 54.3821 703.537 55.0571 703.021 55.57C702.506 56.0828 701.828 56.4019 701.104 56.4732C699.813 56.6578 698.617 57.253 697.692 58.1704C696.767 59.0878 696.164 60.2786 695.971 61.5657C695.914 62.0789 695.738 62.5716 695.455 63.0042C694.376 62.3646 693.41 61.5523 692.594 60.5997ZM701.293 64.6527C700.226 64.6539 699.164 64.5054 698.138 64.2117C698.489 63.5586 698.717 62.8469 698.811 62.1117C698.884 61.3905 699.205 60.7167 699.719 60.2041C700.232 59.6914 700.907 59.3713 701.63 59.2977C702.919 59.1139 704.113 58.5184 705.035 57.6004C705.956 56.6825 706.555 55.4913 706.742 54.2052C706.816 53.484 707.136 52.8102 707.65 52.2976C708.163 51.7849 708.838 51.4648 709.561 51.3912C710.531 51.2653 711.455 50.9049 712.254 50.3412C712.697 52.019 712.75 53.7759 712.407 55.4772C712.065 57.1784 711.336 58.7787 710.278 60.1553C709.22 61.532 707.86 62.6484 706.303 63.4189C704.745 64.1894 703.031 64.5935 701.293 64.6002V64.6527Z" fill="white" fill-opacity="0.45"/>
<path d="M1157.7 47.4731H1161.08V61.1231H1157.7V47.4731ZM1162.42 55.9886C1162.42 52.6076 1164.53 50.5811 1167.68 50.5811C1170.84 50.5811 1172.94 52.6076 1172.94 55.9886C1172.94 59.3696 1170.91 61.4171 1167.68 61.4171C1164.45 61.4171 1162.42 59.4431 1162.42 55.9886ZM1169.6 55.9886C1169.6 54.1301 1168.87 53.0381 1167.71 53.0381C1166.56 53.0381 1165.84 54.0881 1165.84 55.9886C1165.84 57.8891 1166.56 58.9286 1167.71 58.9286C1168.87 58.9286 1169.62 57.8891 1169.62 55.9991L1169.6 55.9886ZM1174.29 61.8266H1177.55C1177.7 62.177 1177.96 62.4693 1178.29 62.6589C1178.62 62.8485 1179 62.9249 1179.38 62.8766C1180.67 62.8766 1181.35 62.1836 1181.35 61.1546V59.2646H1181.36C1181.08 59.8531 1180.63 60.3436 1180.06 60.6716C1179.5 60.9996 1178.85 61.1496 1178.2 61.1021C1175.73 61.1021 1174.09 59.2226 1174.09 55.9886C1174.09 52.7546 1175.66 50.7386 1178.3 50.7386C1178.96 50.7029 1179.62 50.8747 1180.19 51.2301C1180.75 51.5855 1181.2 52.1071 1181.45 52.7231H1181.36V50.8226H1184.7V61.0496C1184.7 63.5171 1182.51 65.0606 1179.29 65.0606C1176.37 65.0501 1174.5 63.7166 1174.31 61.8371L1174.29 61.8266ZM1181.36 55.9886C1181.36 54.3401 1180.6 53.3006 1179.4 53.3006C1178.2 53.3006 1177.46 54.3506 1177.46 55.9886C1177.46 57.6266 1178.19 58.5926 1179.4 58.5926C1180.61 58.5926 1181.36 57.7001 1181.36 55.9886ZM1186.04 55.9886C1186.04 52.6076 1188.14 50.5811 1191.3 50.5811C1194.45 50.5811 1196.56 52.6076 1196.56 55.9886C1196.56 59.3696 1194.52 61.4171 1191.3 61.4171C1188.08 61.4171 1186.06 59.4431 1186.06 55.9886H1186.04ZM1193.21 55.9886C1193.21 54.1301 1192.47 53.0381 1191.33 53.0381C1190.18 53.0381 1189.46 54.0881 1189.46 55.9886C1189.46 57.8891 1190.17 58.9286 1191.33 58.9286C1192.49 58.9286 1193.23 57.8891 1193.23 55.9991L1193.21 55.9886ZM1197.92 48.3341C1197.91 47.9907 1198 47.6509 1198.18 47.3582C1198.36 47.0655 1198.62 46.8334 1198.94 46.6917C1199.25 46.5501 1199.6 46.5053 1199.94 46.5632C1200.28 46.6211 1200.59 46.779 1200.84 47.0167C1201.09 47.2543 1201.26 47.5608 1201.33 47.8967C1201.41 48.2326 1201.38 48.5825 1201.25 48.9014C1201.12 49.2204 1200.9 49.4938 1200.61 49.6865C1200.33 49.8791 1199.99 49.9823 1199.65 49.9826C1199.43 49.9882 1199.21 49.9501 1199 49.8705C1198.8 49.7909 1198.61 49.6715 1198.45 49.5191C1198.29 49.3667 1198.17 49.1844 1198.08 48.9828C1197.99 48.7812 1197.95 48.5642 1197.94 48.3446L1197.92 48.3341ZM1197.92 50.8121H1201.34V61.1651H1197.98L1197.92 50.8121ZM1213.64 55.9886C1213.64 59.3591 1212.12 61.3121 1209.55 61.3121C1208.89 61.3527 1208.23 61.1902 1207.67 60.8466C1207.1 60.503 1206.66 59.9948 1206.39 59.3906H1206.33V64.4936H1202.95V50.8436H1206.31V52.6916H1206.37C1206.63 52.0755 1207.07 51.5534 1207.63 51.1964C1208.2 50.8394 1208.86 50.6649 1209.53 50.6966C1212.18 50.6756 1213.7 52.6181 1213.7 55.9991L1213.64 55.9886ZM1210.2 55.9886C1210.2 54.3506 1209.43 53.2901 1208.24 53.2901C1207.05 53.2901 1206.31 54.3401 1206.3 55.9886C1206.29 57.6371 1207.05 58.6766 1208.24 58.6766C1209.43 58.6766 1210.26 57.7001 1210.26 55.9991L1210.2 55.9886ZM1219.4 50.5706C1222.23 50.5706 1223.99 51.9041 1224.01 54.0461H1220.93C1220.93 53.3006 1220.31 52.8386 1219.38 52.8386C1218.46 52.8386 1218.01 53.1956 1218.01 53.7311C1218.01 54.2666 1218.4 54.4346 1219.18 54.5921L1221.35 55.0331C1223.45 55.4741 1224.29 56.3141 1224.29 57.8786C1224.29 59.9786 1222.35 61.4066 1219.46 61.4066C1216.56 61.4066 1214.68 60.0206 1214.54 57.9101H1217.81C1217.91 58.6766 1218.52 59.1281 1219.51 59.1281C1220.5 59.1281 1220.96 58.8131 1220.96 58.2566C1220.96 57.7001 1220.64 57.6056 1219.83 57.4376L1217.88 57.0281C1215.85 56.5976 1214.78 55.5371 1214.78 53.9516C1214.85 51.8936 1216.61 50.5811 1219.47 50.5811L1219.4 50.5706ZM1235.6 61.1546H1232.33V59.2121H1232.27C1232.08 59.86 1231.68 60.4263 1231.14 60.8176C1230.59 61.2089 1229.92 61.4018 1229.25 61.3646C1228.74 61.3811 1228.23 61.2901 1227.76 61.0976C1227.29 60.9051 1226.87 60.6154 1226.52 60.2475C1226.17 59.8797 1225.9 59.442 1225.73 58.9631C1225.56 58.4843 1225.49 57.9751 1225.53 57.4691V50.8226H1228.91V56.7446C1228.91 57.9626 1229.55 58.6241 1230.6 58.6241C1230.85 58.6222 1231.1 58.5675 1231.32 58.4637C1231.54 58.3599 1231.74 58.2093 1231.9 58.0222C1232.06 57.8351 1232.18 57.6158 1232.25 57.3791C1232.32 57.1424 1232.33 56.8938 1232.3 56.6501V50.8226H1235.66L1235.6 61.1546ZM1237.23 50.8121H1240.51V52.8071H1240.59C1240.77 52.168 1241.16 51.6069 1241.69 51.2118C1242.23 50.8166 1242.88 50.6095 1243.54 50.6231C1244.21 50.5651 1244.88 50.7579 1245.41 51.1637C1245.94 51.5696 1246.3 52.1593 1246.42 52.8176H1246.57C1246.78 52.1558 1247.21 51.5819 1247.78 51.185C1248.35 50.7882 1249.03 50.5906 1249.73 50.6231C1250.19 50.6055 1250.65 50.6855 1251.08 50.8578C1251.51 51.0301 1251.89 51.2908 1252.21 51.6228C1252.54 51.9549 1252.78 52.3508 1252.94 52.7847C1253.1 53.2186 1253.16 53.6806 1253.13 54.1406V61.1651H1249.73V55.0016C1249.73 53.9516 1249.23 53.3636 1248.28 53.3636C1248.06 53.3601 1247.85 53.4025 1247.66 53.4878C1247.46 53.5732 1247.29 53.6995 1247.15 53.858C1247.01 54.0166 1246.9 54.2037 1246.84 54.4065C1246.78 54.6094 1246.76 54.8231 1246.79 55.0331V61.1651H1243.57V54.9701C1243.57 53.9201 1243.06 53.3636 1242.13 53.3636C1241.92 53.3619 1241.71 53.406 1241.51 53.493C1241.31 53.58 1241.14 53.7078 1241 53.8679C1240.85 54.028 1240.75 54.2167 1240.68 54.4213C1240.62 54.6259 1240.6 54.8416 1240.63 55.0541V61.1651H1237.25L1237.23 50.8121Z" fill="white" fill-opacity="0.45"/>
<path d="M1151.02 48.3655C1151.02 46.2757 1150.39 44.2345 1149.21 42.5094C1148.02 40.7843 1146.35 39.4557 1144.4 38.6976C1142.45 37.9395 1140.31 37.7873 1138.27 38.2608C1136.23 38.7343 1134.39 39.8116 1132.97 41.3515H1119.84V69.0085H1147.56V56.083C1148.65 55.1117 1149.52 53.9223 1150.11 52.5925C1150.71 51.2628 1151.02 49.8224 1151.02 48.3655ZM1145.69 48.3655C1145.69 49.3669 1145.39 50.3464 1144.84 51.1801C1144.28 52.0137 1143.49 52.664 1142.57 53.0487C1141.64 53.4334 1140.62 53.5351 1139.63 53.341C1138.65 53.1469 1137.75 52.6657 1137.04 51.9584C1136.33 51.251 1135.84 50.3492 1135.65 49.3672C1135.45 48.3852 1135.55 47.367 1135.93 46.4416C1136.32 45.5163 1136.97 44.7252 1137.8 44.1686C1138.63 43.6121 1139.61 43.315 1140.62 43.315C1141.96 43.315 1143.25 43.8467 1144.2 44.7936C1145.15 45.7404 1145.68 47.025 1145.69 48.3655ZM1142.23 63.685H1125.18V46.675H1130.37C1130.27 47.233 1130.22 47.7985 1130.21 48.3655C1130.22 51.1188 1131.31 53.7585 1133.26 55.7054C1135.21 57.6522 1137.86 58.7472 1140.62 58.75C1141.16 58.7471 1141.69 58.7015 1142.23 58.6135V63.685Z" fill="white" fill-opacity="0.45"/>
</g>
<path d="M17.334 55.292L14.166 68H11.646L8.964 58.172L6.282 68H3.762L0.594 55.292H2.844L5.04 65.624L7.83 55.292H10.098L12.888 65.624L15.084 55.292H17.334ZM28.3877 62.564C28.3877 62.9 28.3637 63.194 28.3157 63.446H20.6837C20.7197 64.466 21.0017 65.222 21.5297 65.714C22.0577 66.206 22.7117 66.452 23.4917 66.452C24.1757 66.452 24.7517 66.278 25.2197 65.93C25.6997 65.582 25.9937 65.12 26.1017 64.544H28.2977C28.1657 65.24 27.8897 65.858 27.4697 66.398C27.0497 66.938 26.5037 67.364 25.8317 67.676C25.1597 67.976 24.4097 68.126 23.5817 68.126C22.6217 68.126 21.7697 67.922 21.0257 67.514C20.2937 67.106 19.7177 66.518 19.2977 65.75C18.8777 64.982 18.6677 64.076 18.6677 63.032C18.6677 62 18.8777 61.1 19.2977 60.332C19.7177 59.564 20.2937 58.976 21.0257 58.568C21.7697 58.16 22.6217 57.956 23.5817 57.956C24.5537 57.956 25.3997 58.16 26.1197 58.568C26.8517 58.964 27.4097 59.516 27.7937 60.224C28.1897 60.92 28.3877 61.7 28.3877 62.564ZM26.3177 62.51C26.3417 61.862 26.2277 61.322 25.9757 60.89C25.7357 60.446 25.3997 60.122 24.9677 59.918C24.5477 59.702 24.0857 59.594 23.5817 59.594C22.7777 59.594 22.1057 59.84 21.5657 60.332C21.0257 60.824 20.7317 61.55 20.6837 62.51H26.3177ZM31.737 53.636L31.521 57.344H30.117L29.883 53.636H31.737ZM37.8295 65.876L40.6375 58.082H42.8335L39.0535 68H36.5695L32.7895 58.082H34.9855L37.8295 65.876ZM53.5596 62.564C53.5596 62.9 53.5356 63.194 53.4876 63.446H45.8556C45.8916 64.466 46.1736 65.222 46.7016 65.714C47.2296 66.206 47.8836 66.452 48.6636 66.452C49.3476 66.452 49.9236 66.278 50.3916 65.93C50.8716 65.582 51.1656 65.12 51.2736 64.544H53.4696C53.3376 65.24 53.0616 65.858 52.6416 66.398C52.2216 66.938 51.6756 67.364 51.0036 67.676C50.3316 67.976 49.5816 68.126 48.7536 68.126C47.7936 68.126 46.9416 67.922 46.1976 67.514C45.4656 67.106 44.8896 66.518 44.4696 65.75C44.0496 64.982 43.8396 64.076 43.8396 63.032C43.8396 62 44.0496 61.1 44.4696 60.332C44.8896 59.564 45.4656 58.976 46.1976 58.568C46.9416 58.16 47.7936 57.956 48.7536 57.956C49.7256 57.956 50.5716 58.16 51.2916 58.568C52.0236 58.964 52.5816 59.516 52.9656 60.224C53.3616 60.92 53.5596 61.7 53.5596 62.564ZM51.4896 62.51C51.5136 61.862 51.3996 61.322 51.1476 60.89C50.9076 60.446 50.5716 60.122 50.1396 59.918C49.7196 59.702 49.2576 59.594 48.7536 59.594C47.9496 59.594 47.2776 59.84 46.7376 60.332C46.1976 60.824 45.9036 61.55 45.8556 62.51H51.4896ZM75.8516 55.292L72.6836 68H70.1636L67.4816 58.172L64.7996 68H62.2796L59.1116 55.292H61.3616L63.5576 65.624L66.3476 55.292H68.6156L71.4056 65.624L73.6016 55.292H75.8516ZM82.2253 57.956C83.1853 57.956 84.0493 58.16 84.8173 58.568C85.5853 58.976 86.1853 59.564 86.6173 60.332C87.0493 61.1 87.2653 62 87.2653 63.032C87.2653 64.076 87.0493 64.982 86.6173 65.75C86.1853 66.518 85.5853 67.106 84.8173 67.514C84.0493 67.922 83.1853 68.126 82.2253 68.126C81.2653 68.126 80.4013 67.922 79.6333 67.514C78.8773 67.106 78.2773 66.518 77.8333 65.75C77.4013 64.97 77.1853 64.064 77.1853 63.032C77.1853 62 77.4013 61.1 77.8333 60.332C78.2773 59.564 78.8773 58.976 79.6333 58.568C80.4013 58.16 81.2653 57.956 82.2253 57.956ZM82.2253 59.738C81.6973 59.738 81.2113 59.858 80.7673 60.098C80.3233 60.338 79.9633 60.71 79.6873 61.214C79.4233 61.706 79.2913 62.312 79.2913 63.032C79.2913 63.764 79.4233 64.376 79.6873 64.868C79.9633 65.36 80.3233 65.726 80.7673 65.966C81.2113 66.206 81.6973 66.326 82.2253 66.326C82.7533 66.326 83.2393 66.206 83.6833 65.966C84.1273 65.726 84.4813 65.36 84.7453 64.868C85.0213 64.376 85.1593 63.764 85.1593 63.032C85.1593 62.312 85.0213 61.706 84.7453 61.214C84.4813 60.71 84.1273 60.338 83.6833 60.098C83.2393 59.858 82.7533 59.738 82.2253 59.738ZM91.2901 60.026C91.6261 59.378 92.1061 58.868 92.7301 58.496C93.3541 58.112 94.0741 57.92 94.8901 57.92V60.152H94.2781C93.3781 60.152 92.6521 60.374 92.1001 60.818C91.5601 61.25 91.2901 61.97 91.2901 62.978V68H89.2381V58.082H91.2901V60.026ZM102.044 68L98.4795 63.59V68H96.4275V54.68H98.4795V62.312L102.008 58.082H104.474L100.154 63.014L104.582 68H102.044ZM115.136 62.564C115.136 62.9 115.112 63.194 115.064 63.446H107.432C107.468 64.466 107.75 65.222 108.278 65.714C108.806 66.206 109.46 66.452 110.24 66.452C110.924 66.452 111.5 66.278 111.968 65.93C112.448 65.582 112.742 65.12 112.85 64.544H115.046C114.914 65.24 114.638 65.858 114.218 66.398C113.798 66.938 113.252 67.364 112.58 67.676C111.908 67.976 111.158 68.126 110.33 68.126C109.37 68.126 108.518 67.922 107.774 67.514C107.042 67.106 106.466 66.518 106.046 65.75C105.626 64.982 105.416 64.076 105.416 63.032C105.416 62 105.626 61.1 106.046 60.332C106.466 59.564 107.042 58.976 107.774 58.568C108.518 58.16 109.37 57.956 110.33 57.956C111.302 57.956 112.148 58.16 112.868 58.568C113.6 58.964 114.158 59.516 114.542 60.224C114.938 60.92 115.136 61.7 115.136 62.564ZM113.066 62.51C113.09 61.862 112.976 61.322 112.724 60.89C112.484 60.446 112.148 60.122 111.716 59.918C111.296 59.702 110.834 59.594 110.33 59.594C109.526 59.594 108.854 59.84 108.314 60.332C107.774 60.824 107.48 61.55 107.432 62.51H113.066ZM121.095 57.956C121.995 57.956 122.763 58.178 123.399 58.622C124.035 59.066 124.479 59.654 124.731 60.386V54.68H126.801V68H124.731V65.696C124.479 66.428 124.035 67.016 123.399 67.46C122.763 67.904 121.995 68.126 121.095 68.126C120.231 68.126 119.457 67.922 118.773 67.514C118.101 67.106 117.573 66.518 117.189 65.75C116.805 64.982 116.613 64.076 116.613 63.032C116.613 62 116.805 61.1 117.189 60.332C117.573 59.564 118.101 58.976 118.773 58.568C119.457 58.16 120.231 57.956 121.095 57.956ZM121.725 59.756C120.813 59.756 120.081 60.05 119.529 60.638C118.989 61.214 118.719 62.012 118.719 63.032C118.719 64.052 118.989 64.856 119.529 65.444C120.081 66.02 120.813 66.308 121.725 66.308C122.301 66.308 122.817 66.176 123.273 65.912C123.729 65.636 124.089 65.252 124.353 64.76C124.617 64.268 124.749 63.692 124.749 63.032C124.749 62.384 124.617 61.814 124.353 61.322C124.089 60.818 123.729 60.434 123.273 60.17C122.817 59.894 122.301 59.756 121.725 59.756ZM147.378 58.082L144.624 68H142.356L139.908 60.332L137.424 68H135.174L132.42 58.082H134.49L136.38 66.11L138.864 58.082H141.024L143.544 66.11L145.434 58.082H147.378ZM148.487 55.202C148.487 54.854 148.607 54.566 148.847 54.338C149.087 54.11 149.405 53.996 149.801 53.996C150.197 53.996 150.515 54.11 150.755 54.338C151.007 54.566 151.133 54.854 151.133 55.202C151.133 55.55 151.007 55.832 150.755 56.048C150.515 56.264 150.197 56.372 149.801 56.372C149.405 56.372 149.087 56.264 148.847 56.048C148.607 55.832 148.487 55.55 148.487 55.202ZM150.827 58.082V68H148.775V58.082H150.827ZM158.296 66.218V68H157.036C155.98 68 155.176 67.748 154.624 67.244C154.084 66.728 153.814 65.876 153.814 64.688V59.828H152.392V58.082H153.814V55.616H155.884V58.082H158.278V59.828H155.884V64.724C155.884 65.288 155.986 65.678 156.19 65.894C156.406 66.11 156.778 66.218 157.306 66.218H158.296ZM165.763 57.92C166.915 57.92 167.839 58.292 168.535 59.036C169.231 59.78 169.579 60.842 169.579 62.222V68H167.527V62.438C167.527 61.55 167.299 60.866 166.843 60.386C166.387 59.894 165.763 59.648 164.971 59.648C164.155 59.648 163.501 59.912 163.009 60.44C162.517 60.956 162.271 61.718 162.271 62.726V68H160.219V54.68H162.271V60.26C162.535 59.516 162.979 58.94 163.603 58.532C164.227 58.124 164.947 57.92 165.763 57.92Z" fill="white"/>
<path opacity="0.6" d="M5.544 30.99C6.45867 30.99 7.28467 31.2047 8.022 31.634C8.76867 32.0633 9.352 32.6653 9.772 33.44C10.2013 34.2053 10.416 35.0733 10.416 36.044C10.416 37.0147 10.2013 37.8873 9.772 38.662C9.352 39.4273 8.76867 40.0293 8.022 40.468C7.28467 40.8973 6.45867 41.112 5.544 41.112C4.62 41.112 3.78467 40.8973 3.038 40.468C2.30067 40.0293 1.71733 39.4273 1.288 38.662C0.858667 37.8873 0.644 37.0147 0.644 36.044C0.644 35.0733 0.858667 34.2053 1.288 33.44C1.71733 32.6653 2.30067 32.0633 3.038 31.634C3.78467 31.2047 4.62 30.99 5.544 30.99ZM5.544 32.474C4.90933 32.474 4.34467 32.6187 3.85 32.908C3.35533 33.1973 2.968 33.6127 2.688 34.154C2.41733 34.6953 2.282 35.3253 2.282 36.044C2.282 36.7627 2.41733 37.3927 2.688 37.934C2.968 38.4753 3.35533 38.8907 3.85 39.18C4.34467 39.4693 4.90933 39.614 5.544 39.614C6.16933 39.614 6.72467 39.4693 7.21 39.18C7.70467 38.8907 8.08733 38.4753 8.358 37.934C8.638 37.3927 8.778 36.7627 8.778 36.044C8.778 35.3253 8.638 34.6953 8.358 34.154C8.08733 33.6127 7.70467 33.1973 7.21 32.908C6.72467 32.6187 6.16933 32.474 5.544 32.474ZM19.1385 33.286V41H17.5285V39.32C17.3325 39.8893 16.9919 40.3327 16.5065 40.65C16.0212 40.958 15.4565 41.112 14.8125 41.112C13.9165 41.112 13.1979 40.8227 12.6565 40.244C12.1152 39.6653 11.8445 38.8393 11.8445 37.766V33.286H13.4405V37.598C13.4405 38.298 13.6179 38.8393 13.9725 39.222C14.3272 39.5953 14.8125 39.782 15.4285 39.782C16.0632 39.782 16.5719 39.5767 16.9545 39.166C17.3372 38.7553 17.5285 38.158 17.5285 37.374V33.286H19.1385ZM22.646 34.798C22.9073 34.294 23.2807 33.8973 23.766 33.608C24.2513 33.3093 24.8113 33.16 25.446 33.16V34.896H24.97C24.27 34.896 23.7053 35.0687 23.276 35.414C22.856 35.75 22.646 36.31 22.646 37.094V41H21.05V33.286H22.646V34.798ZM34.333 31.018C35.5464 31.018 36.5544 31.326 37.357 31.942C38.1597 32.558 38.701 33.3933 38.981 34.448H37.287C37.0537 33.8507 36.6804 33.3793 36.167 33.034C35.663 32.6793 35.0424 32.502 34.305 32.502C33.717 32.502 33.1897 32.6467 32.723 32.936C32.2657 33.2253 31.9017 33.6407 31.631 34.182C31.3697 34.714 31.239 35.3393 31.239 36.058C31.239 36.7673 31.3697 37.3927 31.631 37.934C31.9017 38.466 32.2657 38.8767 32.723 39.166C33.1897 39.4553 33.717 39.6 34.305 39.6C35.0424 39.6 35.663 39.4273 36.167 39.082C36.6804 38.7273 37.0537 38.256 37.287 37.668H38.981C38.701 38.7227 38.1597 39.558 37.357 40.174C36.5544 40.7807 35.5464 41.084 34.333 41.084C33.3997 41.084 32.5737 40.874 31.855 40.454C31.1364 40.0247 30.581 39.432 30.189 38.676C29.797 37.9107 29.601 37.038 29.601 36.058C29.601 35.078 29.797 34.21 30.189 33.454C30.581 32.6887 31.1364 32.0913 31.855 31.662C32.5737 31.2327 33.3997 31.018 34.333 31.018ZM42.1694 30.64V41H40.5734V30.64H42.1694ZM43.8768 31.046C43.8768 30.7753 43.9701 30.5513 44.1568 30.374C44.3434 30.1967 44.5908 30.108 44.8988 30.108C45.2068 30.108 45.4541 30.1967 45.6408 30.374C45.8368 30.5513 45.9348 30.7753 45.9348 31.046C45.9348 31.3167 45.8368 31.536 45.6408 31.704C45.4541 31.872 45.2068 31.956 44.8988 31.956C44.5908 31.956 44.3434 31.872 44.1568 31.704C43.9701 31.536 43.8768 31.3167 43.8768 31.046ZM45.6968 33.286V41H44.1008V33.286H45.6968ZM54.7961 36.772C54.7961 37.0333 54.7774 37.262 54.7401 37.458H48.8041C48.8321 38.2513 49.0514 38.8393 49.4621 39.222C49.8728 39.6047 50.3814 39.796 50.9881 39.796C51.5201 39.796 51.9681 39.6607 52.3321 39.39C52.7054 39.1193 52.9341 38.76 53.0181 38.312H54.7261C54.6234 38.8533 54.4088 39.334 54.0821 39.754C53.7554 40.174 53.3308 40.5053 52.8081 40.748C52.2854 40.9813 51.7021 41.098 51.0581 41.098C50.3114 41.098 49.6488 40.9393 49.0701 40.622C48.5008 40.3047 48.0528 39.8473 47.7261 39.25C47.3994 38.6527 47.2361 37.948 47.2361 37.136C47.2361 36.3333 47.3994 35.6333 47.7261 35.036C48.0528 34.4387 48.5008 33.9813 49.0701 33.664C49.6488 33.3467 50.3114 33.188 51.0581 33.188C51.8141 33.188 52.4721 33.3467 53.0321 33.664C53.6014 33.972 54.0354 34.4013 54.3341 34.952C54.6421 35.4933 54.7961 36.1 54.7961 36.772ZM53.1861 36.73C53.2048 36.226 53.1161 35.806 52.9201 35.47C52.7334 35.1247 52.4721 34.8727 52.1361 34.714C51.8094 34.546 51.4501 34.462 51.0581 34.462C50.4328 34.462 49.9101 34.6533 49.4901 35.036C49.0701 35.4187 48.8414 35.9833 48.8041 36.73H53.1861ZM60.6491 33.16C61.5451 33.16 62.2638 33.4493 62.8051 34.028C63.3464 34.6067 63.6171 35.4327 63.6171 36.506V41H62.0211V36.674C62.0211 35.9833 61.8438 35.4513 61.4891 35.078C61.1344 34.6953 60.6491 34.504 60.0331 34.504C59.3984 34.504 58.8898 34.7093 58.5071 35.12C58.1244 35.5213 57.9331 36.114 57.9331 36.898V41H56.3371V33.286H57.9331V34.98C58.1384 34.4013 58.4838 33.9533 58.9691 33.636C59.4544 33.3187 60.0144 33.16 60.6491 33.16ZM69.3616 39.614V41H68.3816C67.5602 41 66.9349 40.804 66.5056 40.412C66.0856 40.0107 65.8756 39.348 65.8756 38.424V34.644H64.7696V33.286H65.8756V31.368H67.4856V33.286H69.3476V34.644H67.4856V38.452C67.4856 38.8907 67.5649 39.194 67.7236 39.362C67.8916 39.53 68.1809 39.614 68.5916 39.614H69.3616ZM73.3906 33.188C74.296 33.188 75.0193 33.4213 75.5606 33.888C76.1113 34.3453 76.4473 34.9613 76.5686 35.736H75.0566C74.9913 35.316 74.8093 34.98 74.5106 34.728C74.2213 34.4667 73.834 34.336 73.3486 34.336C72.9473 34.336 72.6346 34.434 72.4106 34.63C72.196 34.8167 72.0886 35.0733 72.0886 35.4C72.0886 35.6427 72.168 35.8387 72.3266 35.988C72.4853 36.1373 72.6813 36.254 72.9146 36.338C73.1573 36.422 73.498 36.5153 73.9366 36.618C74.5153 36.7487 74.982 36.884 75.3366 37.024C75.7006 37.164 76.0086 37.388 76.2606 37.696C76.522 37.9947 76.6526 38.4053 76.6526 38.928C76.6526 39.572 76.4053 40.0947 75.9106 40.496C75.4253 40.8973 74.7673 41.098 73.9366 41.098C72.9753 41.098 72.196 40.874 71.5986 40.426C71.0106 39.978 70.656 39.3527 70.5346 38.55H72.0886C72.1353 38.97 72.322 39.3107 72.6486 39.572C72.9753 39.8333 73.4046 39.964 73.9366 39.964C74.3193 39.964 74.618 39.866 74.8326 39.67C75.0566 39.4647 75.1686 39.208 75.1686 38.9C75.1686 38.6293 75.0846 38.4147 74.9166 38.256C74.7486 38.0973 74.5386 37.976 74.2866 37.892C74.0346 37.7987 73.6893 37.7053 73.2506 37.612C72.6906 37.4813 72.2333 37.3507 71.8786 37.22C71.5333 37.0893 71.2346 36.8793 70.9826 36.59C70.74 36.2913 70.6186 35.89 70.6186 35.386C70.6186 34.7327 70.8613 34.2053 71.3466 33.804C71.8413 33.3933 72.5226 33.188 73.3906 33.188Z" fill="white"/>
</svg>
